<?xml version="1.0" encoding="UTF-8"?>
<svg xmlns="http://www.w3.org/2000/svg" width="64" height="64" viewBox="0 0 64 64" shape-rendering="crispEdges"><rect x="8" y="23" width="1" height="1" fill="#000000"/><rect x="9" y="23" width="1" height="1" fill="#000000"/><rect x="10" y="23" width="1" height="1" fill="#000000"/><rect x="11" y="23" width="1" height="1" fill="#000000"/><rect x="12" y="23" width="1" height="1" fill="#000000"/><rect x="13" y="23" width="1" height="1" fill="#000000"/><rect x="14" y="23" width="1" height="1" fill="#000000"/><rect x="15" y="23" width="1" height="1" fill="#000000"/><rect x="16" y="23" width="1" height="1" fill="#000000"/><rect x="17" y="23" width="1" height="1" fill="#000000"/><rect x="18" y="23" width="1" height="1" fill="#000000"/><rect x="19" y="23" width="1" height="1" fill="#000000"/><rect x="20" y="23" width="1" height="1" fill="#000000"/><rect x="21" y="23" width="1" height="1" fill="#000000"/><rect x="22" y="23" width="1" height="1" fill="#000000"/><rect x="23" y="23" width="1" height="1" fill="#000000"/><rect x="24" y="23" width="1" height="1" fill="#000000"/><rect x="25" y="23" width="1" height="1" fill="#000000"/><rect x="26" y="23" width="1" height="1" fill="#000000"/><rect x="27" y="23" width="1" height="1" fill="#000000"/><rect x="28" y="23" width="1" height="1" fill="#000000"/><rect x="29" y="23" width="1" height="1" fill="#000000"/><rect x="30" y="23" width="1" height="1" fill="#000000"/><rect x="31" y="23" width="1" height="1" fill="#000000"/><rect x="32" y="23" width="1" height="1" fill="#000000"/><rect x="33" y="23" width="1" height="1" fill="#000000"/><rect x="34" y="23" width="1" height="1" fill="#000000"/><rect x="35" y="23" width="1" height="1" fill="#000000"/><rect x="36" y="23" width="1" height="1" fill="#000000"/><rect x="37" y="23" width="1" height="1" fill="#000000"/><rect x="38" y="23" width="1" height="1" fill="#000000"/><rect x="39" y="23" width="1" height="1" fill="#000000"/><rect x="40" y="23" width="1" height="1" fill="#000000"/><rect x="41" y="23" width="1" height="1" fill="#000000"/><rect x="42" y="23" width="1" height="1" fill="#000000"/><rect x="43" y="23" width="1" height="1" fill="#000000"/><rect x="44" y="23" width="1" height="1" fill="#000000"/><rect x="45" y="23" width="1" height="1" fill="#000000"/><rect x="46" y="23" width="1" height="1" fill="#000000"/><rect x="47" y="23" width="1" height="1" fill="#000000"/><rect x="48" y="23" width="1" height="1" fill="#000000"/><rect x="49" y="23" width="1" height="1" fill="#000000"/><rect x="50" y="23" width="1" height="1" fill="#000000"/><rect x="51" y="23" width="1" height="1" fill="#000000"/><rect x="52" y="23" width="1" height="1" fill="#000000"/><rect x="53" y="23" width="1" height="1" fill="#000000"/><rect x="54" y="23" width="1" height="1" fill="#000000"/><rect x="7" y="24" width="1" height="1" fill="#000000"/><rect x="8" y="24" width="1" height="1" fill="#000000"/><rect x="9" y="24" width="1" height="1" fill="#000000"/><rect x="10" y="24" width="1" height="1" fill="#000000"/><rect x="11" y="24" width="1" height="1" fill="#000000"/><rect x="12" y="24" width="1" height="1" fill="#000000"/><rect x="13" y="24" width="1" height="1" fill="#000000"/><rect x="14" y="24" width="1" height="1" fill="#000000"/><rect x="15" y="24" width="1" height="1" fill="#000000"/><rect x="16" y="24" width="1" height="1" fill="#000000"/><rect x="17" y="24" width="1" height="1" fill="#000000"/><rect x="18" y="24" width="1" height="1" fill="#000000"/><rect x="19" y="24" width="1" height="1" fill="#000000"/><rect x="20" y="24" width="1" height="1" fill="#000000"/><rect x="21" y="24" width="1" height="1" fill="#000000"/><rect x="22" y="24" width="1" height="1" fill="#000000"/><rect x="23" y="24" width="1" height="1" fill="#000000"/><rect x="24" y="24" width="1" height="1" fill="#000000"/><rect x="25" y="24" width="1" height="1" fill="#000000"/><rect x="26" y="24" width="1" height="1" fill="#000000"/><rect x="27" y="24" width="1" height="1" fill="#000000"/><rect x="28" y="24" width="1" height="1" fill="#000000"/><rect x="29" y="24" width="1" height="1" fill="#000000"/><rect x="30" y="24" width="1" height="1" fill="#000000"/><rect x="31" y="24" width="1" height="1" fill="#000000"/><rect x="32" y="24" width="1" height="1" fill="#000000"/><rect x="33" y="24" width="1" height="1" fill="#000000"/><rect x="34" y="24" width="1" height="1" fill="#000000"/><rect x="35" y="24" width="1" height="1" fill="#000000"/><rect x="36" y="24" width="1" height="1" fill="#000000"/><rect x="37" y="24" width="1" height="1" fill="#000000"/><rect x="38" y="24" width="1" height="1" fill="#000000"/><rect x="39" y="24" width="1" height="1" fill="#000000"/><rect x="40" y="24" width="1" height="1" fill="#000000"/><rect x="41" y="24" width="1" height="1" fill="#000000"/><rect x="42" y="24" width="1" height="1" fill="#000000"/><rect x="43" y="24" width="1" height="1" fill="#000000"/><rect x="44" y="24" width="1" height="1" fill="#000000"/><rect x="45" y="24" width="1" height="1" fill="#000000"/><rect x="46" y="24" width="1" height="1" fill="#000000"/><rect x="47" y="24" width="1" height="1" fill="#000000"/><rect x="48" y="24" width="1" height="1" fill="#000000"/><rect x="49" y="24" width="1" height="1" fill="#000000"/><rect x="50" y="24" width="1" height="1" fill="#000000"/><rect x="51" y="24" width="1" height="1" fill="#000000"/><rect x="52" y="24" width="1" height="1" fill="#000000"/><rect x="53" y="24" width="1" height="1" fill="#000000"/><rect x="54" y="24" width="1" height="1" fill="#000000"/><rect x="55" y="24" width="1" height="1" fill="#000000"/><rect x="6" y="25" width="1" height="1" fill="#000000"/><rect x="7" y="25" width="1" height="1" fill="#000000"/><rect x="8" y="25" width="1" height="1" fill="#000000"/><rect x="9" y="25" width="1" height="1" fill="#000000"/><rect x="53" y="25" width="1" height="1" fill="#000000"/><rect x="54" y="25" width="1" height="1" fill="#000000"/><rect x="55" y="25" width="1" height="1" fill="#000000"/><rect x="56" y="25" width="1" height="1" fill="#000000"/><rect x="6" y="26" width="1" height="1" fill="#000000"/><rect x="7" y="26" width="1" height="1" fill="#000000"/><rect x="8" y="26" width="1" height="1" fill="#000000"/><rect x="55" y="26" width="1" height="1" fill="#000000"/><rect x="56" y="26" width="1" height="1" fill="#000000"/><rect x="57" y="26" width="1" height="1" fill="#000000"/><rect x="6" y="27" width="1" height="1" fill="#000000"/><rect x="7" y="27" width="1" height="1" fill="#000000"/><rect x="8" y="27" width="1" height="1" fill="#000000"/><rect x="55" y="27" width="1" height="1" fill="#000000"/><rect x="56" y="27" width="1" height="1" fill="#000000"/><rect x="57" y="27" width="1" height="1" fill="#000000"/><rect x="6" y="28" width="1" height="1" fill="#000000"/><rect x="7" y="28" width="1" height="1" fill="#000000"/><rect x="8" y="28" width="1" height="1" fill="#000000"/><rect x="55" y="28" width="1" height="1" fill="#000000"/><rect x="56" y="28" width="1" height="1" fill="#000000"/><rect x="57" y="28" width="1" height="1" fill="#000000"/><rect x="6" y="29" width="1" height="1" fill="#000000"/><rect x="7" y="29" width="1" height="1" fill="#000000"/><rect x="8" y="29" width="1" height="1" fill="#000000"/><rect x="9" y="29" width="1" height="1" fill="#000000"/><rect x="55" y="29" width="1" height="1" fill="#000000"/><rect x="56" y="29" width="1" height="1" fill="#000000"/><rect x="57" y="29" width="1" height="1" fill="#000000"/><rect x="7" y="30" width="1" height="1" fill="#000000"/><rect x="8" y="30" width="1" height="1" fill="#000000"/><rect x="9" y="30" width="1" height="1" fill="#000000"/><rect x="10" y="30" width="1" height="1" fill="#000000"/><rect x="11" y="30" width="1" height="1" fill="#000000"/><rect x="53" y="30" width="1" height="1" fill="#000000"/><rect x="54" y="30" width="1" height="1" fill="#000000"/><rect x="55" y="30" width="1" height="1" fill="#000000"/><rect x="56" y="30" width="1" height="1" fill="#000000"/><rect x="9" y="31" width="1" height="1" fill="#000000"/><rect x="10" y="31" width="1" height="1" fill="#000000"/><rect x="11" y="31" width="1" height="1" fill="#000000"/><rect x="12" y="31" width="1" height="1" fill="#000000"/><rect x="13" y="31" width="1" height="1" fill="#000000"/><rect x="14" y="31" width="1" height="1" fill="#000000"/><rect x="15" y="31" width="1" height="1" fill="#000000"/><rect x="16" y="31" width="1" height="1" fill="#000000"/><rect x="17" y="31" width="1" height="1" fill="#000000"/><rect x="18" y="31" width="1" height="1" fill="#000000"/><rect x="19" y="31" width="1" height="1" fill="#000000"/><rect x="20" y="31" width="1" height="1" fill="#000000"/><rect x="21" y="31" width="1" height="1" fill="#000000"/><rect x="22" y="31" width="1" height="1" fill="#000000"/><rect x="23" y="31" width="1" height="1" fill="#000000"/><rect x="24" y="31" width="1" height="1" fill="#000000"/><rect x="25" y="31" width="1" height="1" fill="#000000"/><rect x="26" y="31" width="1" height="1" fill="#000000"/><rect x="27" y="31" width="1" height="1" fill="#000000"/><rect x="28" y="31" width="1" height="1" fill="#000000"/><rect x="29" y="31" width="1" height="1" fill="#000000"/><rect x="30" y="31" width="1" height="1" fill="#000000"/><rect x="31" y="31" width="1" height="1" fill="#000000"/><rect x="32" y="31" width="1" height="1" fill="#000000"/><rect x="33" y="31" width="1" height="1" fill="#000000"/><rect x="34" y="31" width="1" height="1" fill="#000000"/><rect x="35" y="31" width="1" height="1" fill="#000000"/><rect x="36" y="31" width="1" height="1" fill="#000000"/><rect x="37" y="31" width="1" height="1" fill="#000000"/><rect x="38" y="31" width="1" height="1" fill="#000000"/><rect x="39" y="31" width="1" height="1" fill="#000000"/><rect x="40" y="31" width="1" height="1" fill="#000000"/><rect x="41" y="31" width="1" height="1" fill="#000000"/><rect x="42" y="31" width="1" height="1" fill="#000000"/><rect x="43" y="31" width="1" height="1" fill="#000000"/><rect x="44" y="31" width="1" height="1" fill="#000000"/><rect x="45" y="31" width="1" height="1" fill="#000000"/><rect x="46" y="31" width="1" height="1" fill="#000000"/><rect x="47" y="31" width="1" height="1" fill="#000000"/><rect x="48" y="31" width="1" height="1" fill="#000000"/><rect x="49" y="31" width="1" height="1" fill="#000000"/><rect x="50" y="31" width="1" height="1" fill="#000000"/><rect x="51" y="31" width="1" height="1" fill="#000000"/><rect x="52" y="31" width="1" height="1" fill="#000000"/><rect x="53" y="31" width="1" height="1" fill="#000000"/><rect x="54" y="31" width="1" height="1" fill="#000000"/><rect x="55" y="31" width="1" height="1" fill="#000000"/><rect x="11" y="32" width="1" height="1" fill="#000000"/><rect x="12" y="32" width="1" height="1" fill="#000000"/><rect x="13" y="32" width="1" height="1" fill="#000000"/><rect x="14" y="32" width="1" height="1" fill="#000000"/><rect x="15" y="32" width="1" height="1" fill="#000000"/><rect x="16" y="32" width="1" height="1" fill="#000000"/><rect x="17" y="32" width="1" height="1" fill="#000000"/><rect x="18" y="32" width="1" height="1" fill="#000000"/><rect x="19" y="32" width="1" height="1" fill="#000000"/><rect x="20" y="32" width="1" height="1" fill="#000000"/><rect x="21" y="32" width="1" height="1" fill="#000000"/><rect x="22" y="32" width="1" height="1" fill="#000000"/><rect x="23" y="32" width="1" height="1" fill="#000000"/><rect x="24" y="32" width="1" height="1" fill="#000000"/><rect x="25" y="32" width="1" height="1" fill="#000000"/><rect x="26" y="32" width="1" height="1" fill="#000000"/><rect x="27" y="32" width="1" height="1" fill="#000000"/><rect x="28" y="32" width="1" height="1" fill="#000000"/><rect x="29" y="32" width="1" height="1" fill="#000000"/><rect x="30" y="32" width="1" height="1" fill="#000000"/><rect x="31" y="32" width="1" height="1" fill="#000000"/><rect x="32" y="32" width="1" height="1" fill="#000000"/><rect x="33" y="32" width="1" height="1" fill="#000000"/><rect x="34" y="32" width="1" height="1" fill="#000000"/><rect x="35" y="32" width="1" height="1" fill="#000000"/><rect x="36" y="32" width="1" height="1" fill="#000000"/><rect x="37" y="32" width="1" height="1" fill="#000000"/><rect x="38" y="32" width="1" height="1" fill="#000000"/><rect x="39" y="32" width="1" height="1" fill="#000000"/><rect x="40" y="32" width="1" height="1" fill="#000000"/><rect x="41" y="32" width="1" height="1" fill="#000000"/><rect x="42" y="32" width="1" height="1" fill="#000000"/><rect x="43" y="32" width="1" height="1" fill="#000000"/><rect x="44" y="32" width="1" height="1" fill="#000000"/><rect x="45" y="32" width="1" height="1" fill="#000000"/><rect x="46" y="32" width="1" height="1" fill="#000000"/><rect x="47" y="32" width="1" height="1" fill="#000000"/><rect x="48" y="32" width="1" height="1" fill="#000000"/><rect x="49" y="32" width="1" height="1" fill="#000000"/><rect x="50" y="32" width="1" height="1" fill="#000000"/><rect x="51" y="32" width="1" height="1" fill="#000000"/><rect x="52" y="32" width="1" height="1" fill="#000000"/><rect x="53" y="32" width="1" height="1" fill="#000000"/><rect x="23" y="33" width="1" height="1" fill="#000000"/><rect x="24" y="33" width="1" height="1" fill="#000000"/><rect x="39" y="33" width="1" height="1" fill="#000000"/><rect x="40" y="33" width="1" height="1" fill="#000000"/><rect x="41" y="33" width="1" height="1" fill="#000000"/><rect x="22" y="34" width="1" height="1" fill="#000000"/><rect x="23" y="34" width="1" height="1" fill="#000000"/><rect x="24" y="34" width="1" height="1" fill="#000000"/><rect x="40" y="34" width="1" height="1" fill="#000000"/><rect x="41" y="34" width="1" height="1" fill="#000000"/><rect x="42" y="34" width="1" height="1" fill="#000000"/><rect x="20" y="35" width="1" height="1" fill="#000000"/><rect x="21" y="35" width="1" height="1" fill="#000000"/><rect x="22" y="35" width="1" height="1" fill="#000000"/><rect x="23" y="35" width="1" height="1" fill="#000000"/><rect x="40" y="35" width="1" height="1" fill="#000000"/><rect x="41" y="35" width="1" height="1" fill="#000000"/><rect x="42" y="35" width="1" height="1" fill="#000000"/><rect x="43" y="35" width="1" height="1" fill="#000000"/><rect x="44" y="35" width="1" height="1" fill="#000000"/><rect x="19" y="36" width="1" height="1" fill="#000000"/><rect x="20" y="36" width="1" height="1" fill="#000000"/><rect x="21" y="36" width="1" height="1" fill="#000000"/><rect x="43" y="36" width="1" height="1" fill="#000000"/><rect x="44" y="36" width="1" height="1" fill="#000000"/><rect x="45" y="36" width="1" height="1" fill="#000000"/><rect x="18" y="37" width="1" height="1" fill="#000000"/><rect x="19" y="37" width="1" height="1" fill="#000000"/><rect x="20" y="37" width="1" height="1" fill="#000000"/><rect x="44" y="37" width="1" height="1" fill="#000000"/><rect x="45" y="37" width="1" height="1" fill="#000000"/><rect x="46" y="37" width="1" height="1" fill="#000000"/><rect x="18" y="38" width="1" height="1" fill="#000000"/><rect x="19" y="38" width="1" height="1" fill="#000000"/><rect x="44" y="38" width="1" height="1" fill="#000000"/><rect x="45" y="38" width="1" height="1" fill="#000000"/><rect x="46" y="38" width="1" height="1" fill="#000000"/><rect x="47" y="38" width="1" height="1" fill="#000000"/><rect x="17" y="39" width="1" height="1" fill="#000000"/><rect x="18" y="39" width="1" height="1" fill="#000000"/><rect x="19" y="39" width="1" height="1" fill="#000000"/><rect x="45" y="39" width="1" height="1" fill="#000000"/><rect x="46" y="39" width="1" height="1" fill="#000000"/><rect x="47" y="39" width="1" height="1" fill="#000000"/><rect x="17" y="40" width="1" height="1" fill="#000000"/><rect x="18" y="40" width="1" height="1" fill="#000000"/><rect x="19" y="40" width="1" height="1" fill="#000000"/><rect x="45" y="40" width="1" height="1" fill="#000000"/><rect x="46" y="40" width="1" height="1" fill="#000000"/><rect x="47" y="40" width="1" height="1" fill="#000000"/><rect x="17" y="41" width="1" height="1" fill="#000000"/><rect x="18" y="41" width="1" height="1" fill="#000000"/><rect x="19" y="41" width="1" height="1" fill="#000000"/><rect x="45" y="41" width="1" height="1" fill="#000000"/><rect x="46" y="41" width="1" height="1" fill="#000000"/><rect x="47" y="41" width="1" height="1" fill="#000000"/><rect x="17" y="42" width="1" height="1" fill="#000000"/><rect x="18" y="42" width="1" height="1" fill="#000000"/><rect x="19" y="42" width="1" height="1" fill="#000000"/><rect x="45" y="42" width="1" height="1" fill="#000000"/><rect x="46" y="42" width="1" height="1" fill="#000000"/><rect x="47" y="42" width="1" height="1" fill="#000000"/><rect x="17" y="43" width="1" height="1" fill="#000000"/><rect x="18" y="43" width="1" height="1" fill="#000000"/><rect x="19" y="43" width="1" height="1" fill="#000000"/><rect x="45" y="43" width="1" height="1" fill="#000000"/><rect x="46" y="43" width="1" height="1" fill="#000000"/><rect x="47" y="43" width="1" height="1" fill="#000000"/><rect x="17" y="44" width="1" height="1" fill="#000000"/><rect x="18" y="44" width="1" height="1" fill="#000000"/><rect x="19" y="44" width="1" height="1" fill="#000000"/><rect x="45" y="44" width="1" height="1" fill="#000000"/><rect x="46" y="44" width="1" height="1" fill="#000000"/><rect x="47" y="44" width="1" height="1" fill="#000000"/><rect x="17" y="45" width="1" height="1" fill="#000000"/><rect x="18" y="45" width="1" height="1" fill="#000000"/><rect x="19" y="45" width="1" height="1" fill="#000000"/><rect x="45" y="45" width="1" height="1" fill="#000000"/><rect x="46" y="45" width="1" height="1" fill="#000000"/><rect x="47" y="45" width="1" height="1" fill="#000000"/><rect x="17" y="46" width="1" height="1" fill="#000000"/><rect x="18" y="46" width="1" height="1" fill="#000000"/><rect x="19" y="46" width="1" height="1" fill="#000000"/><rect x="45" y="46" width="1" height="1" fill="#000000"/><rect x="46" y="46" width="1" height="1" fill="#000000"/><rect x="47" y="46" width="1" height="1" fill="#000000"/><rect x="17" y="47" width="1" height="1" fill="#000000"/><rect x="18" y="47" width="1" height="1" fill="#000000"/><rect x="19" y="47" width="1" height="1" fill="#000000"/><rect x="45" y="47" width="1" height="1" fill="#000000"/><rect x="46" y="47" width="1" height="1" fill="#000000"/><rect x="47" y="47" width="1" height="1" fill="#000000"/><rect x="17" y="48" width="1" height="1" fill="#000000"/><rect x="18" y="48" width="1" height="1" fill="#000000"/><rect x="19" y="48" width="1" height="1" fill="#000000"/><rect x="22" y="48" width="1" height="1" fill="#000000"/><rect x="23" y="48" width="1" height="1" fill="#000000"/><rect x="24" y="48" width="1" height="1" fill="#000000"/><rect x="25" y="48" width="1" height="1" fill="#000000"/><rect x="26" y="48" width="1" height="1" fill="#000000"/><rect x="38" y="48" width="1" height="1" fill="#000000"/><rect x="39" y="48" width="1" height="1" fill="#000000"/><rect x="40" y="48" width="1" height="1" fill="#000000"/><rect x="41" y="48" width="1" height="1" fill="#000000"/><rect x="42" y="48" width="1" height="1" fill="#000000"/><rect x="45" y="48" width="1" height="1" fill="#000000"/><rect x="46" y="48" width="1" height="1" fill="#000000"/><rect x="47" y="48" width="1" height="1" fill="#000000"/><rect x="17" y="49" width="1" height="1" fill="#000000"/><rect x="18" y="49" width="1" height="1" fill="#000000"/><rect x="21" y="49" width="1" height="1" fill="#000000"/><rect x="22" y="49" width="1" height="1" fill="#000000"/><rect x="23" y="49" width="1" height="1" fill="#000000"/><rect x="24" y="49" width="1" height="1" fill="#000000"/><rect x="25" y="49" width="1" height="1" fill="#000000"/><rect x="26" y="49" width="1" height="1" fill="#000000"/><rect x="27" y="49" width="1" height="1" fill="#000000"/><rect x="37" y="49" width="1" height="1" fill="#000000"/><rect x="38" y="49" width="1" height="1" fill="#000000"/><rect x="39" y="49" width="1" height="1" fill="#000000"/><rect x="40" y="49" width="1" height="1" fill="#000000"/><rect x="41" y="49" width="1" height="1" fill="#000000"/><rect x="42" y="49" width="1" height="1" fill="#000000"/><rect x="43" y="49" width="1" height="1" fill="#000000"/><rect x="46" y="49" width="1" height="1" fill="#000000"/><rect x="47" y="49" width="1" height="1" fill="#000000"/><rect x="17" y="50" width="1" height="1" fill="#000000"/><rect x="18" y="50" width="1" height="1" fill="#000000"/><rect x="20" y="50" width="1" height="1" fill="#000000"/><rect x="21" y="50" width="1" height="1" fill="#000000"/><rect x="22" y="50" width="1" height="1" fill="#000000"/><rect x="26" y="50" width="1" height="1" fill="#000000"/><rect x="27" y="50" width="1" height="1" fill="#000000"/><rect x="28" y="50" width="1" height="1" fill="#000000"/><rect x="36" y="50" width="1" height="1" fill="#000000"/><rect x="37" y="50" width="1" height="1" fill="#000000"/><rect x="38" y="50" width="1" height="1" fill="#000000"/><rect x="42" y="50" width="1" height="1" fill="#000000"/><rect x="43" y="50" width="1" height="1" fill="#000000"/><rect x="44" y="50" width="1" height="1" fill="#000000"/><rect x="46" y="50" width="1" height="1" fill="#000000"/><rect x="47" y="50" width="1" height="1" fill="#000000"/><rect x="17" y="51" width="1" height="1" fill="#000000"/><rect x="18" y="51" width="1" height="1" fill="#000000"/><rect x="19" y="51" width="1" height="1" fill="#000000"/><rect x="20" y="51" width="1" height="1" fill="#000000"/><rect x="21" y="51" width="1" height="1" fill="#000000"/><rect x="27" y="51" width="1" height="1" fill="#000000"/><rect x="28" y="51" width="1" height="1" fill="#000000"/><rect x="29" y="51" width="1" height="1" fill="#000000"/><rect x="30" y="51" width="1" height="1" fill="#000000"/><rect x="31" y="51" width="1" height="1" fill="#000000"/><rect x="32" y="51" width="1" height="1" fill="#000000"/><rect x="33" y="51" width="1" height="1" fill="#000000"/><rect x="34" y="51" width="1" height="1" fill="#000000"/><rect x="35" y="51" width="1" height="1" fill="#000000"/><rect x="36" y="51" width="1" height="1" fill="#000000"/><rect x="37" y="51" width="1" height="1" fill="#000000"/><rect x="43" y="51" width="1" height="1" fill="#000000"/><rect x="44" y="51" width="1" height="1" fill="#000000"/><rect x="45" y="51" width="1" height="1" fill="#000000"/><rect x="46" y="51" width="1" height="1" fill="#000000"/><rect x="47" y="51" width="1" height="1" fill="#000000"/><rect x="17" y="52" width="1" height="1" fill="#000000"/><rect x="18" y="52" width="1" height="1" fill="#000000"/><rect x="19" y="52" width="1" height="1" fill="#000000"/><rect x="20" y="52" width="1" height="1" fill="#000000"/><rect x="21" y="52" width="1" height="1" fill="#000000"/><rect x="22" y="52" width="1" height="1" fill="#000000"/><rect x="26" y="52" width="1" height="1" fill="#000000"/><rect x="27" y="52" width="1" height="1" fill="#000000"/><rect x="28" y="52" width="1" height="1" fill="#000000"/><rect x="29" y="52" width="1" height="1" fill="#000000"/><rect x="30" y="52" width="1" height="1" fill="#000000"/><rect x="31" y="52" width="1" height="1" fill="#000000"/><rect x="32" y="52" width="1" height="1" fill="#000000"/><rect x="33" y="52" width="1" height="1" fill="#000000"/><rect x="34" y="52" width="1" height="1" fill="#000000"/><rect x="35" y="52" width="1" height="1" fill="#000000"/><rect x="36" y="52" width="1" height="1" fill="#000000"/><rect x="37" y="52" width="1" height="1" fill="#000000"/><rect x="38" y="52" width="1" height="1" fill="#000000"/><rect x="42" y="52" width="1" height="1" fill="#000000"/><rect x="43" y="52" width="1" height="1" fill="#000000"/><rect x="44" y="52" width="1" height="1" fill="#000000"/><rect x="45" y="52" width="1" height="1" fill="#000000"/><rect x="46" y="52" width="1" height="1" fill="#000000"/><rect x="47" y="52" width="1" height="1" fill="#000000"/><rect x="20" y="53" width="1" height="1" fill="#000000"/><rect x="21" y="53" width="1" height="1" fill="#000000"/><rect x="22" y="53" width="1" height="1" fill="#000000"/><rect x="23" y="53" width="1" height="1" fill="#000000"/><rect x="24" y="53" width="1" height="1" fill="#000000"/><rect x="25" y="53" width="1" height="1" fill="#000000"/><rect x="26" y="53" width="1" height="1" fill="#000000"/><rect x="27" y="53" width="1" height="1" fill="#000000"/><rect x="28" y="53" width="1" height="1" fill="#000000"/><rect x="36" y="53" width="1" height="1" fill="#000000"/><rect x="37" y="53" width="1" height="1" fill="#000000"/><rect x="38" y="53" width="1" height="1" fill="#000000"/><rect x="39" y="53" width="1" height="1" fill="#000000"/><rect x="40" y="53" width="1" height="1" fill="#000000"/><rect x="41" y="53" width="1" height="1" fill="#000000"/><rect x="42" y="53" width="1" height="1" fill="#000000"/><rect x="43" y="53" width="1" height="1" fill="#000000"/><rect x="44" y="53" width="1" height="1" fill="#000000"/><rect x="22" y="54" width="1" height="1" fill="#000000"/><rect x="23" y="54" width="1" height="1" fill="#000000"/><rect x="24" y="54" width="1" height="1" fill="#000000"/><rect x="25" y="54" width="1" height="1" fill="#000000"/><rect x="26" y="54" width="1" height="1" fill="#000000"/><rect x="38" y="54" width="1" height="1" fill="#000000"/><rect x="39" y="54" width="1" height="1" fill="#000000"/><rect x="40" y="54" width="1" height="1" fill="#000000"/><rect x="41" y="54" width="1" height="1" fill="#000000"/><rect x="42" y="54" width="1" height="1" fill="#000000"/></svg>