<?xml version="1.0" encoding="UTF-8"?>
<svg xmlns="http://www.w3.org/2000/svg" width="64" height="64" viewBox="0 0 64 64" shape-rendering="crispEdges"><rect x="39" y="22" width="1" height="1" fill="#000000"/><rect x="40" y="22" width="1" height="1" fill="#000000"/><rect x="41" y="22" width="1" height="1" fill="#000000"/><rect x="42" y="22" width="1" height="1" fill="#000000"/><rect x="43" y="22" width="1" height="1" fill="#000000"/><rect x="44" y="22" width="1" height="1" fill="#000000"/><rect x="45" y="22" width="1" height="1" fill="#000000"/><rect x="46" y="22" width="1" height="1" fill="#000000"/><rect x="47" y="22" width="1" height="1" fill="#000000"/><rect x="48" y="22" width="1" height="1" fill="#000000"/><rect x="49" y="22" width="1" height="1" fill="#000000"/><rect x="50" y="22" width="1" height="1" fill="#000000"/><rect x="36" y="23" width="1" height="1" fill="#000000"/><rect x="37" y="23" width="1" height="1" fill="#000000"/><rect x="38" y="23" width="1" height="1" fill="#000000"/><rect x="39" y="23" width="1" height="1" fill="#000000"/><rect x="40" y="23" width="1" height="1" fill="#000000"/><rect x="41" y="23" width="1" height="1" fill="#000000"/><rect x="42" y="23" width="1" height="1" fill="#000000"/><rect x="43" y="23" width="1" height="1" fill="#000000"/><rect x="44" y="23" width="1" height="1" fill="#000000"/><rect x="45" y="23" width="1" height="1" fill="#000000"/><rect x="46" y="23" width="1" height="1" fill="#000000"/><rect x="47" y="23" width="1" height="1" fill="#000000"/><rect x="50" y="23" width="1" height="1" fill="#000000"/><rect x="51" y="23" width="1" height="1" fill="#000000"/><rect x="52" y="23" width="1" height="1" fill="#000000"/><rect x="19" y="24" width="1" height="1" fill="#000000"/><rect x="20" y="24" width="1" height="1" fill="#000000"/><rect x="21" y="24" width="1" height="1" fill="#000000"/><rect x="22" y="24" width="1" height="1" fill="#000000"/><rect x="23" y="24" width="1" height="1" fill="#000000"/><rect x="24" y="24" width="1" height="1" fill="#000000"/><rect x="25" y="24" width="1" height="1" fill="#000000"/><rect x="26" y="24" width="1" height="1" fill="#000000"/><rect x="27" y="24" width="1" height="1" fill="#000000"/><rect x="28" y="24" width="1" height="1" fill="#000000"/><rect x="29" y="24" width="1" height="1" fill="#000000"/><rect x="30" y="24" width="1" height="1" fill="#000000"/><rect x="31" y="24" width="1" height="1" fill="#000000"/><rect x="32" y="24" width="1" height="1" fill="#000000"/><rect x="33" y="24" width="1" height="1" fill="#000000"/><rect x="34" y="24" width="1" height="1" fill="#000000"/><rect x="35" y="24" width="1" height="1" fill="#000000"/><rect x="36" y="24" width="1" height="1" fill="#000000"/><rect x="37" y="24" width="1" height="1" fill="#000000"/><rect x="52" y="24" width="1" height="1" fill="#000000"/><rect x="53" y="24" width="1" height="1" fill="#000000"/><rect x="17" y="25" width="1" height="1" fill="#000000"/><rect x="18" y="25" width="1" height="1" fill="#000000"/><rect x="19" y="25" width="1" height="1" fill="#000000"/><rect x="20" y="25" width="1" height="1" fill="#000000"/><rect x="21" y="25" width="1" height="1" fill="#000000"/><rect x="22" y="25" width="1" height="1" fill="#000000"/><rect x="23" y="25" width="1" height="1" fill="#000000"/><rect x="24" y="25" width="1" height="1" fill="#000000"/><rect x="25" y="25" width="1" height="1" fill="#000000"/><rect x="26" y="25" width="1" height="1" fill="#000000"/><rect x="27" y="25" width="1" height="1" fill="#000000"/><rect x="28" y="25" width="1" height="1" fill="#000000"/><rect x="29" y="25" width="1" height="1" fill="#000000"/><rect x="30" y="25" width="1" height="1" fill="#000000"/><rect x="31" y="25" width="1" height="1" fill="#000000"/><rect x="32" y="25" width="1" height="1" fill="#000000"/><rect x="33" y="25" width="1" height="1" fill="#000000"/><rect x="34" y="25" width="1" height="1" fill="#000000"/><rect x="35" y="25" width="1" height="1" fill="#000000"/><rect x="36" y="25" width="1" height="1" fill="#000000"/><rect x="53" y="25" width="1" height="1" fill="#000000"/><rect x="54" y="25" width="1" height="1" fill="#000000"/><rect x="14" y="26" width="1" height="1" fill="#000000"/><rect x="15" y="26" width="1" height="1" fill="#000000"/><rect x="16" y="26" width="1" height="1" fill="#000000"/><rect x="17" y="26" width="1" height="1" fill="#000000"/><rect x="18" y="26" width="1" height="1" fill="#000000"/><rect x="19" y="26" width="1" height="1" fill="#000000"/><rect x="20" y="26" width="1" height="1" fill="#000000"/><rect x="34" y="26" width="1" height="1" fill="#000000"/><rect x="54" y="26" width="1" height="1" fill="#000000"/><rect x="55" y="26" width="1" height="1" fill="#000000"/><rect x="13" y="27" width="1" height="1" fill="#000000"/><rect x="14" y="27" width="1" height="1" fill="#000000"/><rect x="15" y="27" width="1" height="1" fill="#000000"/><rect x="16" y="27" width="1" height="1" fill="#000000"/><rect x="33" y="27" width="1" height="1" fill="#000000"/><rect x="34" y="27" width="1" height="1" fill="#000000"/><rect x="55" y="27" width="1" height="1" fill="#000000"/><rect x="56" y="27" width="1" height="1" fill="#000000"/><rect x="12" y="28" width="1" height="1" fill="#000000"/><rect x="13" y="28" width="1" height="1" fill="#000000"/><rect x="14" y="28" width="1" height="1" fill="#000000"/><rect x="33" y="28" width="1" height="1" fill="#000000"/><rect x="34" y="28" width="1" height="1" fill="#000000"/><rect x="56" y="28" width="1" height="1" fill="#000000"/><rect x="11" y="29" width="1" height="1" fill="#000000"/><rect x="12" y="29" width="1" height="1" fill="#000000"/><rect x="13" y="29" width="1" height="1" fill="#000000"/><rect x="33" y="29" width="1" height="1" fill="#000000"/><rect x="57" y="29" width="1" height="1" fill="#000000"/><rect x="10" y="30" width="1" height="1" fill="#000000"/><rect x="11" y="30" width="1" height="1" fill="#000000"/><rect x="34" y="30" width="1" height="1" fill="#000000"/><rect x="35" y="30" width="1" height="1" fill="#000000"/><rect x="58" y="30" width="1" height="1" fill="#000000"/><rect x="9" y="31" width="1" height="1" fill="#000000"/><rect x="10" y="31" width="1" height="1" fill="#000000"/><rect x="11" y="31" width="1" height="1" fill="#000000"/><rect x="34" y="31" width="1" height="1" fill="#000000"/><rect x="35" y="31" width="1" height="1" fill="#000000"/><rect x="54" y="31" width="1" height="1" fill="#000000"/><rect x="58" y="31" width="1" height="1" fill="#000000"/><rect x="9" y="32" width="1" height="1" fill="#000000"/><rect x="10" y="32" width="1" height="1" fill="#000000"/><rect x="35" y="32" width="1" height="1" fill="#000000"/><rect x="36" y="32" width="1" height="1" fill="#000000"/><rect x="53" y="32" width="1" height="1" fill="#000000"/><rect x="54" y="32" width="1" height="1" fill="#000000"/><rect x="58" y="32" width="1" height="1" fill="#000000"/><rect x="8" y="33" width="1" height="1" fill="#000000"/><rect x="9" y="33" width="1" height="1" fill="#000000"/><rect x="10" y="33" width="1" height="1" fill="#000000"/><rect x="35" y="33" width="1" height="1" fill="#000000"/><rect x="36" y="33" width="1" height="1" fill="#000000"/><rect x="37" y="33" width="1" height="1" fill="#000000"/><rect x="52" y="33" width="1" height="1" fill="#000000"/><rect x="53" y="33" width="1" height="1" fill="#000000"/><rect x="58" y="33" width="1" height="1" fill="#000000"/><rect x="7" y="34" width="1" height="1" fill="#000000"/><rect x="8" y="34" width="1" height="1" fill="#000000"/><rect x="9" y="34" width="1" height="1" fill="#000000"/><rect x="10" y="34" width="1" height="1" fill="#000000"/><rect x="36" y="34" width="1" height="1" fill="#000000"/><rect x="37" y="34" width="1" height="1" fill="#000000"/><rect x="38" y="34" width="1" height="1" fill="#000000"/><rect x="52" y="34" width="1" height="1" fill="#000000"/><rect x="53" y="34" width="1" height="1" fill="#000000"/><rect x="58" y="34" width="1" height="1" fill="#000000"/><rect x="7" y="35" width="1" height="1" fill="#000000"/><rect x="8" y="35" width="1" height="1" fill="#000000"/><rect x="9" y="35" width="1" height="1" fill="#000000"/><rect x="37" y="35" width="1" height="1" fill="#000000"/><rect x="38" y="35" width="1" height="1" fill="#000000"/><rect x="51" y="35" width="1" height="1" fill="#000000"/><rect x="52" y="35" width="1" height="1" fill="#000000"/><rect x="57" y="35" width="1" height="1" fill="#000000"/><rect x="58" y="35" width="1" height="1" fill="#000000"/><rect x="7" y="36" width="1" height="1" fill="#000000"/><rect x="8" y="36" width="1" height="1" fill="#000000"/><rect x="37" y="36" width="1" height="1" fill="#000000"/><rect x="38" y="36" width="1" height="1" fill="#000000"/><rect x="50" y="36" width="1" height="1" fill="#000000"/><rect x="51" y="36" width="1" height="1" fill="#000000"/><rect x="54" y="36" width="1" height="1" fill="#000000"/><rect x="57" y="36" width="1" height="1" fill="#000000"/><rect x="6" y="37" width="1" height="1" fill="#000000"/><rect x="7" y="37" width="1" height="1" fill="#000000"/><rect x="8" y="37" width="1" height="1" fill="#000000"/><rect x="38" y="37" width="1" height="1" fill="#000000"/><rect x="39" y="37" width="1" height="1" fill="#000000"/><rect x="40" y="37" width="1" height="1" fill="#000000"/><rect x="49" y="37" width="1" height="1" fill="#000000"/><rect x="50" y="37" width="1" height="1" fill="#000000"/><rect x="53" y="37" width="1" height="1" fill="#000000"/><rect x="54" y="37" width="1" height="1" fill="#000000"/><rect x="57" y="37" width="1" height="1" fill="#000000"/><rect x="6" y="38" width="1" height="1" fill="#000000"/><rect x="7" y="38" width="1" height="1" fill="#000000"/><rect x="8" y="38" width="1" height="1" fill="#000000"/><rect x="39" y="38" width="1" height="1" fill="#000000"/><rect x="40" y="38" width="1" height="1" fill="#000000"/><rect x="48" y="38" width="1" height="1" fill="#000000"/><rect x="49" y="38" width="1" height="1" fill="#000000"/><rect x="50" y="38" width="1" height="1" fill="#000000"/><rect x="56" y="38" width="1" height="1" fill="#000000"/><rect x="57" y="38" width="1" height="1" fill="#000000"/><rect x="6" y="39" width="1" height="1" fill="#000000"/><rect x="7" y="39" width="1" height="1" fill="#000000"/><rect x="8" y="39" width="1" height="1" fill="#000000"/><rect x="9" y="39" width="1" height="1" fill="#000000"/><rect x="40" y="39" width="1" height="1" fill="#000000"/><rect x="41" y="39" width="1" height="1" fill="#000000"/><rect x="47" y="39" width="1" height="1" fill="#000000"/><rect x="48" y="39" width="1" height="1" fill="#000000"/><rect x="49" y="39" width="1" height="1" fill="#000000"/><rect x="56" y="39" width="1" height="1" fill="#000000"/><rect x="6" y="40" width="1" height="1" fill="#000000"/><rect x="8" y="40" width="1" height="1" fill="#000000"/><rect x="9" y="40" width="1" height="1" fill="#000000"/><rect x="41" y="40" width="1" height="1" fill="#000000"/><rect x="42" y="40" width="1" height="1" fill="#000000"/><rect x="43" y="40" width="1" height="1" fill="#000000"/><rect x="44" y="40" width="1" height="1" fill="#000000"/><rect x="45" y="40" width="1" height="1" fill="#000000"/><rect x="46" y="40" width="1" height="1" fill="#000000"/><rect x="47" y="40" width="1" height="1" fill="#000000"/><rect x="56" y="40" width="1" height="1" fill="#000000"/><rect x="6" y="41" width="1" height="1" fill="#000000"/><rect x="8" y="41" width="1" height="1" fill="#000000"/><rect x="9" y="41" width="1" height="1" fill="#000000"/><rect x="10" y="41" width="1" height="1" fill="#000000"/><rect x="43" y="41" width="1" height="1" fill="#000000"/><rect x="44" y="41" width="1" height="1" fill="#000000"/><rect x="45" y="41" width="1" height="1" fill="#000000"/><rect x="56" y="41" width="1" height="1" fill="#000000"/><rect x="6" y="42" width="1" height="1" fill="#000000"/><rect x="9" y="42" width="1" height="1" fill="#000000"/><rect x="10" y="42" width="1" height="1" fill="#000000"/><rect x="11" y="42" width="1" height="1" fill="#000000"/><rect x="47" y="42" width="1" height="1" fill="#000000"/><rect x="48" y="42" width="1" height="1" fill="#000000"/><rect x="49" y="42" width="1" height="1" fill="#000000"/><rect x="50" y="42" width="1" height="1" fill="#000000"/><rect x="51" y="42" width="1" height="1" fill="#000000"/><rect x="52" y="42" width="1" height="1" fill="#000000"/><rect x="56" y="42" width="1" height="1" fill="#000000"/><rect x="6" y="43" width="1" height="1" fill="#000000"/><rect x="9" y="43" width="1" height="1" fill="#000000"/><rect x="10" y="43" width="1" height="1" fill="#000000"/><rect x="11" y="43" width="1" height="1" fill="#000000"/><rect x="12" y="43" width="1" height="1" fill="#000000"/><rect x="46" y="43" width="1" height="1" fill="#000000"/><rect x="47" y="43" width="1" height="1" fill="#000000"/><rect x="48" y="43" width="1" height="1" fill="#000000"/><rect x="49" y="43" width="1" height="1" fill="#000000"/><rect x="50" y="43" width="1" height="1" fill="#000000"/><rect x="52" y="43" width="1" height="1" fill="#000000"/><rect x="56" y="43" width="1" height="1" fill="#000000"/><rect x="6" y="44" width="1" height="1" fill="#000000"/><rect x="11" y="44" width="1" height="1" fill="#000000"/><rect x="12" y="44" width="1" height="1" fill="#000000"/><rect x="45" y="44" width="1" height="1" fill="#000000"/><rect x="46" y="44" width="1" height="1" fill="#000000"/><rect x="52" y="44" width="1" height="1" fill="#000000"/><rect x="53" y="44" width="1" height="1" fill="#000000"/><rect x="56" y="44" width="1" height="1" fill="#000000"/><rect x="6" y="45" width="1" height="1" fill="#000000"/><rect x="11" y="45" width="1" height="1" fill="#000000"/><rect x="12" y="45" width="1" height="1" fill="#000000"/><rect x="45" y="45" width="1" height="1" fill="#000000"/><rect x="46" y="45" width="1" height="1" fill="#000000"/><rect x="52" y="45" width="1" height="1" fill="#000000"/><rect x="53" y="45" width="1" height="1" fill="#000000"/><rect x="56" y="45" width="1" height="1" fill="#000000"/><rect x="6" y="46" width="1" height="1" fill="#000000"/><rect x="11" y="46" width="1" height="1" fill="#000000"/><rect x="12" y="46" width="1" height="1" fill="#000000"/><rect x="45" y="46" width="1" height="1" fill="#000000"/><rect x="46" y="46" width="1" height="1" fill="#000000"/><rect x="52" y="46" width="1" height="1" fill="#000000"/><rect x="53" y="46" width="1" height="1" fill="#000000"/><rect x="56" y="46" width="1" height="1" fill="#000000"/><rect x="6" y="47" width="1" height="1" fill="#000000"/><rect x="11" y="47" width="1" height="1" fill="#000000"/><rect x="12" y="47" width="1" height="1" fill="#000000"/><rect x="13" y="47" width="1" height="1" fill="#000000"/><rect x="45" y="47" width="1" height="1" fill="#000000"/><rect x="46" y="47" width="1" height="1" fill="#000000"/><rect x="52" y="47" width="1" height="1" fill="#000000"/><rect x="53" y="47" width="1" height="1" fill="#000000"/><rect x="56" y="47" width="1" height="1" fill="#000000"/><rect x="12" y="48" width="1" height="1" fill="#000000"/><rect x="13" y="48" width="1" height="1" fill="#000000"/><rect x="45" y="48" width="1" height="1" fill="#000000"/><rect x="46" y="48" width="1" height="1" fill="#000000"/><rect x="52" y="48" width="1" height="1" fill="#000000"/><rect x="53" y="48" width="1" height="1" fill="#000000"/><rect x="56" y="48" width="1" height="1" fill="#000000"/><rect x="12" y="49" width="1" height="1" fill="#000000"/><rect x="13" y="49" width="1" height="1" fill="#000000"/><rect x="21" y="49" width="1" height="1" fill="#000000"/><rect x="22" y="49" width="1" height="1" fill="#000000"/><rect x="23" y="49" width="1" height="1" fill="#000000"/><rect x="36" y="49" width="1" height="1" fill="#000000"/><rect x="37" y="49" width="1" height="1" fill="#000000"/><rect x="38" y="49" width="1" height="1" fill="#000000"/><rect x="45" y="49" width="1" height="1" fill="#000000"/><rect x="46" y="49" width="1" height="1" fill="#000000"/><rect x="52" y="49" width="1" height="1" fill="#000000"/><rect x="55" y="49" width="1" height="1" fill="#000000"/><rect x="56" y="49" width="1" height="1" fill="#000000"/><rect x="13" y="50" width="1" height="1" fill="#000000"/><rect x="14" y="50" width="1" height="1" fill="#000000"/><rect x="20" y="50" width="1" height="1" fill="#000000"/><rect x="21" y="50" width="1" height="1" fill="#000000"/><rect x="23" y="50" width="1" height="1" fill="#000000"/><rect x="24" y="50" width="1" height="1" fill="#000000"/><rect x="25" y="50" width="1" height="1" fill="#000000"/><rect x="26" y="50" width="1" height="1" fill="#000000"/><rect x="27" y="50" width="1" height="1" fill="#000000"/><rect x="28" y="50" width="1" height="1" fill="#000000"/><rect x="29" y="50" width="1" height="1" fill="#000000"/><rect x="30" y="50" width="1" height="1" fill="#000000"/><rect x="31" y="50" width="1" height="1" fill="#000000"/><rect x="32" y="50" width="1" height="1" fill="#000000"/><rect x="33" y="50" width="1" height="1" fill="#000000"/><rect x="34" y="50" width="1" height="1" fill="#000000"/><rect x="35" y="50" width="1" height="1" fill="#000000"/><rect x="36" y="50" width="1" height="1" fill="#000000"/><rect x="38" y="50" width="1" height="1" fill="#000000"/><rect x="39" y="50" width="1" height="1" fill="#000000"/><rect x="45" y="50" width="1" height="1" fill="#000000"/><rect x="46" y="50" width="1" height="1" fill="#000000"/><rect x="51" y="50" width="1" height="1" fill="#000000"/><rect x="52" y="50" width="1" height="1" fill="#000000"/><rect x="55" y="50" width="1" height="1" fill="#000000"/><rect x="13" y="51" width="1" height="1" fill="#000000"/><rect x="14" y="51" width="1" height="1" fill="#000000"/><rect x="20" y="51" width="1" height="1" fill="#000000"/><rect x="21" y="51" width="1" height="1" fill="#000000"/><rect x="24" y="51" width="1" height="1" fill="#000000"/><rect x="25" y="51" width="1" height="1" fill="#000000"/><rect x="26" y="51" width="1" height="1" fill="#000000"/><rect x="27" y="51" width="1" height="1" fill="#000000"/><rect x="28" y="51" width="1" height="1" fill="#000000"/><rect x="29" y="51" width="1" height="1" fill="#000000"/><rect x="30" y="51" width="1" height="1" fill="#000000"/><rect x="31" y="51" width="1" height="1" fill="#000000"/><rect x="32" y="51" width="1" height="1" fill="#000000"/><rect x="33" y="51" width="1" height="1" fill="#000000"/><rect x="34" y="51" width="1" height="1" fill="#000000"/><rect x="35" y="51" width="1" height="1" fill="#000000"/><rect x="38" y="51" width="1" height="1" fill="#000000"/><rect x="39" y="51" width="1" height="1" fill="#000000"/><rect x="45" y="51" width="1" height="1" fill="#000000"/><rect x="46" y="51" width="1" height="1" fill="#000000"/><rect x="50" y="51" width="1" height="1" fill="#000000"/><rect x="51" y="51" width="1" height="1" fill="#000000"/><rect x="55" y="51" width="1" height="1" fill="#000000"/><rect x="13" y="52" width="1" height="1" fill="#000000"/><rect x="14" y="52" width="1" height="1" fill="#000000"/><rect x="20" y="52" width="1" height="1" fill="#000000"/><rect x="21" y="52" width="1" height="1" fill="#000000"/><rect x="38" y="52" width="1" height="1" fill="#000000"/><rect x="39" y="52" width="1" height="1" fill="#000000"/><rect x="45" y="52" width="1" height="1" fill="#000000"/><rect x="46" y="52" width="1" height="1" fill="#000000"/><rect x="49" y="52" width="1" height="1" fill="#000000"/><rect x="50" y="52" width="1" height="1" fill="#000000"/><rect x="54" y="52" width="1" height="1" fill="#000000"/><rect x="55" y="52" width="1" height="1" fill="#000000"/><rect x="13" y="53" width="1" height="1" fill="#000000"/><rect x="14" y="53" width="1" height="1" fill="#000000"/><rect x="20" y="53" width="1" height="1" fill="#000000"/><rect x="21" y="53" width="1" height="1" fill="#000000"/><rect x="38" y="53" width="1" height="1" fill="#000000"/><rect x="39" y="53" width="1" height="1" fill="#000000"/><rect x="45" y="53" width="1" height="1" fill="#000000"/><rect x="46" y="53" width="1" height="1" fill="#000000"/><rect x="49" y="53" width="1" height="1" fill="#000000"/><rect x="50" y="53" width="1" height="1" fill="#000000"/><rect x="53" y="53" width="1" height="1" fill="#000000"/><rect x="54" y="53" width="1" height="1" fill="#000000"/><rect x="13" y="54" width="1" height="1" fill="#000000"/><rect x="14" y="54" width="1" height="1" fill="#000000"/><rect x="15" y="54" width="1" height="1" fill="#000000"/><rect x="16" y="54" width="1" height="1" fill="#000000"/><rect x="17" y="54" width="1" height="1" fill="#000000"/><rect x="18" y="54" width="1" height="1" fill="#000000"/><rect x="19" y="54" width="1" height="1" fill="#000000"/><rect x="20" y="54" width="1" height="1" fill="#000000"/><rect x="21" y="54" width="1" height="1" fill="#000000"/><rect x="38" y="54" width="1" height="1" fill="#000000"/><rect x="39" y="54" width="1" height="1" fill="#000000"/><rect x="40" y="54" width="1" height="1" fill="#000000"/><rect x="41" y="54" width="1" height="1" fill="#000000"/><rect x="42" y="54" width="1" height="1" fill="#000000"/><rect x="43" y="54" width="1" height="1" fill="#000000"/><rect x="44" y="54" width="1" height="1" fill="#000000"/><rect x="45" y="54" width="1" height="1" fill="#000000"/><rect x="46" y="54" width="1" height="1" fill="#000000"/><rect x="50" y="54" width="1" height="1" fill="#000000"/><rect x="51" y="54" width="1" height="1" fill="#000000"/><rect x="52" y="54" width="1" height="1" fill="#000000"/><rect x="53" y="54" width="1" height="1" fill="#000000"/><rect x="13" y="55" width="1" height="1" fill="#000000"/><rect x="14" y="55" width="1" height="1" fill="#000000"/><rect x="16" y="55" width="1" height="1" fill="#000000"/><rect x="17" y="55" width="1" height="1" fill="#000000"/><rect x="18" y="55" width="1" height="1" fill="#000000"/><rect x="20" y="55" width="1" height="1" fill="#000000"/><rect x="21" y="55" width="1" height="1" fill="#000000"/><rect x="38" y="55" width="1" height="1" fill="#000000"/><rect x="39" y="55" width="1" height="1" fill="#000000"/><rect x="41" y="55" width="1" height="1" fill="#000000"/><rect x="42" y="55" width="1" height="1" fill="#000000"/><rect x="43" y="55" width="1" height="1" fill="#000000"/><rect x="45" y="55" width="1" height="1" fill="#000000"/><rect x="46" y="55" width="1" height="1" fill="#000000"/><rect x="13" y="56" width="1" height="1" fill="#000000"/><rect x="17" y="56" width="1" height="1" fill="#000000"/><rect x="21" y="56" width="1" height="1" fill="#000000"/><rect x="38" y="56" width="1" height="1" fill="#000000"/><rect x="42" y="56" width="1" height="1" fill="#000000"/><rect x="46" y="56" width="1" height="1" fill="#000000"/><rect x="13" y="57" width="1" height="1" fill="#000000"/><rect x="14" y="57" width="1" height="1" fill="#000000"/><rect x="15" y="57" width="1" height="1" fill="#000000"/><rect x="16" y="57" width="1" height="1" fill="#000000"/><rect x="17" y="57" width="1" height="1" fill="#000000"/><rect x="18" y="57" width="1" height="1" fill="#000000"/><rect x="19" y="57" width="1" height="1" fill="#000000"/><rect x="20" y="57" width="1" height="1" fill="#000000"/><rect x="21" y="57" width="1" height="1" fill="#000000"/><rect x="38" y="57" width="1" height="1" fill="#000000"/><rect x="39" y="57" width="1" height="1" fill="#000000"/><rect x="40" y="57" width="1" height="1" fill="#000000"/><rect x="41" y="57" width="1" height="1" fill="#000000"/><rect x="42" y="57" width="1" height="1" fill="#000000"/><rect x="43" y="57" width="1" height="1" fill="#000000"/><rect x="44" y="57" width="1" height="1" fill="#000000"/><rect x="45" y="57" width="1" height="1" fill="#000000"/><rect x="46" y="57" width="1" height="1" fill="#000000"/></svg>