<?xml version="1.0" encoding="UTF-8"?>
<svg xmlns="http://www.w3.org/2000/svg" width="64" height="64" viewBox="0 0 64 64" shape-rendering="crispEdges"><rect x="31" y="18" width="1" height="1" fill="#000000"/><rect x="32" y="18" width="1" height="1" fill="#000000"/><rect x="33" y="18" width="1" height="1" fill="#000000"/><rect x="34" y="18" width="1" height="1" fill="#000000"/><rect x="35" y="18" width="1" height="1" fill="#000000"/><rect x="36" y="18" width="1" height="1" fill="#000000"/><rect x="37" y="18" width="1" height="1" fill="#000000"/><rect x="38" y="18" width="1" height="1" fill="#000000"/><rect x="39" y="18" width="1" height="1" fill="#000000"/><rect x="40" y="18" width="1" height="1" fill="#000000"/><rect x="41" y="18" width="1" height="1" fill="#000000"/><rect x="42" y="18" width="1" height="1" fill="#000000"/><rect x="43" y="18" width="1" height="1" fill="#000000"/><rect x="44" y="18" width="1" height="1" fill="#000000"/><rect x="45" y="18" width="1" height="1" fill="#000000"/><rect x="30" y="19" width="1" height="1" fill="#000000"/><rect x="31" y="19" width="1" height="1" fill="#000000"/><rect x="32" y="19" width="1" height="1" fill="#000000"/><rect x="33" y="19" width="1" height="1" fill="#000000"/><rect x="34" y="19" width="1" height="1" fill="#000000"/><rect x="35" y="19" width="1" height="1" fill="#000000"/><rect x="36" y="19" width="1" height="1" fill="#000000"/><rect x="37" y="19" width="1" height="1" fill="#000000"/><rect x="38" y="19" width="1" height="1" fill="#000000"/><rect x="39" y="19" width="1" height="1" fill="#000000"/><rect x="40" y="19" width="1" height="1" fill="#000000"/><rect x="41" y="19" width="1" height="1" fill="#000000"/><rect x="42" y="19" width="1" height="1" fill="#000000"/><rect x="43" y="19" width="1" height="1" fill="#000000"/><rect x="44" y="19" width="1" height="1" fill="#000000"/><rect x="45" y="19" width="1" height="1" fill="#000000"/><rect x="46" y="19" width="1" height="1" fill="#000000"/><rect x="28" y="20" width="1" height="1" fill="#000000"/><rect x="29" y="20" width="1" height="1" fill="#000000"/><rect x="30" y="20" width="1" height="1" fill="#000000"/><rect x="31" y="20" width="1" height="1" fill="#000000"/><rect x="32" y="20" width="1" height="1" fill="#000000"/><rect x="33" y="20" width="1" height="1" fill="#000000"/><rect x="34" y="20" width="1" height="1" fill="#000000"/><rect x="35" y="20" width="1" height="1" fill="#000000"/><rect x="44" y="20" width="1" height="1" fill="#000000"/><rect x="45" y="20" width="1" height="1" fill="#000000"/><rect x="46" y="20" width="1" height="1" fill="#000000"/><rect x="47" y="20" width="1" height="1" fill="#000000"/><rect x="26" y="21" width="1" height="1" fill="#000000"/><rect x="27" y="21" width="1" height="1" fill="#000000"/><rect x="28" y="21" width="1" height="1" fill="#000000"/><rect x="29" y="21" width="1" height="1" fill="#000000"/><rect x="30" y="21" width="1" height="1" fill="#000000"/><rect x="31" y="21" width="1" height="1" fill="#000000"/><rect x="36" y="21" width="1" height="1" fill="#000000"/><rect x="37" y="21" width="1" height="1" fill="#000000"/><rect x="38" y="21" width="1" height="1" fill="#000000"/><rect x="39" y="21" width="1" height="1" fill="#000000"/><rect x="40" y="21" width="1" height="1" fill="#000000"/><rect x="41" y="21" width="1" height="1" fill="#000000"/><rect x="42" y="21" width="1" height="1" fill="#000000"/><rect x="45" y="21" width="1" height="1" fill="#000000"/><rect x="46" y="21" width="1" height="1" fill="#000000"/><rect x="47" y="21" width="1" height="1" fill="#000000"/><rect x="48" y="21" width="1" height="1" fill="#000000"/><rect x="25" y="22" width="1" height="1" fill="#000000"/><rect x="26" y="22" width="1" height="1" fill="#000000"/><rect x="27" y="22" width="1" height="1" fill="#000000"/><rect x="28" y="22" width="1" height="1" fill="#000000"/><rect x="29" y="22" width="1" height="1" fill="#000000"/><rect x="33" y="22" width="1" height="1" fill="#000000"/><rect x="34" y="22" width="1" height="1" fill="#000000"/><rect x="35" y="22" width="1" height="1" fill="#000000"/><rect x="36" y="22" width="1" height="1" fill="#000000"/><rect x="37" y="22" width="1" height="1" fill="#000000"/><rect x="38" y="22" width="1" height="1" fill="#000000"/><rect x="39" y="22" width="1" height="1" fill="#000000"/><rect x="40" y="22" width="1" height="1" fill="#000000"/><rect x="41" y="22" width="1" height="1" fill="#000000"/><rect x="42" y="22" width="1" height="1" fill="#000000"/><rect x="43" y="22" width="1" height="1" fill="#000000"/><rect x="47" y="22" width="1" height="1" fill="#000000"/><rect x="48" y="22" width="1" height="1" fill="#000000"/><rect x="49" y="22" width="1" height="1" fill="#000000"/><rect x="24" y="23" width="1" height="1" fill="#000000"/><rect x="25" y="23" width="1" height="1" fill="#000000"/><rect x="26" y="23" width="1" height="1" fill="#000000"/><rect x="27" y="23" width="1" height="1" fill="#000000"/><rect x="28" y="23" width="1" height="1" fill="#000000"/><rect x="32" y="23" width="1" height="1" fill="#000000"/><rect x="33" y="23" width="1" height="1" fill="#000000"/><rect x="34" y="23" width="1" height="1" fill="#000000"/><rect x="43" y="23" width="1" height="1" fill="#000000"/><rect x="44" y="23" width="1" height="1" fill="#000000"/><rect x="45" y="23" width="1" height="1" fill="#000000"/><rect x="47" y="23" width="1" height="1" fill="#000000"/><rect x="48" y="23" width="1" height="1" fill="#000000"/><rect x="49" y="23" width="1" height="1" fill="#000000"/><rect x="50" y="23" width="1" height="1" fill="#000000"/><rect x="51" y="23" width="1" height="1" fill="#000000"/><rect x="52" y="23" width="1" height="1" fill="#000000"/><rect x="53" y="23" width="1" height="1" fill="#000000"/><rect x="24" y="24" width="1" height="1" fill="#000000"/><rect x="25" y="24" width="1" height="1" fill="#000000"/><rect x="26" y="24" width="1" height="1" fill="#000000"/><rect x="27" y="24" width="1" height="1" fill="#000000"/><rect x="31" y="24" width="1" height="1" fill="#000000"/><rect x="32" y="24" width="1" height="1" fill="#000000"/><rect x="45" y="24" width="1" height="1" fill="#000000"/><rect x="49" y="24" width="1" height="1" fill="#000000"/><rect x="50" y="24" width="1" height="1" fill="#000000"/><rect x="51" y="24" width="1" height="1" fill="#000000"/><rect x="52" y="24" width="1" height="1" fill="#000000"/><rect x="53" y="24" width="1" height="1" fill="#000000"/><rect x="54" y="24" width="1" height="1" fill="#000000"/><rect x="55" y="24" width="1" height="1" fill="#000000"/><rect x="23" y="25" width="1" height="1" fill="#000000"/><rect x="24" y="25" width="1" height="1" fill="#000000"/><rect x="25" y="25" width="1" height="1" fill="#000000"/><rect x="26" y="25" width="1" height="1" fill="#000000"/><rect x="30" y="25" width="1" height="1" fill="#000000"/><rect x="46" y="25" width="1" height="1" fill="#000000"/><rect x="47" y="25" width="1" height="1" fill="#000000"/><rect x="52" y="25" width="1" height="1" fill="#000000"/><rect x="53" y="25" width="1" height="1" fill="#000000"/><rect x="54" y="25" width="1" height="1" fill="#000000"/><rect x="55" y="25" width="1" height="1" fill="#000000"/><rect x="56" y="25" width="1" height="1" fill="#000000"/><rect x="22" y="26" width="1" height="1" fill="#000000"/><rect x="23" y="26" width="1" height="1" fill="#000000"/><rect x="24" y="26" width="1" height="1" fill="#000000"/><rect x="25" y="26" width="1" height="1" fill="#000000"/><rect x="29" y="26" width="1" height="1" fill="#000000"/><rect x="47" y="26" width="1" height="1" fill="#000000"/><rect x="48" y="26" width="1" height="1" fill="#000000"/><rect x="50" y="26" width="1" height="1" fill="#000000"/><rect x="51" y="26" width="1" height="1" fill="#000000"/><rect x="52" y="26" width="1" height="1" fill="#000000"/><rect x="53" y="26" width="1" height="1" fill="#000000"/><rect x="21" y="27" width="1" height="1" fill="#000000"/><rect x="22" y="27" width="1" height="1" fill="#000000"/><rect x="23" y="27" width="1" height="1" fill="#000000"/><rect x="24" y="27" width="1" height="1" fill="#000000"/><rect x="27" y="27" width="1" height="1" fill="#000000"/><rect x="50" y="27" width="1" height="1" fill="#000000"/><rect x="51" y="27" width="1" height="1" fill="#000000"/><rect x="20" y="28" width="1" height="1" fill="#000000"/><rect x="21" y="28" width="1" height="1" fill="#000000"/><rect x="22" y="28" width="1" height="1" fill="#000000"/><rect x="23" y="28" width="1" height="1" fill="#000000"/><rect x="35" y="28" width="1" height="1" fill="#000000"/><rect x="36" y="28" width="1" height="1" fill="#000000"/><rect x="37" y="28" width="1" height="1" fill="#000000"/><rect x="38" y="28" width="1" height="1" fill="#000000"/><rect x="39" y="28" width="1" height="1" fill="#000000"/><rect x="40" y="28" width="1" height="1" fill="#000000"/><rect x="41" y="28" width="1" height="1" fill="#000000"/><rect x="50" y="28" width="1" height="1" fill="#000000"/><rect x="51" y="28" width="1" height="1" fill="#000000"/><rect x="19" y="29" width="1" height="1" fill="#000000"/><rect x="20" y="29" width="1" height="1" fill="#000000"/><rect x="21" y="29" width="1" height="1" fill="#000000"/><rect x="22" y="29" width="1" height="1" fill="#000000"/><rect x="35" y="29" width="1" height="1" fill="#000000"/><rect x="36" y="29" width="1" height="1" fill="#000000"/><rect x="37" y="29" width="1" height="1" fill="#000000"/><rect x="38" y="29" width="1" height="1" fill="#000000"/><rect x="39" y="29" width="1" height="1" fill="#000000"/><rect x="40" y="29" width="1" height="1" fill="#000000"/><rect x="41" y="29" width="1" height="1" fill="#000000"/><rect x="44" y="29" width="1" height="1" fill="#000000"/><rect x="45" y="29" width="1" height="1" fill="#000000"/><rect x="50" y="29" width="1" height="1" fill="#000000"/><rect x="51" y="29" width="1" height="1" fill="#000000"/><rect x="17" y="30" width="1" height="1" fill="#000000"/><rect x="18" y="30" width="1" height="1" fill="#000000"/><rect x="19" y="30" width="1" height="1" fill="#000000"/><rect x="20" y="30" width="1" height="1" fill="#000000"/><rect x="21" y="30" width="1" height="1" fill="#000000"/><rect x="34" y="30" width="1" height="1" fill="#000000"/><rect x="35" y="30" width="1" height="1" fill="#000000"/><rect x="36" y="30" width="1" height="1" fill="#000000"/><rect x="40" y="30" width="1" height="1" fill="#000000"/><rect x="41" y="30" width="1" height="1" fill="#000000"/><rect x="45" y="30" width="1" height="1" fill="#000000"/><rect x="50" y="30" width="1" height="1" fill="#000000"/><rect x="51" y="30" width="1" height="1" fill="#000000"/><rect x="15" y="31" width="1" height="1" fill="#000000"/><rect x="16" y="31" width="1" height="1" fill="#000000"/><rect x="17" y="31" width="1" height="1" fill="#000000"/><rect x="18" y="31" width="1" height="1" fill="#000000"/><rect x="19" y="31" width="1" height="1" fill="#000000"/><rect x="20" y="31" width="1" height="1" fill="#000000"/><rect x="34" y="31" width="1" height="1" fill="#000000"/><rect x="35" y="31" width="1" height="1" fill="#000000"/><rect x="36" y="31" width="1" height="1" fill="#000000"/><rect x="39" y="31" width="1" height="1" fill="#000000"/><rect x="40" y="31" width="1" height="1" fill="#000000"/><rect x="41" y="31" width="1" height="1" fill="#000000"/><rect x="49" y="31" width="1" height="1" fill="#000000"/><rect x="50" y="31" width="1" height="1" fill="#000000"/><rect x="51" y="31" width="1" height="1" fill="#000000"/><rect x="12" y="32" width="1" height="1" fill="#000000"/><rect x="13" y="32" width="1" height="1" fill="#000000"/><rect x="14" y="32" width="1" height="1" fill="#000000"/><rect x="15" y="32" width="1" height="1" fill="#000000"/><rect x="16" y="32" width="1" height="1" fill="#000000"/><rect x="17" y="32" width="1" height="1" fill="#000000"/><rect x="18" y="32" width="1" height="1" fill="#000000"/><rect x="34" y="32" width="1" height="1" fill="#000000"/><rect x="35" y="32" width="1" height="1" fill="#000000"/><rect x="39" y="32" width="1" height="1" fill="#000000"/><rect x="40" y="32" width="1" height="1" fill="#000000"/><rect x="49" y="32" width="1" height="1" fill="#000000"/><rect x="50" y="32" width="1" height="1" fill="#000000"/><rect x="9" y="33" width="1" height="1" fill="#000000"/><rect x="10" y="33" width="1" height="1" fill="#000000"/><rect x="11" y="33" width="1" height="1" fill="#000000"/><rect x="12" y="33" width="1" height="1" fill="#000000"/><rect x="13" y="33" width="1" height="1" fill="#000000"/><rect x="14" y="33" width="1" height="1" fill="#000000"/><rect x="15" y="33" width="1" height="1" fill="#000000"/><rect x="16" y="33" width="1" height="1" fill="#000000"/><rect x="17" y="33" width="1" height="1" fill="#000000"/><rect x="34" y="33" width="1" height="1" fill="#000000"/><rect x="35" y="33" width="1" height="1" fill="#000000"/><rect x="39" y="33" width="1" height="1" fill="#000000"/><rect x="40" y="33" width="1" height="1" fill="#000000"/><rect x="48" y="33" width="1" height="1" fill="#000000"/><rect x="49" y="33" width="1" height="1" fill="#000000"/><rect x="50" y="33" width="1" height="1" fill="#000000"/><rect x="8" y="34" width="1" height="1" fill="#000000"/><rect x="9" y="34" width="1" height="1" fill="#000000"/><rect x="10" y="34" width="1" height="1" fill="#000000"/><rect x="11" y="34" width="1" height="1" fill="#000000"/><rect x="12" y="34" width="1" height="1" fill="#000000"/><rect x="13" y="34" width="1" height="1" fill="#000000"/><rect x="33" y="34" width="1" height="1" fill="#000000"/><rect x="34" y="34" width="1" height="1" fill="#000000"/><rect x="35" y="34" width="1" height="1" fill="#000000"/><rect x="39" y="34" width="1" height="1" fill="#000000"/><rect x="40" y="34" width="1" height="1" fill="#000000"/><rect x="47" y="34" width="1" height="1" fill="#000000"/><rect x="48" y="34" width="1" height="1" fill="#000000"/><rect x="49" y="34" width="1" height="1" fill="#000000"/><rect x="8" y="35" width="1" height="1" fill="#000000"/><rect x="9" y="35" width="1" height="1" fill="#000000"/><rect x="10" y="35" width="1" height="1" fill="#000000"/><rect x="33" y="35" width="1" height="1" fill="#000000"/><rect x="34" y="35" width="1" height="1" fill="#000000"/><rect x="35" y="35" width="1" height="1" fill="#000000"/><rect x="39" y="35" width="1" height="1" fill="#000000"/><rect x="40" y="35" width="1" height="1" fill="#000000"/><rect x="47" y="35" width="1" height="1" fill="#000000"/><rect x="48" y="35" width="1" height="1" fill="#000000"/><rect x="49" y="35" width="1" height="1" fill="#000000"/><rect x="8" y="36" width="1" height="1" fill="#000000"/><rect x="9" y="36" width="1" height="1" fill="#000000"/><rect x="33" y="36" width="1" height="1" fill="#000000"/><rect x="34" y="36" width="1" height="1" fill="#000000"/><rect x="39" y="36" width="1" height="1" fill="#000000"/><rect x="40" y="36" width="1" height="1" fill="#000000"/><rect x="46" y="36" width="1" height="1" fill="#000000"/><rect x="47" y="36" width="1" height="1" fill="#000000"/><rect x="48" y="36" width="1" height="1" fill="#000000"/><rect x="8" y="37" width="1" height="1" fill="#000000"/><rect x="9" y="37" width="1" height="1" fill="#000000"/><rect x="10" y="37" width="1" height="1" fill="#000000"/><rect x="33" y="37" width="1" height="1" fill="#000000"/><rect x="34" y="37" width="1" height="1" fill="#000000"/><rect x="39" y="37" width="1" height="1" fill="#000000"/><rect x="40" y="37" width="1" height="1" fill="#000000"/><rect x="46" y="37" width="1" height="1" fill="#000000"/><rect x="47" y="37" width="1" height="1" fill="#000000"/><rect x="48" y="37" width="1" height="1" fill="#000000"/><rect x="8" y="38" width="1" height="1" fill="#000000"/><rect x="9" y="38" width="1" height="1" fill="#000000"/><rect x="10" y="38" width="1" height="1" fill="#000000"/><rect x="11" y="38" width="1" height="1" fill="#000000"/><rect x="32" y="38" width="1" height="1" fill="#000000"/><rect x="33" y="38" width="1" height="1" fill="#000000"/><rect x="34" y="38" width="1" height="1" fill="#000000"/><rect x="39" y="38" width="1" height="1" fill="#000000"/><rect x="40" y="38" width="1" height="1" fill="#000000"/><rect x="45" y="38" width="1" height="1" fill="#000000"/><rect x="46" y="38" width="1" height="1" fill="#000000"/><rect x="47" y="38" width="1" height="1" fill="#000000"/><rect x="9" y="39" width="1" height="1" fill="#000000"/><rect x="10" y="39" width="1" height="1" fill="#000000"/><rect x="11" y="39" width="1" height="1" fill="#000000"/><rect x="12" y="39" width="1" height="1" fill="#000000"/><rect x="32" y="39" width="1" height="1" fill="#000000"/><rect x="33" y="39" width="1" height="1" fill="#000000"/><rect x="39" y="39" width="1" height="1" fill="#000000"/><rect x="40" y="39" width="1" height="1" fill="#000000"/><rect x="45" y="39" width="1" height="1" fill="#000000"/><rect x="46" y="39" width="1" height="1" fill="#000000"/><rect x="47" y="39" width="1" height="1" fill="#000000"/><rect x="10" y="40" width="1" height="1" fill="#000000"/><rect x="11" y="40" width="1" height="1" fill="#000000"/><rect x="12" y="40" width="1" height="1" fill="#000000"/><rect x="13" y="40" width="1" height="1" fill="#000000"/><rect x="31" y="40" width="1" height="1" fill="#000000"/><rect x="32" y="40" width="1" height="1" fill="#000000"/><rect x="33" y="40" width="1" height="1" fill="#000000"/><rect x="39" y="40" width="1" height="1" fill="#000000"/><rect x="40" y="40" width="1" height="1" fill="#000000"/><rect x="44" y="40" width="1" height="1" fill="#000000"/><rect x="45" y="40" width="1" height="1" fill="#000000"/><rect x="46" y="40" width="1" height="1" fill="#000000"/><rect x="11" y="41" width="1" height="1" fill="#000000"/><rect x="12" y="41" width="1" height="1" fill="#000000"/><rect x="13" y="41" width="1" height="1" fill="#000000"/><rect x="14" y="41" width="1" height="1" fill="#000000"/><rect x="30" y="41" width="1" height="1" fill="#000000"/><rect x="31" y="41" width="1" height="1" fill="#000000"/><rect x="32" y="41" width="1" height="1" fill="#000000"/><rect x="39" y="41" width="1" height="1" fill="#000000"/><rect x="40" y="41" width="1" height="1" fill="#000000"/><rect x="44" y="41" width="1" height="1" fill="#000000"/><rect x="45" y="41" width="1" height="1" fill="#000000"/><rect x="12" y="42" width="1" height="1" fill="#000000"/><rect x="13" y="42" width="1" height="1" fill="#000000"/><rect x="14" y="42" width="1" height="1" fill="#000000"/><rect x="15" y="42" width="1" height="1" fill="#000000"/><rect x="29" y="42" width="1" height="1" fill="#000000"/><rect x="30" y="42" width="1" height="1" fill="#000000"/><rect x="31" y="42" width="1" height="1" fill="#000000"/><rect x="32" y="42" width="1" height="1" fill="#000000"/><rect x="39" y="42" width="1" height="1" fill="#000000"/><rect x="40" y="42" width="1" height="1" fill="#000000"/><rect x="41" y="42" width="1" height="1" fill="#000000"/><rect x="42" y="42" width="1" height="1" fill="#000000"/><rect x="43" y="42" width="1" height="1" fill="#000000"/><rect x="44" y="42" width="1" height="1" fill="#000000"/><rect x="45" y="42" width="1" height="1" fill="#000000"/><rect x="13" y="43" width="1" height="1" fill="#000000"/><rect x="14" y="43" width="1" height="1" fill="#000000"/><rect x="15" y="43" width="1" height="1" fill="#000000"/><rect x="16" y="43" width="1" height="1" fill="#000000"/><rect x="29" y="43" width="1" height="1" fill="#000000"/><rect x="30" y="43" width="1" height="1" fill="#000000"/><rect x="31" y="43" width="1" height="1" fill="#000000"/><rect x="39" y="43" width="1" height="1" fill="#000000"/><rect x="40" y="43" width="1" height="1" fill="#000000"/><rect x="41" y="43" width="1" height="1" fill="#000000"/><rect x="42" y="43" width="1" height="1" fill="#000000"/><rect x="43" y="43" width="1" height="1" fill="#000000"/><rect x="44" y="43" width="1" height="1" fill="#000000"/><rect x="14" y="44" width="1" height="1" fill="#000000"/><rect x="15" y="44" width="1" height="1" fill="#000000"/><rect x="16" y="44" width="1" height="1" fill="#000000"/><rect x="17" y="44" width="1" height="1" fill="#000000"/><rect x="29" y="44" width="1" height="1" fill="#000000"/><rect x="30" y="44" width="1" height="1" fill="#000000"/><rect x="39" y="44" width="1" height="1" fill="#000000"/><rect x="40" y="44" width="1" height="1" fill="#000000"/><rect x="42" y="44" width="1" height="1" fill="#000000"/><rect x="43" y="44" width="1" height="1" fill="#000000"/><rect x="15" y="45" width="1" height="1" fill="#000000"/><rect x="16" y="45" width="1" height="1" fill="#000000"/><rect x="17" y="45" width="1" height="1" fill="#000000"/><rect x="18" y="45" width="1" height="1" fill="#000000"/><rect x="28" y="45" width="1" height="1" fill="#000000"/><rect x="29" y="45" width="1" height="1" fill="#000000"/><rect x="30" y="45" width="1" height="1" fill="#000000"/><rect x="16" y="46" width="1" height="1" fill="#000000"/><rect x="17" y="46" width="1" height="1" fill="#000000"/><rect x="18" y="46" width="1" height="1" fill="#000000"/><rect x="19" y="46" width="1" height="1" fill="#000000"/><rect x="27" y="46" width="1" height="1" fill="#000000"/><rect x="28" y="46" width="1" height="1" fill="#000000"/><rect x="29" y="46" width="1" height="1" fill="#000000"/><rect x="30" y="46" width="1" height="1" fill="#000000"/><rect x="17" y="47" width="1" height="1" fill="#000000"/><rect x="18" y="47" width="1" height="1" fill="#000000"/><rect x="19" y="47" width="1" height="1" fill="#000000"/><rect x="20" y="47" width="1" height="1" fill="#000000"/><rect x="27" y="47" width="1" height="1" fill="#000000"/><rect x="28" y="47" width="1" height="1" fill="#000000"/><rect x="29" y="47" width="1" height="1" fill="#000000"/><rect x="18" y="48" width="1" height="1" fill="#000000"/><rect x="19" y="48" width="1" height="1" fill="#000000"/><rect x="20" y="48" width="1" height="1" fill="#000000"/><rect x="21" y="48" width="1" height="1" fill="#000000"/><rect x="26" y="48" width="1" height="1" fill="#000000"/><rect x="27" y="48" width="1" height="1" fill="#000000"/><rect x="28" y="48" width="1" height="1" fill="#000000"/><rect x="19" y="49" width="1" height="1" fill="#000000"/><rect x="20" y="49" width="1" height="1" fill="#000000"/><rect x="21" y="49" width="1" height="1" fill="#000000"/><rect x="22" y="49" width="1" height="1" fill="#000000"/><rect x="25" y="49" width="1" height="1" fill="#000000"/><rect x="26" y="49" width="1" height="1" fill="#000000"/><rect x="27" y="49" width="1" height="1" fill="#000000"/><rect x="28" y="49" width="1" height="1" fill="#000000"/><rect x="20" y="50" width="1" height="1" fill="#000000"/><rect x="21" y="50" width="1" height="1" fill="#000000"/><rect x="22" y="50" width="1" height="1" fill="#000000"/><rect x="23" y="50" width="1" height="1" fill="#000000"/><rect x="24" y="50" width="1" height="1" fill="#000000"/><rect x="25" y="50" width="1" height="1" fill="#000000"/><rect x="26" y="50" width="1" height="1" fill="#000000"/><rect x="27" y="50" width="1" height="1" fill="#000000"/><rect x="21" y="51" width="1" height="1" fill="#000000"/><rect x="22" y="51" width="1" height="1" fill="#000000"/><rect x="23" y="51" width="1" height="1" fill="#000000"/><rect x="24" y="51" width="1" height="1" fill="#000000"/><rect x="25" y="51" width="1" height="1" fill="#000000"/><rect x="26" y="51" width="1" height="1" fill="#000000"/><rect x="23" y="52" width="1" height="1" fill="#000000"/><rect x="24" y="52" width="1" height="1" fill="#000000"/><rect x="25" y="52" width="1" height="1" fill="#000000"/></svg>