<?xml version="1.0" encoding="UTF-8"?>
<svg xmlns="http://www.w3.org/2000/svg" width="64" height="64" viewBox="0 0 64 64" shape-rendering="crispEdges"><rect x="27" y="16" width="1" height="1" fill="#000000"/><rect x="28" y="16" width="1" height="1" fill="#000000"/><rect x="29" y="16" width="1" height="1" fill="#000000"/><rect x="30" y="16" width="1" height="1" fill="#000000"/><rect x="31" y="16" width="1" height="1" fill="#000000"/><rect x="32" y="16" width="1" height="1" fill="#000000"/><rect x="33" y="16" width="1" height="1" fill="#000000"/><rect x="34" y="16" width="1" height="1" fill="#000000"/><rect x="35" y="16" width="1" height="1" fill="#000000"/><rect x="24" y="17" width="1" height="1" fill="#000000"/><rect x="25" y="17" width="1" height="1" fill="#000000"/><rect x="26" y="17" width="1" height="1" fill="#000000"/><rect x="27" y="17" width="1" height="1" fill="#000000"/><rect x="28" y="17" width="1" height="1" fill="#000000"/><rect x="29" y="17" width="1" height="1" fill="#000000"/><rect x="30" y="17" width="1" height="1" fill="#000000"/><rect x="31" y="17" width="1" height="1" fill="#000000"/><rect x="32" y="17" width="1" height="1" fill="#000000"/><rect x="33" y="17" width="1" height="1" fill="#000000"/><rect x="34" y="17" width="1" height="1" fill="#000000"/><rect x="35" y="17" width="1" height="1" fill="#000000"/><rect x="36" y="17" width="1" height="1" fill="#000000"/><rect x="37" y="17" width="1" height="1" fill="#000000"/><rect x="38" y="17" width="1" height="1" fill="#000000"/><rect x="22" y="18" width="1" height="1" fill="#000000"/><rect x="23" y="18" width="1" height="1" fill="#000000"/><rect x="24" y="18" width="1" height="1" fill="#000000"/><rect x="25" y="18" width="1" height="1" fill="#000000"/><rect x="26" y="18" width="1" height="1" fill="#000000"/><rect x="36" y="18" width="1" height="1" fill="#000000"/><rect x="37" y="18" width="1" height="1" fill="#000000"/><rect x="38" y="18" width="1" height="1" fill="#000000"/><rect x="39" y="18" width="1" height="1" fill="#000000"/><rect x="40" y="18" width="1" height="1" fill="#000000"/><rect x="20" y="19" width="1" height="1" fill="#000000"/><rect x="21" y="19" width="1" height="1" fill="#000000"/><rect x="22" y="19" width="1" height="1" fill="#000000"/><rect x="23" y="19" width="1" height="1" fill="#000000"/><rect x="24" y="19" width="1" height="1" fill="#000000"/><rect x="38" y="19" width="1" height="1" fill="#000000"/><rect x="39" y="19" width="1" height="1" fill="#000000"/><rect x="40" y="19" width="1" height="1" fill="#000000"/><rect x="41" y="19" width="1" height="1" fill="#000000"/><rect x="42" y="19" width="1" height="1" fill="#000000"/><rect x="18" y="20" width="1" height="1" fill="#000000"/><rect x="19" y="20" width="1" height="1" fill="#000000"/><rect x="20" y="20" width="1" height="1" fill="#000000"/><rect x="21" y="20" width="1" height="1" fill="#000000"/><rect x="22" y="20" width="1" height="1" fill="#000000"/><rect x="40" y="20" width="1" height="1" fill="#000000"/><rect x="41" y="20" width="1" height="1" fill="#000000"/><rect x="42" y="20" width="1" height="1" fill="#000000"/><rect x="43" y="20" width="1" height="1" fill="#000000"/><rect x="44" y="20" width="1" height="1" fill="#000000"/><rect x="17" y="21" width="1" height="1" fill="#000000"/><rect x="18" y="21" width="1" height="1" fill="#000000"/><rect x="19" y="21" width="1" height="1" fill="#000000"/><rect x="20" y="21" width="1" height="1" fill="#000000"/><rect x="42" y="21" width="1" height="1" fill="#000000"/><rect x="43" y="21" width="1" height="1" fill="#000000"/><rect x="44" y="21" width="1" height="1" fill="#000000"/><rect x="45" y="21" width="1" height="1" fill="#000000"/><rect x="16" y="22" width="1" height="1" fill="#000000"/><rect x="17" y="22" width="1" height="1" fill="#000000"/><rect x="18" y="22" width="1" height="1" fill="#000000"/><rect x="44" y="22" width="1" height="1" fill="#000000"/><rect x="45" y="22" width="1" height="1" fill="#000000"/><rect x="46" y="22" width="1" height="1" fill="#000000"/><rect x="15" y="23" width="1" height="1" fill="#000000"/><rect x="16" y="23" width="1" height="1" fill="#000000"/><rect x="17" y="23" width="1" height="1" fill="#000000"/><rect x="45" y="23" width="1" height="1" fill="#000000"/><rect x="46" y="23" width="1" height="1" fill="#000000"/><rect x="47" y="23" width="1" height="1" fill="#000000"/><rect x="14" y="24" width="1" height="1" fill="#000000"/><rect x="15" y="24" width="1" height="1" fill="#000000"/><rect x="16" y="24" width="1" height="1" fill="#000000"/><rect x="46" y="24" width="1" height="1" fill="#000000"/><rect x="47" y="24" width="1" height="1" fill="#000000"/><rect x="48" y="24" width="1" height="1" fill="#000000"/><rect x="13" y="25" width="1" height="1" fill="#000000"/><rect x="14" y="25" width="1" height="1" fill="#000000"/><rect x="15" y="25" width="1" height="1" fill="#000000"/><rect x="47" y="25" width="1" height="1" fill="#000000"/><rect x="48" y="25" width="1" height="1" fill="#000000"/><rect x="49" y="25" width="1" height="1" fill="#000000"/><rect x="13" y="26" width="1" height="1" fill="#000000"/><rect x="14" y="26" width="1" height="1" fill="#000000"/><rect x="48" y="26" width="1" height="1" fill="#000000"/><rect x="49" y="26" width="1" height="1" fill="#000000"/><rect x="13" y="27" width="1" height="1" fill="#000000"/><rect x="14" y="27" width="1" height="1" fill="#000000"/><rect x="48" y="27" width="1" height="1" fill="#000000"/><rect x="49" y="27" width="1" height="1" fill="#000000"/><rect x="12" y="28" width="1" height="1" fill="#000000"/><rect x="13" y="28" width="1" height="1" fill="#000000"/><rect x="49" y="28" width="1" height="1" fill="#000000"/><rect x="50" y="28" width="1" height="1" fill="#000000"/><rect x="12" y="29" width="1" height="1" fill="#000000"/><rect x="13" y="29" width="1" height="1" fill="#000000"/><rect x="49" y="29" width="1" height="1" fill="#000000"/><rect x="50" y="29" width="1" height="1" fill="#000000"/><rect x="12" y="30" width="1" height="1" fill="#000000"/><rect x="13" y="30" width="1" height="1" fill="#000000"/><rect x="49" y="30" width="1" height="1" fill="#000000"/><rect x="50" y="30" width="1" height="1" fill="#000000"/><rect x="12" y="31" width="1" height="1" fill="#000000"/><rect x="13" y="31" width="1" height="1" fill="#000000"/><rect x="49" y="31" width="1" height="1" fill="#000000"/><rect x="50" y="31" width="1" height="1" fill="#000000"/><rect x="12" y="32" width="1" height="1" fill="#000000"/><rect x="13" y="32" width="1" height="1" fill="#000000"/><rect x="49" y="32" width="1" height="1" fill="#000000"/><rect x="50" y="32" width="1" height="1" fill="#000000"/><rect x="12" y="33" width="1" height="1" fill="#000000"/><rect x="13" y="33" width="1" height="1" fill="#000000"/><rect x="49" y="33" width="1" height="1" fill="#000000"/><rect x="50" y="33" width="1" height="1" fill="#000000"/><rect x="12" y="34" width="1" height="1" fill="#000000"/><rect x="13" y="34" width="1" height="1" fill="#000000"/><rect x="49" y="34" width="1" height="1" fill="#000000"/><rect x="50" y="34" width="1" height="1" fill="#000000"/><rect x="12" y="35" width="1" height="1" fill="#000000"/><rect x="13" y="35" width="1" height="1" fill="#000000"/><rect x="18" y="35" width="1" height="1" fill="#000000"/><rect x="19" y="35" width="1" height="1" fill="#000000"/><rect x="20" y="35" width="1" height="1" fill="#000000"/><rect x="21" y="35" width="1" height="1" fill="#000000"/><rect x="22" y="35" width="1" height="1" fill="#000000"/><rect x="23" y="35" width="1" height="1" fill="#000000"/><rect x="24" y="35" width="1" height="1" fill="#000000"/><rect x="25" y="35" width="1" height="1" fill="#000000"/><rect x="26" y="35" width="1" height="1" fill="#000000"/><rect x="27" y="35" width="1" height="1" fill="#000000"/><rect x="28" y="35" width="1" height="1" fill="#000000"/><rect x="29" y="35" width="1" height="1" fill="#000000"/><rect x="33" y="35" width="1" height="1" fill="#000000"/><rect x="34" y="35" width="1" height="1" fill="#000000"/><rect x="35" y="35" width="1" height="1" fill="#000000"/><rect x="36" y="35" width="1" height="1" fill="#000000"/><rect x="37" y="35" width="1" height="1" fill="#000000"/><rect x="38" y="35" width="1" height="1" fill="#000000"/><rect x="39" y="35" width="1" height="1" fill="#000000"/><rect x="40" y="35" width="1" height="1" fill="#000000"/><rect x="41" y="35" width="1" height="1" fill="#000000"/><rect x="42" y="35" width="1" height="1" fill="#000000"/><rect x="43" y="35" width="1" height="1" fill="#000000"/><rect x="44" y="35" width="1" height="1" fill="#000000"/><rect x="49" y="35" width="1" height="1" fill="#000000"/><rect x="50" y="35" width="1" height="1" fill="#000000"/><rect x="12" y="36" width="1" height="1" fill="#000000"/><rect x="13" y="36" width="1" height="1" fill="#000000"/><rect x="19" y="36" width="1" height="1" fill="#000000"/><rect x="20" y="36" width="1" height="1" fill="#000000"/><rect x="21" y="36" width="1" height="1" fill="#000000"/><rect x="22" y="36" width="1" height="1" fill="#000000"/><rect x="23" y="36" width="1" height="1" fill="#000000"/><rect x="24" y="36" width="1" height="1" fill="#000000"/><rect x="25" y="36" width="1" height="1" fill="#000000"/><rect x="26" y="36" width="1" height="1" fill="#000000"/><rect x="27" y="36" width="1" height="1" fill="#000000"/><rect x="28" y="36" width="1" height="1" fill="#000000"/><rect x="29" y="36" width="1" height="1" fill="#000000"/><rect x="33" y="36" width="1" height="1" fill="#000000"/><rect x="34" y="36" width="1" height="1" fill="#000000"/><rect x="35" y="36" width="1" height="1" fill="#000000"/><rect x="36" y="36" width="1" height="1" fill="#000000"/><rect x="37" y="36" width="1" height="1" fill="#000000"/><rect x="38" y="36" width="1" height="1" fill="#000000"/><rect x="39" y="36" width="1" height="1" fill="#000000"/><rect x="40" y="36" width="1" height="1" fill="#000000"/><rect x="41" y="36" width="1" height="1" fill="#000000"/><rect x="42" y="36" width="1" height="1" fill="#000000"/><rect x="43" y="36" width="1" height="1" fill="#000000"/><rect x="49" y="36" width="1" height="1" fill="#000000"/><rect x="50" y="36" width="1" height="1" fill="#000000"/><rect x="12" y="37" width="1" height="1" fill="#000000"/><rect x="13" y="37" width="1" height="1" fill="#000000"/><rect x="19" y="37" width="1" height="1" fill="#000000"/><rect x="20" y="37" width="1" height="1" fill="#000000"/><rect x="29" y="37" width="1" height="1" fill="#000000"/><rect x="33" y="37" width="1" height="1" fill="#000000"/><rect x="42" y="37" width="1" height="1" fill="#000000"/><rect x="43" y="37" width="1" height="1" fill="#000000"/><rect x="49" y="37" width="1" height="1" fill="#000000"/><rect x="50" y="37" width="1" height="1" fill="#000000"/><rect x="12" y="38" width="1" height="1" fill="#000000"/><rect x="13" y="38" width="1" height="1" fill="#000000"/><rect x="20" y="38" width="1" height="1" fill="#000000"/><rect x="21" y="38" width="1" height="1" fill="#000000"/><rect x="29" y="38" width="1" height="1" fill="#000000"/><rect x="33" y="38" width="1" height="1" fill="#000000"/><rect x="41" y="38" width="1" height="1" fill="#000000"/><rect x="42" y="38" width="1" height="1" fill="#000000"/><rect x="49" y="38" width="1" height="1" fill="#000000"/><rect x="50" y="38" width="1" height="1" fill="#000000"/><rect x="12" y="39" width="1" height="1" fill="#000000"/><rect x="13" y="39" width="1" height="1" fill="#000000"/><rect x="21" y="39" width="1" height="1" fill="#000000"/><rect x="22" y="39" width="1" height="1" fill="#000000"/><rect x="29" y="39" width="1" height="1" fill="#000000"/><rect x="33" y="39" width="1" height="1" fill="#000000"/><rect x="40" y="39" width="1" height="1" fill="#000000"/><rect x="41" y="39" width="1" height="1" fill="#000000"/><rect x="49" y="39" width="1" height="1" fill="#000000"/><rect x="50" y="39" width="1" height="1" fill="#000000"/><rect x="13" y="40" width="1" height="1" fill="#000000"/><rect x="14" y="40" width="1" height="1" fill="#000000"/><rect x="22" y="40" width="1" height="1" fill="#000000"/><rect x="23" y="40" width="1" height="1" fill="#000000"/><rect x="29" y="40" width="1" height="1" fill="#000000"/><rect x="33" y="40" width="1" height="1" fill="#000000"/><rect x="39" y="40" width="1" height="1" fill="#000000"/><rect x="40" y="40" width="1" height="1" fill="#000000"/><rect x="48" y="40" width="1" height="1" fill="#000000"/><rect x="49" y="40" width="1" height="1" fill="#000000"/><rect x="13" y="41" width="1" height="1" fill="#000000"/><rect x="14" y="41" width="1" height="1" fill="#000000"/><rect x="23" y="41" width="1" height="1" fill="#000000"/><rect x="24" y="41" width="1" height="1" fill="#000000"/><rect x="29" y="41" width="1" height="1" fill="#000000"/><rect x="33" y="41" width="1" height="1" fill="#000000"/><rect x="38" y="41" width="1" height="1" fill="#000000"/><rect x="39" y="41" width="1" height="1" fill="#000000"/><rect x="48" y="41" width="1" height="1" fill="#000000"/><rect x="49" y="41" width="1" height="1" fill="#000000"/><rect x="13" y="42" width="1" height="1" fill="#000000"/><rect x="14" y="42" width="1" height="1" fill="#000000"/><rect x="24" y="42" width="1" height="1" fill="#000000"/><rect x="25" y="42" width="1" height="1" fill="#000000"/><rect x="29" y="42" width="1" height="1" fill="#000000"/><rect x="33" y="42" width="1" height="1" fill="#000000"/><rect x="37" y="42" width="1" height="1" fill="#000000"/><rect x="38" y="42" width="1" height="1" fill="#000000"/><rect x="48" y="42" width="1" height="1" fill="#000000"/><rect x="49" y="42" width="1" height="1" fill="#000000"/><rect x="13" y="43" width="1" height="1" fill="#000000"/><rect x="14" y="43" width="1" height="1" fill="#000000"/><rect x="24" y="43" width="1" height="1" fill="#000000"/><rect x="25" y="43" width="1" height="1" fill="#000000"/><rect x="29" y="43" width="1" height="1" fill="#000000"/><rect x="33" y="43" width="1" height="1" fill="#000000"/><rect x="37" y="43" width="1" height="1" fill="#000000"/><rect x="38" y="43" width="1" height="1" fill="#000000"/><rect x="48" y="43" width="1" height="1" fill="#000000"/><rect x="49" y="43" width="1" height="1" fill="#000000"/><rect x="13" y="44" width="1" height="1" fill="#000000"/><rect x="14" y="44" width="1" height="1" fill="#000000"/><rect x="24" y="44" width="1" height="1" fill="#000000"/><rect x="25" y="44" width="1" height="1" fill="#000000"/><rect x="29" y="44" width="1" height="1" fill="#000000"/><rect x="33" y="44" width="1" height="1" fill="#000000"/><rect x="37" y="44" width="1" height="1" fill="#000000"/><rect x="38" y="44" width="1" height="1" fill="#000000"/><rect x="48" y="44" width="1" height="1" fill="#000000"/><rect x="49" y="44" width="1" height="1" fill="#000000"/><rect x="13" y="45" width="1" height="1" fill="#000000"/><rect x="14" y="45" width="1" height="1" fill="#000000"/><rect x="24" y="45" width="1" height="1" fill="#000000"/><rect x="25" y="45" width="1" height="1" fill="#000000"/><rect x="28" y="45" width="1" height="1" fill="#000000"/><rect x="29" y="45" width="1" height="1" fill="#000000"/><rect x="33" y="45" width="1" height="1" fill="#000000"/><rect x="34" y="45" width="1" height="1" fill="#000000"/><rect x="37" y="45" width="1" height="1" fill="#000000"/><rect x="38" y="45" width="1" height="1" fill="#000000"/><rect x="48" y="45" width="1" height="1" fill="#000000"/><rect x="49" y="45" width="1" height="1" fill="#000000"/><rect x="13" y="46" width="1" height="1" fill="#000000"/><rect x="14" y="46" width="1" height="1" fill="#000000"/><rect x="24" y="46" width="1" height="1" fill="#000000"/><rect x="25" y="46" width="1" height="1" fill="#000000"/><rect x="28" y="46" width="1" height="1" fill="#000000"/><rect x="34" y="46" width="1" height="1" fill="#000000"/><rect x="37" y="46" width="1" height="1" fill="#000000"/><rect x="38" y="46" width="1" height="1" fill="#000000"/><rect x="48" y="46" width="1" height="1" fill="#000000"/><rect x="49" y="46" width="1" height="1" fill="#000000"/><rect x="13" y="47" width="1" height="1" fill="#000000"/><rect x="14" y="47" width="1" height="1" fill="#000000"/><rect x="24" y="47" width="1" height="1" fill="#000000"/><rect x="25" y="47" width="1" height="1" fill="#000000"/><rect x="28" y="47" width="1" height="1" fill="#000000"/><rect x="29" y="47" width="1" height="1" fill="#000000"/><rect x="33" y="47" width="1" height="1" fill="#000000"/><rect x="34" y="47" width="1" height="1" fill="#000000"/><rect x="37" y="47" width="1" height="1" fill="#000000"/><rect x="38" y="47" width="1" height="1" fill="#000000"/><rect x="48" y="47" width="1" height="1" fill="#000000"/><rect x="49" y="47" width="1" height="1" fill="#000000"/><rect x="12" y="48" width="1" height="1" fill="#000000"/><rect x="13" y="48" width="1" height="1" fill="#000000"/><rect x="24" y="48" width="1" height="1" fill="#000000"/><rect x="25" y="48" width="1" height="1" fill="#000000"/><rect x="29" y="48" width="1" height="1" fill="#000000"/><rect x="30" y="48" width="1" height="1" fill="#000000"/><rect x="32" y="48" width="1" height="1" fill="#000000"/><rect x="33" y="48" width="1" height="1" fill="#000000"/><rect x="37" y="48" width="1" height="1" fill="#000000"/><rect x="38" y="48" width="1" height="1" fill="#000000"/><rect x="49" y="48" width="1" height="1" fill="#000000"/><rect x="50" y="48" width="1" height="1" fill="#000000"/><rect x="12" y="49" width="1" height="1" fill="#000000"/><rect x="13" y="49" width="1" height="1" fill="#000000"/><rect x="24" y="49" width="1" height="1" fill="#000000"/><rect x="25" y="49" width="1" height="1" fill="#000000"/><rect x="30" y="49" width="1" height="1" fill="#000000"/><rect x="31" y="49" width="1" height="1" fill="#000000"/><rect x="32" y="49" width="1" height="1" fill="#000000"/><rect x="37" y="49" width="1" height="1" fill="#000000"/><rect x="38" y="49" width="1" height="1" fill="#000000"/><rect x="49" y="49" width="1" height="1" fill="#000000"/><rect x="50" y="49" width="1" height="1" fill="#000000"/><rect x="12" y="50" width="1" height="1" fill="#000000"/><rect x="13" y="50" width="1" height="1" fill="#000000"/><rect x="14" y="50" width="1" height="1" fill="#000000"/><rect x="24" y="50" width="1" height="1" fill="#000000"/><rect x="25" y="50" width="1" height="1" fill="#000000"/><rect x="31" y="50" width="1" height="1" fill="#000000"/><rect x="37" y="50" width="1" height="1" fill="#000000"/><rect x="38" y="50" width="1" height="1" fill="#000000"/><rect x="48" y="50" width="1" height="1" fill="#000000"/><rect x="49" y="50" width="1" height="1" fill="#000000"/><rect x="50" y="50" width="1" height="1" fill="#000000"/><rect x="13" y="51" width="1" height="1" fill="#000000"/><rect x="14" y="51" width="1" height="1" fill="#000000"/><rect x="15" y="51" width="1" height="1" fill="#000000"/><rect x="16" y="51" width="1" height="1" fill="#000000"/><rect x="24" y="51" width="1" height="1" fill="#000000"/><rect x="25" y="51" width="1" height="1" fill="#000000"/><rect x="37" y="51" width="1" height="1" fill="#000000"/><rect x="38" y="51" width="1" height="1" fill="#000000"/><rect x="46" y="51" width="1" height="1" fill="#000000"/><rect x="47" y="51" width="1" height="1" fill="#000000"/><rect x="48" y="51" width="1" height="1" fill="#000000"/><rect x="49" y="51" width="1" height="1" fill="#000000"/><rect x="15" y="52" width="1" height="1" fill="#000000"/><rect x="16" y="52" width="1" height="1" fill="#000000"/><rect x="17" y="52" width="1" height="1" fill="#000000"/><rect x="18" y="52" width="1" height="1" fill="#000000"/><rect x="24" y="52" width="1" height="1" fill="#000000"/><rect x="25" y="52" width="1" height="1" fill="#000000"/><rect x="37" y="52" width="1" height="1" fill="#000000"/><rect x="38" y="52" width="1" height="1" fill="#000000"/><rect x="44" y="52" width="1" height="1" fill="#000000"/><rect x="45" y="52" width="1" height="1" fill="#000000"/><rect x="46" y="52" width="1" height="1" fill="#000000"/><rect x="47" y="52" width="1" height="1" fill="#000000"/><rect x="17" y="53" width="1" height="1" fill="#000000"/><rect x="18" y="53" width="1" height="1" fill="#000000"/><rect x="19" y="53" width="1" height="1" fill="#000000"/><rect x="20" y="53" width="1" height="1" fill="#000000"/><rect x="24" y="53" width="1" height="1" fill="#000000"/><rect x="25" y="53" width="1" height="1" fill="#000000"/><rect x="37" y="53" width="1" height="1" fill="#000000"/><rect x="38" y="53" width="1" height="1" fill="#000000"/><rect x="42" y="53" width="1" height="1" fill="#000000"/><rect x="43" y="53" width="1" height="1" fill="#000000"/><rect x="44" y="53" width="1" height="1" fill="#000000"/><rect x="45" y="53" width="1" height="1" fill="#000000"/><rect x="19" y="54" width="1" height="1" fill="#000000"/><rect x="20" y="54" width="1" height="1" fill="#000000"/><rect x="21" y="54" width="1" height="1" fill="#000000"/><rect x="24" y="54" width="1" height="1" fill="#000000"/><rect x="25" y="54" width="1" height="1" fill="#000000"/><rect x="37" y="54" width="1" height="1" fill="#000000"/><rect x="38" y="54" width="1" height="1" fill="#000000"/><rect x="41" y="54" width="1" height="1" fill="#000000"/><rect x="42" y="54" width="1" height="1" fill="#000000"/><rect x="43" y="54" width="1" height="1" fill="#000000"/><rect x="21" y="55" width="1" height="1" fill="#000000"/><rect x="22" y="55" width="1" height="1" fill="#000000"/><rect x="23" y="55" width="1" height="1" fill="#000000"/><rect x="24" y="55" width="1" height="1" fill="#000000"/><rect x="25" y="55" width="1" height="1" fill="#000000"/><rect x="37" y="55" width="1" height="1" fill="#000000"/><rect x="38" y="55" width="1" height="1" fill="#000000"/><rect x="39" y="55" width="1" height="1" fill="#000000"/><rect x="40" y="55" width="1" height="1" fill="#000000"/><rect x="41" y="55" width="1" height="1" fill="#000000"/><rect x="22" y="56" width="1" height="1" fill="#000000"/><rect x="23" y="56" width="1" height="1" fill="#000000"/><rect x="24" y="56" width="1" height="1" fill="#000000"/><rect x="38" y="56" width="1" height="1" fill="#000000"/><rect x="39" y="56" width="1" height="1" fill="#000000"/><rect x="40" y="56" width="1" height="1" fill="#000000"/></svg>