<?xml version="1.0" encoding="UTF-8"?>
<svg xmlns="http://www.w3.org/2000/svg" width="64" height="64" viewBox="0 0 64 64" shape-rendering="crispEdges"><rect x="16" y="21" width="1" height="1" fill="#000000"/><rect x="17" y="21" width="1" height="1" fill="#000000"/><rect x="18" y="21" width="1" height="1" fill="#000000"/><rect x="19" y="21" width="1" height="1" fill="#000000"/><rect x="20" y="21" width="1" height="1" fill="#000000"/><rect x="21" y="21" width="1" height="1" fill="#000000"/><rect x="22" y="21" width="1" height="1" fill="#000000"/><rect x="23" y="21" width="1" height="1" fill="#000000"/><rect x="24" y="21" width="1" height="1" fill="#000000"/><rect x="25" y="21" width="1" height="1" fill="#000000"/><rect x="26" y="21" width="1" height="1" fill="#000000"/><rect x="27" y="21" width="1" height="1" fill="#000000"/><rect x="28" y="21" width="1" height="1" fill="#000000"/><rect x="29" y="21" width="1" height="1" fill="#000000"/><rect x="30" y="21" width="1" height="1" fill="#000000"/><rect x="31" y="21" width="1" height="1" fill="#000000"/><rect x="32" y="21" width="1" height="1" fill="#000000"/><rect x="40" y="21" width="1" height="1" fill="#000000"/><rect x="41" y="21" width="1" height="1" fill="#000000"/><rect x="42" y="21" width="1" height="1" fill="#000000"/><rect x="43" y="21" width="1" height="1" fill="#000000"/><rect x="44" y="21" width="1" height="1" fill="#000000"/><rect x="45" y="21" width="1" height="1" fill="#000000"/><rect x="46" y="21" width="1" height="1" fill="#000000"/><rect x="47" y="21" width="1" height="1" fill="#000000"/><rect x="48" y="21" width="1" height="1" fill="#000000"/><rect x="49" y="21" width="1" height="1" fill="#000000"/><rect x="50" y="21" width="1" height="1" fill="#000000"/><rect x="51" y="21" width="1" height="1" fill="#000000"/><rect x="52" y="21" width="1" height="1" fill="#000000"/><rect x="14" y="22" width="1" height="1" fill="#000000"/><rect x="15" y="22" width="1" height="1" fill="#000000"/><rect x="16" y="22" width="1" height="1" fill="#000000"/><rect x="17" y="22" width="1" height="1" fill="#000000"/><rect x="18" y="22" width="1" height="1" fill="#000000"/><rect x="19" y="22" width="1" height="1" fill="#000000"/><rect x="20" y="22" width="1" height="1" fill="#000000"/><rect x="21" y="22" width="1" height="1" fill="#000000"/><rect x="22" y="22" width="1" height="1" fill="#000000"/><rect x="23" y="22" width="1" height="1" fill="#000000"/><rect x="24" y="22" width="1" height="1" fill="#000000"/><rect x="25" y="22" width="1" height="1" fill="#000000"/><rect x="26" y="22" width="1" height="1" fill="#000000"/><rect x="27" y="22" width="1" height="1" fill="#000000"/><rect x="28" y="22" width="1" height="1" fill="#000000"/><rect x="29" y="22" width="1" height="1" fill="#000000"/><rect x="30" y="22" width="1" height="1" fill="#000000"/><rect x="31" y="22" width="1" height="1" fill="#000000"/><rect x="32" y="22" width="1" height="1" fill="#000000"/><rect x="33" y="22" width="1" height="1" fill="#000000"/><rect x="34" y="22" width="1" height="1" fill="#000000"/><rect x="35" y="22" width="1" height="1" fill="#000000"/><rect x="36" y="22" width="1" height="1" fill="#000000"/><rect x="37" y="22" width="1" height="1" fill="#000000"/><rect x="38" y="22" width="1" height="1" fill="#000000"/><rect x="39" y="22" width="1" height="1" fill="#000000"/><rect x="40" y="22" width="1" height="1" fill="#000000"/><rect x="41" y="22" width="1" height="1" fill="#000000"/><rect x="42" y="22" width="1" height="1" fill="#000000"/><rect x="43" y="22" width="1" height="1" fill="#000000"/><rect x="44" y="22" width="1" height="1" fill="#000000"/><rect x="45" y="22" width="1" height="1" fill="#000000"/><rect x="46" y="22" width="1" height="1" fill="#000000"/><rect x="47" y="22" width="1" height="1" fill="#000000"/><rect x="48" y="22" width="1" height="1" fill="#000000"/><rect x="49" y="22" width="1" height="1" fill="#000000"/><rect x="50" y="22" width="1" height="1" fill="#000000"/><rect x="51" y="22" width="1" height="1" fill="#000000"/><rect x="52" y="22" width="1" height="1" fill="#000000"/><rect x="53" y="22" width="1" height="1" fill="#000000"/><rect x="54" y="22" width="1" height="1" fill="#000000"/><rect x="11" y="23" width="1" height="1" fill="#000000"/><rect x="12" y="23" width="1" height="1" fill="#000000"/><rect x="13" y="23" width="1" height="1" fill="#000000"/><rect x="14" y="23" width="1" height="1" fill="#000000"/><rect x="15" y="23" width="1" height="1" fill="#000000"/><rect x="16" y="23" width="1" height="1" fill="#000000"/><rect x="17" y="23" width="1" height="1" fill="#000000"/><rect x="31" y="23" width="1" height="1" fill="#000000"/><rect x="32" y="23" width="1" height="1" fill="#000000"/><rect x="33" y="23" width="1" height="1" fill="#000000"/><rect x="34" y="23" width="1" height="1" fill="#000000"/><rect x="35" y="23" width="1" height="1" fill="#000000"/><rect x="36" y="23" width="1" height="1" fill="#000000"/><rect x="37" y="23" width="1" height="1" fill="#000000"/><rect x="38" y="23" width="1" height="1" fill="#000000"/><rect x="39" y="23" width="1" height="1" fill="#000000"/><rect x="40" y="23" width="1" height="1" fill="#000000"/><rect x="41" y="23" width="1" height="1" fill="#000000"/><rect x="42" y="23" width="1" height="1" fill="#000000"/><rect x="51" y="23" width="1" height="1" fill="#000000"/><rect x="52" y="23" width="1" height="1" fill="#000000"/><rect x="53" y="23" width="1" height="1" fill="#000000"/><rect x="54" y="23" width="1" height="1" fill="#000000"/><rect x="10" y="24" width="1" height="1" fill="#000000"/><rect x="11" y="24" width="1" height="1" fill="#000000"/><rect x="12" y="24" width="1" height="1" fill="#000000"/><rect x="13" y="24" width="1" height="1" fill="#000000"/><rect x="36" y="24" width="1" height="1" fill="#000000"/><rect x="37" y="24" width="1" height="1" fill="#000000"/><rect x="38" y="24" width="1" height="1" fill="#000000"/><rect x="39" y="24" width="1" height="1" fill="#000000"/><rect x="40" y="24" width="1" height="1" fill="#000000"/><rect x="52" y="24" width="1" height="1" fill="#000000"/><rect x="53" y="24" width="1" height="1" fill="#000000"/><rect x="54" y="24" width="1" height="1" fill="#000000"/><rect x="55" y="24" width="1" height="1" fill="#000000"/><rect x="9" y="25" width="1" height="1" fill="#000000"/><rect x="10" y="25" width="1" height="1" fill="#000000"/><rect x="11" y="25" width="1" height="1" fill="#000000"/><rect x="36" y="25" width="1" height="1" fill="#000000"/><rect x="37" y="25" width="1" height="1" fill="#000000"/><rect x="38" y="25" width="1" height="1" fill="#000000"/><rect x="54" y="25" width="1" height="1" fill="#000000"/><rect x="55" y="25" width="1" height="1" fill="#000000"/><rect x="8" y="26" width="1" height="1" fill="#000000"/><rect x="9" y="26" width="1" height="1" fill="#000000"/><rect x="10" y="26" width="1" height="1" fill="#000000"/><rect x="35" y="26" width="1" height="1" fill="#000000"/><rect x="36" y="26" width="1" height="1" fill="#000000"/><rect x="37" y="26" width="1" height="1" fill="#000000"/><rect x="54" y="26" width="1" height="1" fill="#000000"/><rect x="55" y="26" width="1" height="1" fill="#000000"/><rect x="56" y="26" width="1" height="1" fill="#000000"/><rect x="7" y="27" width="1" height="1" fill="#000000"/><rect x="8" y="27" width="1" height="1" fill="#000000"/><rect x="35" y="27" width="1" height="1" fill="#000000"/><rect x="36" y="27" width="1" height="1" fill="#000000"/><rect x="37" y="27" width="1" height="1" fill="#000000"/><rect x="55" y="27" width="1" height="1" fill="#000000"/><rect x="56" y="27" width="1" height="1" fill="#000000"/><rect x="6" y="28" width="1" height="1" fill="#000000"/><rect x="7" y="28" width="1" height="1" fill="#000000"/><rect x="8" y="28" width="1" height="1" fill="#000000"/><rect x="34" y="28" width="1" height="1" fill="#000000"/><rect x="35" y="28" width="1" height="1" fill="#000000"/><rect x="36" y="28" width="1" height="1" fill="#000000"/><rect x="37" y="28" width="1" height="1" fill="#000000"/><rect x="55" y="28" width="1" height="1" fill="#000000"/><rect x="56" y="28" width="1" height="1" fill="#000000"/><rect x="6" y="29" width="1" height="1" fill="#000000"/><rect x="7" y="29" width="1" height="1" fill="#000000"/><rect x="34" y="29" width="1" height="1" fill="#000000"/><rect x="35" y="29" width="1" height="1" fill="#000000"/><rect x="36" y="29" width="1" height="1" fill="#000000"/><rect x="56" y="29" width="1" height="1" fill="#000000"/><rect x="5" y="30" width="1" height="1" fill="#000000"/><rect x="6" y="30" width="1" height="1" fill="#000000"/><rect x="7" y="30" width="1" height="1" fill="#000000"/><rect x="34" y="30" width="1" height="1" fill="#000000"/><rect x="35" y="30" width="1" height="1" fill="#000000"/><rect x="36" y="30" width="1" height="1" fill="#000000"/><rect x="56" y="30" width="1" height="1" fill="#000000"/><rect x="4" y="31" width="1" height="1" fill="#000000"/><rect x="5" y="31" width="1" height="1" fill="#000000"/><rect x="6" y="31" width="1" height="1" fill="#000000"/><rect x="7" y="31" width="1" height="1" fill="#000000"/><rect x="34" y="31" width="1" height="1" fill="#000000"/><rect x="35" y="31" width="1" height="1" fill="#000000"/><rect x="55" y="31" width="1" height="1" fill="#000000"/><rect x="56" y="31" width="1" height="1" fill="#000000"/><rect x="4" y="32" width="1" height="1" fill="#000000"/><rect x="5" y="32" width="1" height="1" fill="#000000"/><rect x="6" y="32" width="1" height="1" fill="#000000"/><rect x="34" y="32" width="1" height="1" fill="#000000"/><rect x="35" y="32" width="1" height="1" fill="#000000"/><rect x="36" y="32" width="1" height="1" fill="#000000"/><rect x="55" y="32" width="1" height="1" fill="#000000"/><rect x="56" y="32" width="1" height="1" fill="#000000"/><rect x="57" y="32" width="1" height="1" fill="#000000"/><rect x="4" y="33" width="1" height="1" fill="#000000"/><rect x="5" y="33" width="1" height="1" fill="#000000"/><rect x="35" y="33" width="1" height="1" fill="#000000"/><rect x="36" y="33" width="1" height="1" fill="#000000"/><rect x="54" y="33" width="1" height="1" fill="#000000"/><rect x="55" y="33" width="1" height="1" fill="#000000"/><rect x="3" y="34" width="1" height="1" fill="#000000"/><rect x="4" y="34" width="1" height="1" fill="#000000"/><rect x="5" y="34" width="1" height="1" fill="#000000"/><rect x="36" y="34" width="1" height="1" fill="#000000"/><rect x="37" y="34" width="1" height="1" fill="#000000"/><rect x="53" y="34" width="1" height="1" fill="#000000"/><rect x="54" y="34" width="1" height="1" fill="#000000"/><rect x="3" y="35" width="1" height="1" fill="#000000"/><rect x="4" y="35" width="1" height="1" fill="#000000"/><rect x="5" y="35" width="1" height="1" fill="#000000"/><rect x="37" y="35" width="1" height="1" fill="#000000"/><rect x="38" y="35" width="1" height="1" fill="#000000"/><rect x="53" y="35" width="1" height="1" fill="#000000"/><rect x="54" y="35" width="1" height="1" fill="#000000"/><rect x="3" y="36" width="1" height="1" fill="#000000"/><rect x="4" y="36" width="1" height="1" fill="#000000"/><rect x="5" y="36" width="1" height="1" fill="#000000"/><rect x="6" y="36" width="1" height="1" fill="#000000"/><rect x="38" y="36" width="1" height="1" fill="#000000"/><rect x="39" y="36" width="1" height="1" fill="#000000"/><rect x="52" y="36" width="1" height="1" fill="#000000"/><rect x="53" y="36" width="1" height="1" fill="#000000"/><rect x="54" y="36" width="1" height="1" fill="#000000"/><rect x="3" y="37" width="1" height="1" fill="#000000"/><rect x="4" y="37" width="1" height="1" fill="#000000"/><rect x="5" y="37" width="1" height="1" fill="#000000"/><rect x="6" y="37" width="1" height="1" fill="#000000"/><rect x="38" y="37" width="1" height="1" fill="#000000"/><rect x="39" y="37" width="1" height="1" fill="#000000"/><rect x="40" y="37" width="1" height="1" fill="#000000"/><rect x="51" y="37" width="1" height="1" fill="#000000"/><rect x="52" y="37" width="1" height="1" fill="#000000"/><rect x="54" y="37" width="1" height="1" fill="#000000"/><rect x="3" y="38" width="1" height="1" fill="#000000"/><rect x="5" y="38" width="1" height="1" fill="#000000"/><rect x="6" y="38" width="1" height="1" fill="#000000"/><rect x="7" y="38" width="1" height="1" fill="#000000"/><rect x="39" y="38" width="1" height="1" fill="#000000"/><rect x="40" y="38" width="1" height="1" fill="#000000"/><rect x="41" y="38" width="1" height="1" fill="#000000"/><rect x="49" y="38" width="1" height="1" fill="#000000"/><rect x="50" y="38" width="1" height="1" fill="#000000"/><rect x="51" y="38" width="1" height="1" fill="#000000"/><rect x="53" y="38" width="1" height="1" fill="#000000"/><rect x="3" y="39" width="1" height="1" fill="#000000"/><rect x="6" y="39" width="1" height="1" fill="#000000"/><rect x="7" y="39" width="1" height="1" fill="#000000"/><rect x="8" y="39" width="1" height="1" fill="#000000"/><rect x="41" y="39" width="1" height="1" fill="#000000"/><rect x="42" y="39" width="1" height="1" fill="#000000"/><rect x="49" y="39" width="1" height="1" fill="#000000"/><rect x="50" y="39" width="1" height="1" fill="#000000"/><rect x="51" y="39" width="1" height="1" fill="#000000"/><rect x="52" y="39" width="1" height="1" fill="#000000"/><rect x="53" y="39" width="1" height="1" fill="#000000"/><rect x="3" y="40" width="1" height="1" fill="#000000"/><rect x="6" y="40" width="1" height="1" fill="#000000"/><rect x="7" y="40" width="1" height="1" fill="#000000"/><rect x="8" y="40" width="1" height="1" fill="#000000"/><rect x="9" y="40" width="1" height="1" fill="#000000"/><rect x="42" y="40" width="1" height="1" fill="#000000"/><rect x="43" y="40" width="1" height="1" fill="#000000"/><rect x="48" y="40" width="1" height="1" fill="#000000"/><rect x="49" y="40" width="1" height="1" fill="#000000"/><rect x="50" y="40" width="1" height="1" fill="#000000"/><rect x="51" y="40" width="1" height="1" fill="#000000"/><rect x="52" y="40" width="1" height="1" fill="#000000"/><rect x="3" y="41" width="1" height="1" fill="#000000"/><rect x="8" y="41" width="1" height="1" fill="#000000"/><rect x="9" y="41" width="1" height="1" fill="#000000"/><rect x="42" y="41" width="1" height="1" fill="#000000"/><rect x="43" y="41" width="1" height="1" fill="#000000"/><rect x="44" y="41" width="1" height="1" fill="#000000"/><rect x="45" y="41" width="1" height="1" fill="#000000"/><rect x="48" y="41" width="1" height="1" fill="#000000"/><rect x="49" y="41" width="1" height="1" fill="#000000"/><rect x="50" y="41" width="1" height="1" fill="#000000"/><rect x="51" y="41" width="1" height="1" fill="#000000"/><rect x="3" y="42" width="1" height="1" fill="#000000"/><rect x="8" y="42" width="1" height="1" fill="#000000"/><rect x="9" y="42" width="1" height="1" fill="#000000"/><rect x="42" y="42" width="1" height="1" fill="#000000"/><rect x="43" y="42" width="1" height="1" fill="#000000"/><rect x="44" y="42" width="1" height="1" fill="#000000"/><rect x="45" y="42" width="1" height="1" fill="#000000"/><rect x="46" y="42" width="1" height="1" fill="#000000"/><rect x="47" y="42" width="1" height="1" fill="#000000"/><rect x="48" y="42" width="1" height="1" fill="#000000"/><rect x="49" y="42" width="1" height="1" fill="#000000"/><rect x="50" y="42" width="1" height="1" fill="#000000"/><rect x="51" y="42" width="1" height="1" fill="#000000"/><rect x="3" y="43" width="1" height="1" fill="#000000"/><rect x="8" y="43" width="1" height="1" fill="#000000"/><rect x="9" y="43" width="1" height="1" fill="#000000"/><rect x="44" y="43" width="1" height="1" fill="#000000"/><rect x="45" y="43" width="1" height="1" fill="#000000"/><rect x="46" y="43" width="1" height="1" fill="#000000"/><rect x="47" y="43" width="1" height="1" fill="#000000"/><rect x="48" y="43" width="1" height="1" fill="#000000"/><rect x="50" y="43" width="1" height="1" fill="#000000"/><rect x="51" y="43" width="1" height="1" fill="#000000"/><rect x="3" y="44" width="1" height="1" fill="#000000"/><rect x="8" y="44" width="1" height="1" fill="#000000"/><rect x="9" y="44" width="1" height="1" fill="#000000"/><rect x="10" y="44" width="1" height="1" fill="#000000"/><rect x="45" y="44" width="1" height="1" fill="#000000"/><rect x="46" y="44" width="1" height="1" fill="#000000"/><rect x="47" y="44" width="1" height="1" fill="#000000"/><rect x="50" y="44" width="1" height="1" fill="#000000"/><rect x="51" y="44" width="1" height="1" fill="#000000"/><rect x="9" y="45" width="1" height="1" fill="#000000"/><rect x="10" y="45" width="1" height="1" fill="#000000"/><rect x="43" y="45" width="1" height="1" fill="#000000"/><rect x="44" y="45" width="1" height="1" fill="#000000"/><rect x="45" y="45" width="1" height="1" fill="#000000"/><rect x="46" y="45" width="1" height="1" fill="#000000"/><rect x="49" y="45" width="1" height="1" fill="#000000"/><rect x="50" y="45" width="1" height="1" fill="#000000"/><rect x="55" y="45" width="1" height="1" fill="#000000"/><rect x="56" y="45" width="1" height="1" fill="#000000"/><rect x="9" y="46" width="1" height="1" fill="#000000"/><rect x="10" y="46" width="1" height="1" fill="#000000"/><rect x="18" y="46" width="1" height="1" fill="#000000"/><rect x="19" y="46" width="1" height="1" fill="#000000"/><rect x="20" y="46" width="1" height="1" fill="#000000"/><rect x="34" y="46" width="1" height="1" fill="#000000"/><rect x="42" y="46" width="1" height="1" fill="#000000"/><rect x="43" y="46" width="1" height="1" fill="#000000"/><rect x="45" y="46" width="1" height="1" fill="#000000"/><rect x="46" y="46" width="1" height="1" fill="#000000"/><rect x="49" y="46" width="1" height="1" fill="#000000"/><rect x="50" y="46" width="1" height="1" fill="#000000"/><rect x="53" y="46" width="1" height="1" fill="#000000"/><rect x="54" y="46" width="1" height="1" fill="#000000"/><rect x="55" y="46" width="1" height="1" fill="#000000"/><rect x="56" y="46" width="1" height="1" fill="#000000"/><rect x="57" y="46" width="1" height="1" fill="#000000"/><rect x="10" y="47" width="1" height="1" fill="#000000"/><rect x="11" y="47" width="1" height="1" fill="#000000"/><rect x="17" y="47" width="1" height="1" fill="#000000"/><rect x="18" y="47" width="1" height="1" fill="#000000"/><rect x="20" y="47" width="1" height="1" fill="#000000"/><rect x="21" y="47" width="1" height="1" fill="#000000"/><rect x="22" y="47" width="1" height="1" fill="#000000"/><rect x="23" y="47" width="1" height="1" fill="#000000"/><rect x="24" y="47" width="1" height="1" fill="#000000"/><rect x="25" y="47" width="1" height="1" fill="#000000"/><rect x="26" y="47" width="1" height="1" fill="#000000"/><rect x="27" y="47" width="1" height="1" fill="#000000"/><rect x="28" y="47" width="1" height="1" fill="#000000"/><rect x="29" y="47" width="1" height="1" fill="#000000"/><rect x="30" y="47" width="1" height="1" fill="#000000"/><rect x="31" y="47" width="1" height="1" fill="#000000"/><rect x="32" y="47" width="1" height="1" fill="#000000"/><rect x="33" y="47" width="1" height="1" fill="#000000"/><rect x="35" y="47" width="1" height="1" fill="#000000"/><rect x="36" y="47" width="1" height="1" fill="#000000"/><rect x="42" y="47" width="1" height="1" fill="#000000"/><rect x="43" y="47" width="1" height="1" fill="#000000"/><rect x="45" y="47" width="1" height="1" fill="#000000"/><rect x="46" y="47" width="1" height="1" fill="#000000"/><rect x="49" y="47" width="1" height="1" fill="#000000"/><rect x="50" y="47" width="1" height="1" fill="#000000"/><rect x="51" y="47" width="1" height="1" fill="#000000"/><rect x="53" y="47" width="1" height="1" fill="#000000"/><rect x="54" y="47" width="1" height="1" fill="#000000"/><rect x="56" y="47" width="1" height="1" fill="#000000"/><rect x="57" y="47" width="1" height="1" fill="#000000"/><rect x="10" y="48" width="1" height="1" fill="#000000"/><rect x="11" y="48" width="1" height="1" fill="#000000"/><rect x="17" y="48" width="1" height="1" fill="#000000"/><rect x="18" y="48" width="1" height="1" fill="#000000"/><rect x="21" y="48" width="1" height="1" fill="#000000"/><rect x="22" y="48" width="1" height="1" fill="#000000"/><rect x="23" y="48" width="1" height="1" fill="#000000"/><rect x="24" y="48" width="1" height="1" fill="#000000"/><rect x="25" y="48" width="1" height="1" fill="#000000"/><rect x="26" y="48" width="1" height="1" fill="#000000"/><rect x="27" y="48" width="1" height="1" fill="#000000"/><rect x="28" y="48" width="1" height="1" fill="#000000"/><rect x="29" y="48" width="1" height="1" fill="#000000"/><rect x="30" y="48" width="1" height="1" fill="#000000"/><rect x="31" y="48" width="1" height="1" fill="#000000"/><rect x="32" y="48" width="1" height="1" fill="#000000"/><rect x="35" y="48" width="1" height="1" fill="#000000"/><rect x="36" y="48" width="1" height="1" fill="#000000"/><rect x="42" y="48" width="1" height="1" fill="#000000"/><rect x="43" y="48" width="1" height="1" fill="#000000"/><rect x="45" y="48" width="1" height="1" fill="#000000"/><rect x="46" y="48" width="1" height="1" fill="#000000"/><rect x="47" y="48" width="1" height="1" fill="#000000"/><rect x="50" y="48" width="1" height="1" fill="#000000"/><rect x="51" y="48" width="1" height="1" fill="#000000"/><rect x="52" y="48" width="1" height="1" fill="#000000"/><rect x="53" y="48" width="1" height="1" fill="#000000"/><rect x="56" y="48" width="1" height="1" fill="#000000"/><rect x="57" y="48" width="1" height="1" fill="#000000"/><rect x="10" y="49" width="1" height="1" fill="#000000"/><rect x="11" y="49" width="1" height="1" fill="#000000"/><rect x="17" y="49" width="1" height="1" fill="#000000"/><rect x="18" y="49" width="1" height="1" fill="#000000"/><rect x="35" y="49" width="1" height="1" fill="#000000"/><rect x="36" y="49" width="1" height="1" fill="#000000"/><rect x="42" y="49" width="1" height="1" fill="#000000"/><rect x="43" y="49" width="1" height="1" fill="#000000"/><rect x="46" y="49" width="1" height="1" fill="#000000"/><rect x="47" y="49" width="1" height="1" fill="#000000"/><rect x="50" y="49" width="1" height="1" fill="#000000"/><rect x="51" y="49" width="1" height="1" fill="#000000"/><rect x="52" y="49" width="1" height="1" fill="#000000"/><rect x="53" y="49" width="1" height="1" fill="#000000"/><rect x="56" y="49" width="1" height="1" fill="#000000"/><rect x="57" y="49" width="1" height="1" fill="#000000"/><rect x="10" y="50" width="1" height="1" fill="#000000"/><rect x="11" y="50" width="1" height="1" fill="#000000"/><rect x="17" y="50" width="1" height="1" fill="#000000"/><rect x="18" y="50" width="1" height="1" fill="#000000"/><rect x="35" y="50" width="1" height="1" fill="#000000"/><rect x="36" y="50" width="1" height="1" fill="#000000"/><rect x="42" y="50" width="1" height="1" fill="#000000"/><rect x="43" y="50" width="1" height="1" fill="#000000"/><rect x="46" y="50" width="1" height="1" fill="#000000"/><rect x="47" y="50" width="1" height="1" fill="#000000"/><rect x="50" y="50" width="1" height="1" fill="#000000"/><rect x="51" y="50" width="1" height="1" fill="#000000"/><rect x="55" y="50" width="1" height="1" fill="#000000"/><rect x="56" y="50" width="1" height="1" fill="#000000"/><rect x="10" y="51" width="1" height="1" fill="#000000"/><rect x="11" y="51" width="1" height="1" fill="#000000"/><rect x="12" y="51" width="1" height="1" fill="#000000"/><rect x="13" y="51" width="1" height="1" fill="#000000"/><rect x="14" y="51" width="1" height="1" fill="#000000"/><rect x="15" y="51" width="1" height="1" fill="#000000"/><rect x="16" y="51" width="1" height="1" fill="#000000"/><rect x="17" y="51" width="1" height="1" fill="#000000"/><rect x="18" y="51" width="1" height="1" fill="#000000"/><rect x="35" y="51" width="1" height="1" fill="#000000"/><rect x="36" y="51" width="1" height="1" fill="#000000"/><rect x="37" y="51" width="1" height="1" fill="#000000"/><rect x="38" y="51" width="1" height="1" fill="#000000"/><rect x="39" y="51" width="1" height="1" fill="#000000"/><rect x="40" y="51" width="1" height="1" fill="#000000"/><rect x="41" y="51" width="1" height="1" fill="#000000"/><rect x="42" y="51" width="1" height="1" fill="#000000"/><rect x="43" y="51" width="1" height="1" fill="#000000"/><rect x="46" y="51" width="1" height="1" fill="#000000"/><rect x="47" y="51" width="1" height="1" fill="#000000"/><rect x="48" y="51" width="1" height="1" fill="#000000"/><rect x="54" y="51" width="1" height="1" fill="#000000"/><rect x="55" y="51" width="1" height="1" fill="#000000"/><rect x="10" y="52" width="1" height="1" fill="#000000"/><rect x="11" y="52" width="1" height="1" fill="#000000"/><rect x="13" y="52" width="1" height="1" fill="#000000"/><rect x="14" y="52" width="1" height="1" fill="#000000"/><rect x="15" y="52" width="1" height="1" fill="#000000"/><rect x="17" y="52" width="1" height="1" fill="#000000"/><rect x="18" y="52" width="1" height="1" fill="#000000"/><rect x="35" y="52" width="1" height="1" fill="#000000"/><rect x="36" y="52" width="1" height="1" fill="#000000"/><rect x="38" y="52" width="1" height="1" fill="#000000"/><rect x="39" y="52" width="1" height="1" fill="#000000"/><rect x="40" y="52" width="1" height="1" fill="#000000"/><rect x="42" y="52" width="1" height="1" fill="#000000"/><rect x="43" y="52" width="1" height="1" fill="#000000"/><rect x="47" y="52" width="1" height="1" fill="#000000"/><rect x="48" y="52" width="1" height="1" fill="#000000"/><rect x="49" y="52" width="1" height="1" fill="#000000"/><rect x="53" y="52" width="1" height="1" fill="#000000"/><rect x="54" y="52" width="1" height="1" fill="#000000"/><rect x="10" y="53" width="1" height="1" fill="#000000"/><rect x="14" y="53" width="1" height="1" fill="#000000"/><rect x="18" y="53" width="1" height="1" fill="#000000"/><rect x="35" y="53" width="1" height="1" fill="#000000"/><rect x="39" y="53" width="1" height="1" fill="#000000"/><rect x="43" y="53" width="1" height="1" fill="#000000"/><rect x="48" y="53" width="1" height="1" fill="#000000"/><rect x="49" y="53" width="1" height="1" fill="#000000"/><rect x="50" y="53" width="1" height="1" fill="#000000"/><rect x="51" y="53" width="1" height="1" fill="#000000"/><rect x="52" y="53" width="1" height="1" fill="#000000"/><rect x="53" y="53" width="1" height="1" fill="#000000"/><rect x="54" y="53" width="1" height="1" fill="#000000"/><rect x="10" y="54" width="1" height="1" fill="#000000"/><rect x="11" y="54" width="1" height="1" fill="#000000"/><rect x="12" y="54" width="1" height="1" fill="#000000"/><rect x="13" y="54" width="1" height="1" fill="#000000"/><rect x="14" y="54" width="1" height="1" fill="#000000"/><rect x="15" y="54" width="1" height="1" fill="#000000"/><rect x="16" y="54" width="1" height="1" fill="#000000"/><rect x="17" y="54" width="1" height="1" fill="#000000"/><rect x="18" y="54" width="1" height="1" fill="#000000"/><rect x="35" y="54" width="1" height="1" fill="#000000"/><rect x="36" y="54" width="1" height="1" fill="#000000"/><rect x="37" y="54" width="1" height="1" fill="#000000"/><rect x="38" y="54" width="1" height="1" fill="#000000"/><rect x="39" y="54" width="1" height="1" fill="#000000"/><rect x="40" y="54" width="1" height="1" fill="#000000"/><rect x="41" y="54" width="1" height="1" fill="#000000"/><rect x="42" y="54" width="1" height="1" fill="#000000"/><rect x="43" y="54" width="1" height="1" fill="#000000"/><rect x="49" y="54" width="1" height="1" fill="#000000"/><rect x="50" y="54" width="1" height="1" fill="#000000"/><rect x="51" y="54" width="1" height="1" fill="#000000"/><rect x="52" y="54" width="1" height="1" fill="#000000"/><rect x="53" y="54" width="1" height="1" fill="#000000"/></svg>