<?xml version="1.0" encoding="UTF-8"?>
<svg xmlns="http://www.w3.org/2000/svg" width="64" height="64" viewBox="0 0 64 64" shape-rendering="crispEdges"><rect x="12" y="8" width="1" height="1" fill="#000000"/><rect x="13" y="8" width="1" height="1" fill="#000000"/><rect x="14" y="8" width="1" height="1" fill="#000000"/><rect x="49" y="8" width="1" height="1" fill="#000000"/><rect x="50" y="8" width="1" height="1" fill="#000000"/><rect x="51" y="8" width="1" height="1" fill="#000000"/><rect x="52" y="8" width="1" height="1" fill="#000000"/><rect x="11" y="9" width="1" height="1" fill="#000000"/><rect x="12" y="9" width="1" height="1" fill="#000000"/><rect x="13" y="9" width="1" height="1" fill="#000000"/><rect x="14" y="9" width="1" height="1" fill="#000000"/><rect x="15" y="9" width="1" height="1" fill="#000000"/><rect x="48" y="9" width="1" height="1" fill="#000000"/><rect x="49" y="9" width="1" height="1" fill="#000000"/><rect x="50" y="9" width="1" height="1" fill="#000000"/><rect x="51" y="9" width="1" height="1" fill="#000000"/><rect x="52" y="9" width="1" height="1" fill="#000000"/><rect x="53" y="9" width="1" height="1" fill="#000000"/><rect x="10" y="10" width="1" height="1" fill="#000000"/><rect x="11" y="10" width="1" height="1" fill="#000000"/><rect x="12" y="10" width="1" height="1" fill="#000000"/><rect x="13" y="10" width="1" height="1" fill="#000000"/><rect x="14" y="10" width="1" height="1" fill="#000000"/><rect x="15" y="10" width="1" height="1" fill="#000000"/><rect x="16" y="10" width="1" height="1" fill="#000000"/><rect x="47" y="10" width="1" height="1" fill="#000000"/><rect x="48" y="10" width="1" height="1" fill="#000000"/><rect x="49" y="10" width="1" height="1" fill="#000000"/><rect x="51" y="10" width="1" height="1" fill="#000000"/><rect x="52" y="10" width="1" height="1" fill="#000000"/><rect x="53" y="10" width="1" height="1" fill="#000000"/><rect x="54" y="10" width="1" height="1" fill="#000000"/><rect x="9" y="11" width="1" height="1" fill="#000000"/><rect x="10" y="11" width="1" height="1" fill="#000000"/><rect x="11" y="11" width="1" height="1" fill="#000000"/><rect x="12" y="11" width="1" height="1" fill="#000000"/><rect x="14" y="11" width="1" height="1" fill="#000000"/><rect x="15" y="11" width="1" height="1" fill="#000000"/><rect x="16" y="11" width="1" height="1" fill="#000000"/><rect x="17" y="11" width="1" height="1" fill="#000000"/><rect x="29" y="11" width="1" height="1" fill="#000000"/><rect x="30" y="11" width="1" height="1" fill="#000000"/><rect x="31" y="11" width="1" height="1" fill="#000000"/><rect x="32" y="11" width="1" height="1" fill="#000000"/><rect x="33" y="11" width="1" height="1" fill="#000000"/><rect x="34" y="11" width="1" height="1" fill="#000000"/><rect x="46" y="11" width="1" height="1" fill="#000000"/><rect x="47" y="11" width="1" height="1" fill="#000000"/><rect x="48" y="11" width="1" height="1" fill="#000000"/><rect x="52" y="11" width="1" height="1" fill="#000000"/><rect x="53" y="11" width="1" height="1" fill="#000000"/><rect x="54" y="11" width="1" height="1" fill="#000000"/><rect x="9" y="12" width="1" height="1" fill="#000000"/><rect x="10" y="12" width="1" height="1" fill="#000000"/><rect x="11" y="12" width="1" height="1" fill="#000000"/><rect x="15" y="12" width="1" height="1" fill="#000000"/><rect x="16" y="12" width="1" height="1" fill="#000000"/><rect x="17" y="12" width="1" height="1" fill="#000000"/><rect x="26" y="12" width="1" height="1" fill="#000000"/><rect x="27" y="12" width="1" height="1" fill="#000000"/><rect x="28" y="12" width="1" height="1" fill="#000000"/><rect x="29" y="12" width="1" height="1" fill="#000000"/><rect x="30" y="12" width="1" height="1" fill="#000000"/><rect x="31" y="12" width="1" height="1" fill="#000000"/><rect x="32" y="12" width="1" height="1" fill="#000000"/><rect x="33" y="12" width="1" height="1" fill="#000000"/><rect x="34" y="12" width="1" height="1" fill="#000000"/><rect x="35" y="12" width="1" height="1" fill="#000000"/><rect x="36" y="12" width="1" height="1" fill="#000000"/><rect x="37" y="12" width="1" height="1" fill="#000000"/><rect x="44" y="12" width="1" height="1" fill="#000000"/><rect x="45" y="12" width="1" height="1" fill="#000000"/><rect x="46" y="12" width="1" height="1" fill="#000000"/><rect x="47" y="12" width="1" height="1" fill="#000000"/><rect x="52" y="12" width="1" height="1" fill="#000000"/><rect x="53" y="12" width="1" height="1" fill="#000000"/><rect x="54" y="12" width="1" height="1" fill="#000000"/><rect x="55" y="12" width="1" height="1" fill="#000000"/><rect x="8" y="13" width="1" height="1" fill="#000000"/><rect x="9" y="13" width="1" height="1" fill="#000000"/><rect x="10" y="13" width="1" height="1" fill="#000000"/><rect x="16" y="13" width="1" height="1" fill="#000000"/><rect x="17" y="13" width="1" height="1" fill="#000000"/><rect x="24" y="13" width="1" height="1" fill="#000000"/><rect x="25" y="13" width="1" height="1" fill="#000000"/><rect x="26" y="13" width="1" height="1" fill="#000000"/><rect x="27" y="13" width="1" height="1" fill="#000000"/><rect x="28" y="13" width="1" height="1" fill="#000000"/><rect x="29" y="13" width="1" height="1" fill="#000000"/><rect x="30" y="13" width="1" height="1" fill="#000000"/><rect x="33" y="13" width="1" height="1" fill="#000000"/><rect x="34" y="13" width="1" height="1" fill="#000000"/><rect x="35" y="13" width="1" height="1" fill="#000000"/><rect x="36" y="13" width="1" height="1" fill="#000000"/><rect x="37" y="13" width="1" height="1" fill="#000000"/><rect x="38" y="13" width="1" height="1" fill="#000000"/><rect x="43" y="13" width="1" height="1" fill="#000000"/><rect x="44" y="13" width="1" height="1" fill="#000000"/><rect x="45" y="13" width="1" height="1" fill="#000000"/><rect x="53" y="13" width="1" height="1" fill="#000000"/><rect x="54" y="13" width="1" height="1" fill="#000000"/><rect x="55" y="13" width="1" height="1" fill="#000000"/><rect x="56" y="13" width="1" height="1" fill="#000000"/><rect x="8" y="14" width="1" height="1" fill="#000000"/><rect x="9" y="14" width="1" height="1" fill="#000000"/><rect x="10" y="14" width="1" height="1" fill="#000000"/><rect x="16" y="14" width="1" height="1" fill="#000000"/><rect x="17" y="14" width="1" height="1" fill="#000000"/><rect x="18" y="14" width="1" height="1" fill="#000000"/><rect x="23" y="14" width="1" height="1" fill="#000000"/><rect x="24" y="14" width="1" height="1" fill="#000000"/><rect x="25" y="14" width="1" height="1" fill="#000000"/><rect x="26" y="14" width="1" height="1" fill="#000000"/><rect x="27" y="14" width="1" height="1" fill="#000000"/><rect x="36" y="14" width="1" height="1" fill="#000000"/><rect x="37" y="14" width="1" height="1" fill="#000000"/><rect x="38" y="14" width="1" height="1" fill="#000000"/><rect x="39" y="14" width="1" height="1" fill="#000000"/><rect x="40" y="14" width="1" height="1" fill="#000000"/><rect x="42" y="14" width="1" height="1" fill="#000000"/><rect x="43" y="14" width="1" height="1" fill="#000000"/><rect x="44" y="14" width="1" height="1" fill="#000000"/><rect x="45" y="14" width="1" height="1" fill="#000000"/><rect x="54" y="14" width="1" height="1" fill="#000000"/><rect x="55" y="14" width="1" height="1" fill="#000000"/><rect x="56" y="14" width="1" height="1" fill="#000000"/><rect x="57" y="14" width="1" height="1" fill="#000000"/><rect x="8" y="15" width="1" height="1" fill="#000000"/><rect x="9" y="15" width="1" height="1" fill="#000000"/><rect x="17" y="15" width="1" height="1" fill="#000000"/><rect x="18" y="15" width="1" height="1" fill="#000000"/><rect x="21" y="15" width="1" height="1" fill="#000000"/><rect x="22" y="15" width="1" height="1" fill="#000000"/><rect x="23" y="15" width="1" height="1" fill="#000000"/><rect x="24" y="15" width="1" height="1" fill="#000000"/><rect x="25" y="15" width="1" height="1" fill="#000000"/><rect x="38" y="15" width="1" height="1" fill="#000000"/><rect x="39" y="15" width="1" height="1" fill="#000000"/><rect x="40" y="15" width="1" height="1" fill="#000000"/><rect x="41" y="15" width="1" height="1" fill="#000000"/><rect x="42" y="15" width="1" height="1" fill="#000000"/><rect x="43" y="15" width="1" height="1" fill="#000000"/><rect x="55" y="15" width="1" height="1" fill="#000000"/><rect x="56" y="15" width="1" height="1" fill="#000000"/><rect x="57" y="15" width="1" height="1" fill="#000000"/><rect x="7" y="16" width="1" height="1" fill="#000000"/><rect x="8" y="16" width="1" height="1" fill="#000000"/><rect x="9" y="16" width="1" height="1" fill="#000000"/><rect x="17" y="16" width="1" height="1" fill="#000000"/><rect x="18" y="16" width="1" height="1" fill="#000000"/><rect x="19" y="16" width="1" height="1" fill="#000000"/><rect x="21" y="16" width="1" height="1" fill="#000000"/><rect x="22" y="16" width="1" height="1" fill="#000000"/><rect x="23" y="16" width="1" height="1" fill="#000000"/><rect x="39" y="16" width="1" height="1" fill="#000000"/><rect x="40" y="16" width="1" height="1" fill="#000000"/><rect x="41" y="16" width="1" height="1" fill="#000000"/><rect x="42" y="16" width="1" height="1" fill="#000000"/><rect x="43" y="16" width="1" height="1" fill="#000000"/><rect x="44" y="16" width="1" height="1" fill="#000000"/><rect x="55" y="16" width="1" height="1" fill="#000000"/><rect x="56" y="16" width="1" height="1" fill="#000000"/><rect x="57" y="16" width="1" height="1" fill="#000000"/><rect x="58" y="16" width="1" height="1" fill="#000000"/><rect x="7" y="17" width="1" height="1" fill="#000000"/><rect x="8" y="17" width="1" height="1" fill="#000000"/><rect x="9" y="17" width="1" height="1" fill="#000000"/><rect x="17" y="17" width="1" height="1" fill="#000000"/><rect x="18" y="17" width="1" height="1" fill="#000000"/><rect x="19" y="17" width="1" height="1" fill="#000000"/><rect x="20" y="17" width="1" height="1" fill="#000000"/><rect x="21" y="17" width="1" height="1" fill="#000000"/><rect x="22" y="17" width="1" height="1" fill="#000000"/><rect x="41" y="17" width="1" height="1" fill="#000000"/><rect x="42" y="17" width="1" height="1" fill="#000000"/><rect x="43" y="17" width="1" height="1" fill="#000000"/><rect x="56" y="17" width="1" height="1" fill="#000000"/><rect x="57" y="17" width="1" height="1" fill="#000000"/><rect x="58" y="17" width="1" height="1" fill="#000000"/><rect x="7" y="18" width="1" height="1" fill="#000000"/><rect x="8" y="18" width="1" height="1" fill="#000000"/><rect x="17" y="18" width="1" height="1" fill="#000000"/><rect x="18" y="18" width="1" height="1" fill="#000000"/><rect x="19" y="18" width="1" height="1" fill="#000000"/><rect x="20" y="18" width="1" height="1" fill="#000000"/><rect x="21" y="18" width="1" height="1" fill="#000000"/><rect x="42" y="18" width="1" height="1" fill="#000000"/><rect x="43" y="18" width="1" height="1" fill="#000000"/><rect x="56" y="18" width="1" height="1" fill="#000000"/><rect x="57" y="18" width="1" height="1" fill="#000000"/><rect x="58" y="18" width="1" height="1" fill="#000000"/><rect x="7" y="19" width="1" height="1" fill="#000000"/><rect x="8" y="19" width="1" height="1" fill="#000000"/><rect x="17" y="19" width="1" height="1" fill="#000000"/><rect x="18" y="19" width="1" height="1" fill="#000000"/><rect x="19" y="19" width="1" height="1" fill="#000000"/><rect x="42" y="19" width="1" height="1" fill="#000000"/><rect x="57" y="19" width="1" height="1" fill="#000000"/><rect x="58" y="19" width="1" height="1" fill="#000000"/><rect x="7" y="20" width="1" height="1" fill="#000000"/><rect x="8" y="20" width="1" height="1" fill="#000000"/><rect x="17" y="20" width="1" height="1" fill="#000000"/><rect x="18" y="20" width="1" height="1" fill="#000000"/><rect x="57" y="20" width="1" height="1" fill="#000000"/><rect x="58" y="20" width="1" height="1" fill="#000000"/><rect x="6" y="21" width="1" height="1" fill="#000000"/><rect x="7" y="21" width="1" height="1" fill="#000000"/><rect x="8" y="21" width="1" height="1" fill="#000000"/><rect x="18" y="21" width="1" height="1" fill="#000000"/><rect x="57" y="21" width="1" height="1" fill="#000000"/><rect x="58" y="21" width="1" height="1" fill="#000000"/><rect x="6" y="22" width="1" height="1" fill="#000000"/><rect x="7" y="22" width="1" height="1" fill="#000000"/><rect x="8" y="22" width="1" height="1" fill="#000000"/><rect x="57" y="22" width="1" height="1" fill="#000000"/><rect x="58" y="22" width="1" height="1" fill="#000000"/><rect x="6" y="23" width="1" height="1" fill="#000000"/><rect x="7" y="23" width="1" height="1" fill="#000000"/><rect x="57" y="23" width="1" height="1" fill="#000000"/><rect x="58" y="23" width="1" height="1" fill="#000000"/><rect x="6" y="24" width="1" height="1" fill="#000000"/><rect x="7" y="24" width="1" height="1" fill="#000000"/><rect x="57" y="24" width="1" height="1" fill="#000000"/><rect x="58" y="24" width="1" height="1" fill="#000000"/><rect x="6" y="25" width="1" height="1" fill="#000000"/><rect x="7" y="25" width="1" height="1" fill="#000000"/><rect x="24" y="25" width="1" height="1" fill="#000000"/><rect x="25" y="25" width="1" height="1" fill="#000000"/><rect x="39" y="25" width="1" height="1" fill="#000000"/><rect x="40" y="25" width="1" height="1" fill="#000000"/><rect x="57" y="25" width="1" height="1" fill="#000000"/><rect x="58" y="25" width="1" height="1" fill="#000000"/><rect x="7" y="26" width="1" height="1" fill="#000000"/><rect x="23" y="26" width="1" height="1" fill="#000000"/><rect x="24" y="26" width="1" height="1" fill="#000000"/><rect x="25" y="26" width="1" height="1" fill="#000000"/><rect x="26" y="26" width="1" height="1" fill="#000000"/><rect x="38" y="26" width="1" height="1" fill="#000000"/><rect x="39" y="26" width="1" height="1" fill="#000000"/><rect x="40" y="26" width="1" height="1" fill="#000000"/><rect x="41" y="26" width="1" height="1" fill="#000000"/><rect x="57" y="26" width="1" height="1" fill="#000000"/><rect x="58" y="26" width="1" height="1" fill="#000000"/><rect x="7" y="27" width="1" height="1" fill="#000000"/><rect x="24" y="27" width="1" height="1" fill="#000000"/><rect x="25" y="27" width="1" height="1" fill="#000000"/><rect x="39" y="27" width="1" height="1" fill="#000000"/><rect x="40" y="27" width="1" height="1" fill="#000000"/><rect x="57" y="27" width="1" height="1" fill="#000000"/><rect x="58" y="27" width="1" height="1" fill="#000000"/><rect x="6" y="28" width="1" height="1" fill="#000000"/><rect x="7" y="28" width="1" height="1" fill="#000000"/><rect x="57" y="28" width="1" height="1" fill="#000000"/><rect x="58" y="28" width="1" height="1" fill="#000000"/><rect x="6" y="29" width="1" height="1" fill="#000000"/><rect x="7" y="29" width="1" height="1" fill="#000000"/><rect x="57" y="29" width="1" height="1" fill="#000000"/><rect x="58" y="29" width="1" height="1" fill="#000000"/><rect x="6" y="30" width="1" height="1" fill="#000000"/><rect x="7" y="30" width="1" height="1" fill="#000000"/><rect x="57" y="30" width="1" height="1" fill="#000000"/><rect x="58" y="30" width="1" height="1" fill="#000000"/><rect x="6" y="31" width="1" height="1" fill="#000000"/><rect x="7" y="31" width="1" height="1" fill="#000000"/><rect x="57" y="31" width="1" height="1" fill="#000000"/><rect x="58" y="31" width="1" height="1" fill="#000000"/><rect x="6" y="32" width="1" height="1" fill="#000000"/><rect x="7" y="32" width="1" height="1" fill="#000000"/><rect x="57" y="32" width="1" height="1" fill="#000000"/><rect x="58" y="32" width="1" height="1" fill="#000000"/><rect x="6" y="33" width="1" height="1" fill="#000000"/><rect x="7" y="33" width="1" height="1" fill="#000000"/><rect x="8" y="33" width="1" height="1" fill="#000000"/><rect x="57" y="33" width="1" height="1" fill="#000000"/><rect x="58" y="33" width="1" height="1" fill="#000000"/><rect x="6" y="34" width="1" height="1" fill="#000000"/><rect x="7" y="34" width="1" height="1" fill="#000000"/><rect x="8" y="34" width="1" height="1" fill="#000000"/><rect x="57" y="34" width="1" height="1" fill="#000000"/><rect x="58" y="34" width="1" height="1" fill="#000000"/><rect x="6" y="35" width="1" height="1" fill="#000000"/><rect x="7" y="35" width="1" height="1" fill="#000000"/><rect x="57" y="35" width="1" height="1" fill="#000000"/><rect x="58" y="35" width="1" height="1" fill="#000000"/><rect x="6" y="36" width="1" height="1" fill="#000000"/><rect x="7" y="36" width="1" height="1" fill="#000000"/><rect x="18" y="36" width="1" height="1" fill="#000000"/><rect x="43" y="36" width="1" height="1" fill="#000000"/><rect x="56" y="36" width="1" height="1" fill="#000000"/><rect x="57" y="36" width="1" height="1" fill="#000000"/><rect x="58" y="36" width="1" height="1" fill="#000000"/><rect x="6" y="37" width="1" height="1" fill="#000000"/><rect x="7" y="37" width="1" height="1" fill="#000000"/><rect x="18" y="37" width="1" height="1" fill="#000000"/><rect x="19" y="37" width="1" height="1" fill="#000000"/><rect x="42" y="37" width="1" height="1" fill="#000000"/><rect x="43" y="37" width="1" height="1" fill="#000000"/><rect x="56" y="37" width="1" height="1" fill="#000000"/><rect x="57" y="37" width="1" height="1" fill="#000000"/><rect x="6" y="38" width="1" height="1" fill="#000000"/><rect x="7" y="38" width="1" height="1" fill="#000000"/><rect x="18" y="38" width="1" height="1" fill="#000000"/><rect x="19" y="38" width="1" height="1" fill="#000000"/><rect x="20" y="38" width="1" height="1" fill="#000000"/><rect x="31" y="38" width="1" height="1" fill="#000000"/><rect x="41" y="38" width="1" height="1" fill="#000000"/><rect x="42" y="38" width="1" height="1" fill="#000000"/><rect x="43" y="38" width="1" height="1" fill="#000000"/><rect x="44" y="38" width="1" height="1" fill="#000000"/><rect x="55" y="38" width="1" height="1" fill="#000000"/><rect x="56" y="38" width="1" height="1" fill="#000000"/><rect x="57" y="38" width="1" height="1" fill="#000000"/><rect x="6" y="39" width="1" height="1" fill="#000000"/><rect x="7" y="39" width="1" height="1" fill="#000000"/><rect x="17" y="39" width="1" height="1" fill="#000000"/><rect x="18" y="39" width="1" height="1" fill="#000000"/><rect x="19" y="39" width="1" height="1" fill="#000000"/><rect x="20" y="39" width="1" height="1" fill="#000000"/><rect x="21" y="39" width="1" height="1" fill="#000000"/><rect x="22" y="39" width="1" height="1" fill="#000000"/><rect x="27" y="39" width="1" height="1" fill="#000000"/><rect x="28" y="39" width="1" height="1" fill="#000000"/><rect x="29" y="39" width="1" height="1" fill="#000000"/><rect x="40" y="39" width="1" height="1" fill="#000000"/><rect x="41" y="39" width="1" height="1" fill="#000000"/><rect x="42" y="39" width="1" height="1" fill="#000000"/><rect x="43" y="39" width="1" height="1" fill="#000000"/><rect x="44" y="39" width="1" height="1" fill="#000000"/><rect x="55" y="39" width="1" height="1" fill="#000000"/><rect x="56" y="39" width="1" height="1" fill="#000000"/><rect x="57" y="39" width="1" height="1" fill="#000000"/><rect x="6" y="40" width="1" height="1" fill="#000000"/><rect x="7" y="40" width="1" height="1" fill="#000000"/><rect x="8" y="40" width="1" height="1" fill="#000000"/><rect x="17" y="40" width="1" height="1" fill="#000000"/><rect x="18" y="40" width="1" height="1" fill="#000000"/><rect x="19" y="40" width="1" height="1" fill="#000000"/><rect x="20" y="40" width="1" height="1" fill="#000000"/><rect x="21" y="40" width="1" height="1" fill="#000000"/><rect x="22" y="40" width="1" height="1" fill="#000000"/><rect x="23" y="40" width="1" height="1" fill="#000000"/><rect x="24" y="40" width="1" height="1" fill="#000000"/><rect x="25" y="40" width="1" height="1" fill="#000000"/><rect x="26" y="40" width="1" height="1" fill="#000000"/><rect x="27" y="40" width="1" height="1" fill="#000000"/><rect x="28" y="40" width="1" height="1" fill="#000000"/><rect x="29" y="40" width="1" height="1" fill="#000000"/><rect x="30" y="40" width="1" height="1" fill="#000000"/><rect x="38" y="40" width="1" height="1" fill="#000000"/><rect x="39" y="40" width="1" height="1" fill="#000000"/><rect x="40" y="40" width="1" height="1" fill="#000000"/><rect x="41" y="40" width="1" height="1" fill="#000000"/><rect x="42" y="40" width="1" height="1" fill="#000000"/><rect x="43" y="40" width="1" height="1" fill="#000000"/><rect x="44" y="40" width="1" height="1" fill="#000000"/><rect x="45" y="40" width="1" height="1" fill="#000000"/><rect x="46" y="40" width="1" height="1" fill="#000000"/><rect x="55" y="40" width="1" height="1" fill="#000000"/><rect x="56" y="40" width="1" height="1" fill="#000000"/><rect x="6" y="41" width="1" height="1" fill="#000000"/><rect x="7" y="41" width="1" height="1" fill="#000000"/><rect x="8" y="41" width="1" height="1" fill="#000000"/><rect x="17" y="41" width="1" height="1" fill="#000000"/><rect x="18" y="41" width="1" height="1" fill="#000000"/><rect x="19" y="41" width="1" height="1" fill="#000000"/><rect x="20" y="41" width="1" height="1" fill="#000000"/><rect x="21" y="41" width="1" height="1" fill="#000000"/><rect x="22" y="41" width="1" height="1" fill="#000000"/><rect x="25" y="41" width="1" height="1" fill="#000000"/><rect x="26" y="41" width="1" height="1" fill="#000000"/><rect x="27" y="41" width="1" height="1" fill="#000000"/><rect x="28" y="41" width="1" height="1" fill="#000000"/><rect x="29" y="41" width="1" height="1" fill="#000000"/><rect x="37" y="41" width="1" height="1" fill="#000000"/><rect x="38" y="41" width="1" height="1" fill="#000000"/><rect x="39" y="41" width="1" height="1" fill="#000000"/><rect x="41" y="41" width="1" height="1" fill="#000000"/><rect x="42" y="41" width="1" height="1" fill="#000000"/><rect x="43" y="41" width="1" height="1" fill="#000000"/><rect x="44" y="41" width="1" height="1" fill="#000000"/><rect x="45" y="41" width="1" height="1" fill="#000000"/><rect x="46" y="41" width="1" height="1" fill="#000000"/><rect x="47" y="41" width="1" height="1" fill="#000000"/><rect x="55" y="41" width="1" height="1" fill="#000000"/><rect x="56" y="41" width="1" height="1" fill="#000000"/><rect x="6" y="42" width="1" height="1" fill="#000000"/><rect x="7" y="42" width="1" height="1" fill="#000000"/><rect x="8" y="42" width="1" height="1" fill="#000000"/><rect x="16" y="42" width="1" height="1" fill="#000000"/><rect x="17" y="42" width="1" height="1" fill="#000000"/><rect x="18" y="42" width="1" height="1" fill="#000000"/><rect x="20" y="42" width="1" height="1" fill="#000000"/><rect x="23" y="42" width="1" height="1" fill="#000000"/><rect x="24" y="42" width="1" height="1" fill="#000000"/><rect x="25" y="42" width="1" height="1" fill="#000000"/><rect x="26" y="42" width="1" height="1" fill="#000000"/><rect x="27" y="42" width="1" height="1" fill="#000000"/><rect x="28" y="42" width="1" height="1" fill="#000000"/><rect x="29" y="42" width="1" height="1" fill="#000000"/><rect x="31" y="42" width="1" height="1" fill="#000000"/><rect x="36" y="42" width="1" height="1" fill="#000000"/><rect x="37" y="42" width="1" height="1" fill="#000000"/><rect x="38" y="42" width="1" height="1" fill="#000000"/><rect x="45" y="42" width="1" height="1" fill="#000000"/><rect x="46" y="42" width="1" height="1" fill="#000000"/><rect x="47" y="42" width="1" height="1" fill="#000000"/><rect x="55" y="42" width="1" height="1" fill="#000000"/><rect x="56" y="42" width="1" height="1" fill="#000000"/><rect x="7" y="43" width="1" height="1" fill="#000000"/><rect x="8" y="43" width="1" height="1" fill="#000000"/><rect x="15" y="43" width="1" height="1" fill="#000000"/><rect x="16" y="43" width="1" height="1" fill="#000000"/><rect x="17" y="43" width="1" height="1" fill="#000000"/><rect x="23" y="43" width="1" height="1" fill="#000000"/><rect x="28" y="43" width="1" height="1" fill="#000000"/><rect x="29" y="43" width="1" height="1" fill="#000000"/><rect x="30" y="43" width="1" height="1" fill="#000000"/><rect x="35" y="43" width="1" height="1" fill="#000000"/><rect x="36" y="43" width="1" height="1" fill="#000000"/><rect x="37" y="43" width="1" height="1" fill="#000000"/><rect x="45" y="43" width="1" height="1" fill="#000000"/><rect x="46" y="43" width="1" height="1" fill="#000000"/><rect x="47" y="43" width="1" height="1" fill="#000000"/><rect x="48" y="43" width="1" height="1" fill="#000000"/><rect x="54" y="43" width="1" height="1" fill="#000000"/><rect x="55" y="43" width="1" height="1" fill="#000000"/><rect x="56" y="43" width="1" height="1" fill="#000000"/><rect x="7" y="44" width="1" height="1" fill="#000000"/><rect x="8" y="44" width="1" height="1" fill="#000000"/><rect x="9" y="44" width="1" height="1" fill="#000000"/><rect x="15" y="44" width="1" height="1" fill="#000000"/><rect x="16" y="44" width="1" height="1" fill="#000000"/><rect x="28" y="44" width="1" height="1" fill="#000000"/><rect x="29" y="44" width="1" height="1" fill="#000000"/><rect x="35" y="44" width="1" height="1" fill="#000000"/><rect x="36" y="44" width="1" height="1" fill="#000000"/><rect x="46" y="44" width="1" height="1" fill="#000000"/><rect x="47" y="44" width="1" height="1" fill="#000000"/><rect x="48" y="44" width="1" height="1" fill="#000000"/><rect x="53" y="44" width="1" height="1" fill="#000000"/><rect x="54" y="44" width="1" height="1" fill="#000000"/><rect x="55" y="44" width="1" height="1" fill="#000000"/><rect x="8" y="45" width="1" height="1" fill="#000000"/><rect x="9" y="45" width="1" height="1" fill="#000000"/><rect x="15" y="45" width="1" height="1" fill="#000000"/><rect x="27" y="45" width="1" height="1" fill="#000000"/><rect x="28" y="45" width="1" height="1" fill="#000000"/><rect x="29" y="45" width="1" height="1" fill="#000000"/><rect x="32" y="45" width="1" height="1" fill="#000000"/><rect x="34" y="45" width="1" height="1" fill="#000000"/><rect x="35" y="45" width="1" height="1" fill="#000000"/><rect x="47" y="45" width="1" height="1" fill="#000000"/><rect x="48" y="45" width="1" height="1" fill="#000000"/><rect x="52" y="45" width="1" height="1" fill="#000000"/><rect x="53" y="45" width="1" height="1" fill="#000000"/><rect x="54" y="45" width="1" height="1" fill="#000000"/><rect x="55" y="45" width="1" height="1" fill="#000000"/><rect x="9" y="46" width="1" height="1" fill="#000000"/><rect x="10" y="46" width="1" height="1" fill="#000000"/><rect x="14" y="46" width="1" height="1" fill="#000000"/><rect x="15" y="46" width="1" height="1" fill="#000000"/><rect x="27" y="46" width="1" height="1" fill="#000000"/><rect x="28" y="46" width="1" height="1" fill="#000000"/><rect x="32" y="46" width="1" height="1" fill="#000000"/><rect x="33" y="46" width="1" height="1" fill="#000000"/><rect x="34" y="46" width="1" height="1" fill="#000000"/><rect x="48" y="46" width="1" height="1" fill="#000000"/><rect x="49" y="46" width="1" height="1" fill="#000000"/><rect x="52" y="46" width="1" height="1" fill="#000000"/><rect x="53" y="46" width="1" height="1" fill="#000000"/><rect x="54" y="46" width="1" height="1" fill="#000000"/><rect x="9" y="47" width="1" height="1" fill="#000000"/><rect x="10" y="47" width="1" height="1" fill="#000000"/><rect x="14" y="47" width="1" height="1" fill="#000000"/><rect x="15" y="47" width="1" height="1" fill="#000000"/><rect x="26" y="47" width="1" height="1" fill="#000000"/><rect x="28" y="47" width="1" height="1" fill="#000000"/><rect x="32" y="47" width="1" height="1" fill="#000000"/><rect x="33" y="47" width="1" height="1" fill="#000000"/><rect x="34" y="47" width="1" height="1" fill="#000000"/><rect x="48" y="47" width="1" height="1" fill="#000000"/><rect x="49" y="47" width="1" height="1" fill="#000000"/><rect x="50" y="47" width="1" height="1" fill="#000000"/><rect x="52" y="47" width="1" height="1" fill="#000000"/><rect x="53" y="47" width="1" height="1" fill="#000000"/><rect x="10" y="48" width="1" height="1" fill="#000000"/><rect x="11" y="48" width="1" height="1" fill="#000000"/><rect x="14" y="48" width="1" height="1" fill="#000000"/><rect x="15" y="48" width="1" height="1" fill="#000000"/><rect x="25" y="48" width="1" height="1" fill="#000000"/><rect x="26" y="48" width="1" height="1" fill="#000000"/><rect x="27" y="48" width="1" height="1" fill="#000000"/><rect x="31" y="48" width="1" height="1" fill="#000000"/><rect x="32" y="48" width="1" height="1" fill="#000000"/><rect x="33" y="48" width="1" height="1" fill="#000000"/><rect x="49" y="48" width="1" height="1" fill="#000000"/><rect x="50" y="48" width="1" height="1" fill="#000000"/><rect x="51" y="48" width="1" height="1" fill="#000000"/><rect x="52" y="48" width="1" height="1" fill="#000000"/><rect x="53" y="48" width="1" height="1" fill="#000000"/><rect x="10" y="49" width="1" height="1" fill="#000000"/><rect x="11" y="49" width="1" height="1" fill="#000000"/><rect x="12" y="49" width="1" height="1" fill="#000000"/><rect x="13" y="49" width="1" height="1" fill="#000000"/><rect x="14" y="49" width="1" height="1" fill="#000000"/><rect x="25" y="49" width="1" height="1" fill="#000000"/><rect x="26" y="49" width="1" height="1" fill="#000000"/><rect x="31" y="49" width="1" height="1" fill="#000000"/><rect x="32" y="49" width="1" height="1" fill="#000000"/><rect x="49" y="49" width="1" height="1" fill="#000000"/><rect x="50" y="49" width="1" height="1" fill="#000000"/><rect x="51" y="49" width="1" height="1" fill="#000000"/><rect x="52" y="49" width="1" height="1" fill="#000000"/><rect x="11" y="50" width="1" height="1" fill="#000000"/><rect x="12" y="50" width="1" height="1" fill="#000000"/><rect x="13" y="50" width="1" height="1" fill="#000000"/><rect x="14" y="50" width="1" height="1" fill="#000000"/><rect x="25" y="50" width="1" height="1" fill="#000000"/><rect x="26" y="50" width="1" height="1" fill="#000000"/><rect x="30" y="50" width="1" height="1" fill="#000000"/><rect x="31" y="50" width="1" height="1" fill="#000000"/><rect x="32" y="50" width="1" height="1" fill="#000000"/><rect x="24" y="51" width="1" height="1" fill="#000000"/><rect x="25" y="51" width="1" height="1" fill="#000000"/><rect x="26" y="51" width="1" height="1" fill="#000000"/><rect x="29" y="51" width="1" height="1" fill="#000000"/><rect x="30" y="51" width="1" height="1" fill="#000000"/><rect x="31" y="51" width="1" height="1" fill="#000000"/><rect x="32" y="51" width="1" height="1" fill="#000000"/><rect x="24" y="52" width="1" height="1" fill="#000000"/><rect x="25" y="52" width="1" height="1" fill="#000000"/><rect x="26" y="52" width="1" height="1" fill="#000000"/><rect x="30" y="52" width="1" height="1" fill="#000000"/><rect x="31" y="52" width="1" height="1" fill="#000000"/><rect x="32" y="52" width="1" height="1" fill="#000000"/><rect x="34" y="52" width="1" height="1" fill="#000000"/><rect x="24" y="53" width="1" height="1" fill="#000000"/><rect x="25" y="53" width="1" height="1" fill="#000000"/><rect x="30" y="53" width="1" height="1" fill="#000000"/><rect x="31" y="53" width="1" height="1" fill="#000000"/><rect x="34" y="53" width="1" height="1" fill="#000000"/><rect x="24" y="54" width="1" height="1" fill="#000000"/><rect x="25" y="54" width="1" height="1" fill="#000000"/><rect x="30" y="54" width="1" height="1" fill="#000000"/><rect x="31" y="54" width="1" height="1" fill="#000000"/><rect x="32" y="54" width="1" height="1" fill="#000000"/><rect x="40" y="54" width="1" height="1" fill="#000000"/><rect x="41" y="54" width="1" height="1" fill="#000000"/><rect x="42" y="54" width="1" height="1" fill="#000000"/><rect x="24" y="55" width="1" height="1" fill="#000000"/><rect x="25" y="55" width="1" height="1" fill="#000000"/><rect x="27" y="55" width="1" height="1" fill="#000000"/><rect x="30" y="55" width="1" height="1" fill="#000000"/><rect x="31" y="55" width="1" height="1" fill="#000000"/><rect x="32" y="55" width="1" height="1" fill="#000000"/><rect x="33" y="55" width="1" height="1" fill="#000000"/><rect x="34" y="55" width="1" height="1" fill="#000000"/><rect x="38" y="55" width="1" height="1" fill="#000000"/><rect x="39" y="55" width="1" height="1" fill="#000000"/><rect x="40" y="55" width="1" height="1" fill="#000000"/><rect x="41" y="55" width="1" height="1" fill="#000000"/><rect x="42" y="55" width="1" height="1" fill="#000000"/><rect x="43" y="55" width="1" height="1" fill="#000000"/><rect x="24" y="56" width="1" height="1" fill="#000000"/><rect x="25" y="56" width="1" height="1" fill="#000000"/><rect x="30" y="56" width="1" height="1" fill="#000000"/><rect x="32" y="56" width="1" height="1" fill="#000000"/><rect x="33" y="56" width="1" height="1" fill="#000000"/><rect x="34" y="56" width="1" height="1" fill="#000000"/><rect x="37" y="56" width="1" height="1" fill="#000000"/><rect x="38" y="56" width="1" height="1" fill="#000000"/><rect x="39" y="56" width="1" height="1" fill="#000000"/><rect x="42" y="56" width="1" height="1" fill="#000000"/><rect x="43" y="56" width="1" height="1" fill="#000000"/><rect x="25" y="57" width="1" height="1" fill="#000000"/><rect x="26" y="57" width="1" height="1" fill="#000000"/><rect x="33" y="57" width="1" height="1" fill="#000000"/><rect x="34" y="57" width="1" height="1" fill="#000000"/><rect x="35" y="57" width="1" height="1" fill="#000000"/><rect x="36" y="57" width="1" height="1" fill="#000000"/><rect x="37" y="57" width="1" height="1" fill="#000000"/><rect x="38" y="57" width="1" height="1" fill="#000000"/><rect x="42" y="57" width="1" height="1" fill="#000000"/><rect x="43" y="57" width="1" height="1" fill="#000000"/><rect x="25" y="58" width="1" height="1" fill="#000000"/><rect x="27" y="58" width="1" height="1" fill="#000000"/><rect x="33" y="58" width="1" height="1" fill="#000000"/><rect x="41" y="58" width="1" height="1" fill="#000000"/><rect x="42" y="58" width="1" height="1" fill="#000000"/><rect x="43" y="58" width="1" height="1" fill="#000000"/><rect x="25" y="59" width="1" height="1" fill="#000000"/><rect x="26" y="59" width="1" height="1" fill="#000000"/><rect x="28" y="59" width="1" height="1" fill="#000000"/><rect x="33" y="59" width="1" height="1" fill="#000000"/><rect x="38" y="59" width="1" height="1" fill="#000000"/><rect x="39" y="59" width="1" height="1" fill="#000000"/><rect x="40" y="59" width="1" height="1" fill="#000000"/><rect x="41" y="59" width="1" height="1" fill="#000000"/><rect x="42" y="59" width="1" height="1" fill="#000000"/><rect x="26" y="60" width="1" height="1" fill="#000000"/><rect x="27" y="60" width="1" height="1" fill="#000000"/><rect x="29" y="60" width="1" height="1" fill="#000000"/><rect x="30" y="60" width="1" height="1" fill="#000000"/><rect x="31" y="60" width="1" height="1" fill="#000000"/><rect x="38" y="60" width="1" height="1" fill="#000000"/><rect x="39" y="60" width="1" height="1" fill="#000000"/><rect x="40" y="60" width="1" height="1" fill="#000000"/><rect x="41" y="60" width="1" height="1" fill="#000000"/><rect x="27" y="61" width="1" height="1" fill="#000000"/><rect x="28" y="61" width="1" height="1" fill="#000000"/><rect x="29" y="61" width="1" height="1" fill="#000000"/><rect x="30" y="61" width="1" height="1" fill="#000000"/><rect x="31" y="61" width="1" height="1" fill="#000000"/><rect x="32" y="61" width="1" height="1" fill="#000000"/><rect x="33" y="61" width="1" height="1" fill="#000000"/><rect x="34" y="61" width="1" height="1" fill="#000000"/><rect x="35" y="61" width="1" height="1" fill="#000000"/><rect x="36" y="61" width="1" height="1" fill="#000000"/><rect x="37" y="61" width="1" height="1" fill="#000000"/><rect x="38" y="61" width="1" height="1" fill="#000000"/><rect x="39" y="61" width="1" height="1" fill="#000000"/><rect x="40" y="61" width="1" height="1" fill="#000000"/><rect x="29" y="62" width="1" height="1" fill="#000000"/><rect x="30" y="62" width="1" height="1" fill="#000000"/><rect x="31" y="62" width="1" height="1" fill="#000000"/><rect x="32" y="62" width="1" height="1" fill="#000000"/><rect x="33" y="62" width="1" height="1" fill="#000000"/><rect x="34" y="62" width="1" height="1" fill="#000000"/><rect x="35" y="62" width="1" height="1" fill="#000000"/><rect x="36" y="62" width="1" height="1" fill="#000000"/><rect x="37" y="62" width="1" height="1" fill="#000000"/><rect x="38" y="62" width="1" height="1" fill="#000000"/></svg>