<?xml version="1.0" encoding="UTF-8"?>
<svg xmlns="http://www.w3.org/2000/svg" width="64" height="64" viewBox="0 0 64 64" shape-rendering="crispEdges"><rect x="11" y="6" width="1" height="1" fill="#000000"/><rect x="12" y="6" width="1" height="1" fill="#000000"/><rect x="13" y="6" width="1" height="1" fill="#000000"/><rect x="49" y="6" width="1" height="1" fill="#000000"/><rect x="50" y="6" width="1" height="1" fill="#000000"/><rect x="51" y="6" width="1" height="1" fill="#000000"/><rect x="11" y="7" width="1" height="1" fill="#000000"/><rect x="13" y="7" width="1" height="1" fill="#000000"/><rect x="14" y="7" width="1" height="1" fill="#000000"/><rect x="48" y="7" width="1" height="1" fill="#000000"/><rect x="49" y="7" width="1" height="1" fill="#000000"/><rect x="51" y="7" width="1" height="1" fill="#000000"/><rect x="10" y="8" width="1" height="1" fill="#000000"/><rect x="11" y="8" width="1" height="1" fill="#000000"/><rect x="14" y="8" width="1" height="1" fill="#000000"/><rect x="48" y="8" width="1" height="1" fill="#000000"/><rect x="51" y="8" width="1" height="1" fill="#000000"/><rect x="52" y="8" width="1" height="1" fill="#000000"/><rect x="10" y="9" width="1" height="1" fill="#000000"/><rect x="11" y="9" width="1" height="1" fill="#000000"/><rect x="14" y="9" width="1" height="1" fill="#000000"/><rect x="15" y="9" width="1" height="1" fill="#000000"/><rect x="47" y="9" width="1" height="1" fill="#000000"/><rect x="48" y="9" width="1" height="1" fill="#000000"/><rect x="51" y="9" width="1" height="1" fill="#000000"/><rect x="52" y="9" width="1" height="1" fill="#000000"/><rect x="10" y="10" width="1" height="1" fill="#000000"/><rect x="11" y="10" width="1" height="1" fill="#000000"/><rect x="15" y="10" width="1" height="1" fill="#000000"/><rect x="47" y="10" width="1" height="1" fill="#000000"/><rect x="51" y="10" width="1" height="1" fill="#000000"/><rect x="52" y="10" width="1" height="1" fill="#000000"/><rect x="10" y="11" width="1" height="1" fill="#000000"/><rect x="11" y="11" width="1" height="1" fill="#000000"/><rect x="15" y="11" width="1" height="1" fill="#000000"/><rect x="16" y="11" width="1" height="1" fill="#000000"/><rect x="46" y="11" width="1" height="1" fill="#000000"/><rect x="47" y="11" width="1" height="1" fill="#000000"/><rect x="51" y="11" width="1" height="1" fill="#000000"/><rect x="52" y="11" width="1" height="1" fill="#000000"/><rect x="10" y="12" width="1" height="1" fill="#000000"/><rect x="15" y="12" width="1" height="1" fill="#000000"/><rect x="16" y="12" width="1" height="1" fill="#000000"/><rect x="46" y="12" width="1" height="1" fill="#000000"/><rect x="47" y="12" width="1" height="1" fill="#000000"/><rect x="52" y="12" width="1" height="1" fill="#000000"/><rect x="10" y="13" width="1" height="1" fill="#000000"/><rect x="16" y="13" width="1" height="1" fill="#000000"/><rect x="17" y="13" width="1" height="1" fill="#000000"/><rect x="45" y="13" width="1" height="1" fill="#000000"/><rect x="46" y="13" width="1" height="1" fill="#000000"/><rect x="52" y="13" width="1" height="1" fill="#000000"/><rect x="10" y="14" width="1" height="1" fill="#000000"/><rect x="11" y="14" width="1" height="1" fill="#000000"/><rect x="16" y="14" width="1" height="1" fill="#000000"/><rect x="17" y="14" width="1" height="1" fill="#000000"/><rect x="27" y="14" width="1" height="1" fill="#000000"/><rect x="28" y="14" width="1" height="1" fill="#000000"/><rect x="29" y="14" width="1" height="1" fill="#000000"/><rect x="30" y="14" width="1" height="1" fill="#000000"/><rect x="31" y="14" width="1" height="1" fill="#000000"/><rect x="32" y="14" width="1" height="1" fill="#000000"/><rect x="33" y="14" width="1" height="1" fill="#000000"/><rect x="34" y="14" width="1" height="1" fill="#000000"/><rect x="35" y="14" width="1" height="1" fill="#000000"/><rect x="45" y="14" width="1" height="1" fill="#000000"/><rect x="46" y="14" width="1" height="1" fill="#000000"/><rect x="51" y="14" width="1" height="1" fill="#000000"/><rect x="52" y="14" width="1" height="1" fill="#000000"/><rect x="10" y="15" width="1" height="1" fill="#000000"/><rect x="11" y="15" width="1" height="1" fill="#000000"/><rect x="17" y="15" width="1" height="1" fill="#000000"/><rect x="18" y="15" width="1" height="1" fill="#000000"/><rect x="19" y="15" width="1" height="1" fill="#000000"/><rect x="24" y="15" width="1" height="1" fill="#000000"/><rect x="25" y="15" width="1" height="1" fill="#000000"/><rect x="26" y="15" width="1" height="1" fill="#000000"/><rect x="27" y="15" width="1" height="1" fill="#000000"/><rect x="28" y="15" width="1" height="1" fill="#000000"/><rect x="29" y="15" width="1" height="1" fill="#000000"/><rect x="30" y="15" width="1" height="1" fill="#000000"/><rect x="31" y="15" width="1" height="1" fill="#000000"/><rect x="32" y="15" width="1" height="1" fill="#000000"/><rect x="33" y="15" width="1" height="1" fill="#000000"/><rect x="34" y="15" width="1" height="1" fill="#000000"/><rect x="35" y="15" width="1" height="1" fill="#000000"/><rect x="36" y="15" width="1" height="1" fill="#000000"/><rect x="37" y="15" width="1" height="1" fill="#000000"/><rect x="38" y="15" width="1" height="1" fill="#000000"/><rect x="43" y="15" width="1" height="1" fill="#000000"/><rect x="44" y="15" width="1" height="1" fill="#000000"/><rect x="45" y="15" width="1" height="1" fill="#000000"/><rect x="51" y="15" width="1" height="1" fill="#000000"/><rect x="52" y="15" width="1" height="1" fill="#000000"/><rect x="11" y="16" width="1" height="1" fill="#000000"/><rect x="12" y="16" width="1" height="1" fill="#000000"/><rect x="18" y="16" width="1" height="1" fill="#000000"/><rect x="19" y="16" width="1" height="1" fill="#000000"/><rect x="20" y="16" width="1" height="1" fill="#000000"/><rect x="21" y="16" width="1" height="1" fill="#000000"/><rect x="22" y="16" width="1" height="1" fill="#000000"/><rect x="23" y="16" width="1" height="1" fill="#000000"/><rect x="24" y="16" width="1" height="1" fill="#000000"/><rect x="25" y="16" width="1" height="1" fill="#000000"/><rect x="26" y="16" width="1" height="1" fill="#000000"/><rect x="36" y="16" width="1" height="1" fill="#000000"/><rect x="37" y="16" width="1" height="1" fill="#000000"/><rect x="38" y="16" width="1" height="1" fill="#000000"/><rect x="39" y="16" width="1" height="1" fill="#000000"/><rect x="40" y="16" width="1" height="1" fill="#000000"/><rect x="41" y="16" width="1" height="1" fill="#000000"/><rect x="42" y="16" width="1" height="1" fill="#000000"/><rect x="43" y="16" width="1" height="1" fill="#000000"/><rect x="50" y="16" width="1" height="1" fill="#000000"/><rect x="51" y="16" width="1" height="1" fill="#000000"/><rect x="11" y="17" width="1" height="1" fill="#000000"/><rect x="12" y="17" width="1" height="1" fill="#000000"/><rect x="19" y="17" width="1" height="1" fill="#000000"/><rect x="20" y="17" width="1" height="1" fill="#000000"/><rect x="21" y="17" width="1" height="1" fill="#000000"/><rect x="22" y="17" width="1" height="1" fill="#000000"/><rect x="23" y="17" width="1" height="1" fill="#000000"/><rect x="24" y="17" width="1" height="1" fill="#000000"/><rect x="38" y="17" width="1" height="1" fill="#000000"/><rect x="39" y="17" width="1" height="1" fill="#000000"/><rect x="40" y="17" width="1" height="1" fill="#000000"/><rect x="41" y="17" width="1" height="1" fill="#000000"/><rect x="42" y="17" width="1" height="1" fill="#000000"/><rect x="50" y="17" width="1" height="1" fill="#000000"/><rect x="51" y="17" width="1" height="1" fill="#000000"/><rect x="12" y="18" width="1" height="1" fill="#000000"/><rect x="13" y="18" width="1" height="1" fill="#000000"/><rect x="19" y="18" width="1" height="1" fill="#000000"/><rect x="20" y="18" width="1" height="1" fill="#000000"/><rect x="21" y="18" width="1" height="1" fill="#000000"/><rect x="22" y="18" width="1" height="1" fill="#000000"/><rect x="40" y="18" width="1" height="1" fill="#000000"/><rect x="41" y="18" width="1" height="1" fill="#000000"/><rect x="42" y="18" width="1" height="1" fill="#000000"/><rect x="43" y="18" width="1" height="1" fill="#000000"/><rect x="44" y="18" width="1" height="1" fill="#000000"/><rect x="49" y="18" width="1" height="1" fill="#000000"/><rect x="50" y="18" width="1" height="1" fill="#000000"/><rect x="12" y="19" width="1" height="1" fill="#000000"/><rect x="13" y="19" width="1" height="1" fill="#000000"/><rect x="14" y="19" width="1" height="1" fill="#000000"/><rect x="18" y="19" width="1" height="1" fill="#000000"/><rect x="19" y="19" width="1" height="1" fill="#000000"/><rect x="20" y="19" width="1" height="1" fill="#000000"/><rect x="42" y="19" width="1" height="1" fill="#000000"/><rect x="43" y="19" width="1" height="1" fill="#000000"/><rect x="44" y="19" width="1" height="1" fill="#000000"/><rect x="45" y="19" width="1" height="1" fill="#000000"/><rect x="48" y="19" width="1" height="1" fill="#000000"/><rect x="49" y="19" width="1" height="1" fill="#000000"/><rect x="50" y="19" width="1" height="1" fill="#000000"/><rect x="13" y="20" width="1" height="1" fill="#000000"/><rect x="14" y="20" width="1" height="1" fill="#000000"/><rect x="15" y="20" width="1" height="1" fill="#000000"/><rect x="16" y="20" width="1" height="1" fill="#000000"/><rect x="17" y="20" width="1" height="1" fill="#000000"/><rect x="18" y="20" width="1" height="1" fill="#000000"/><rect x="44" y="20" width="1" height="1" fill="#000000"/><rect x="45" y="20" width="1" height="1" fill="#000000"/><rect x="46" y="20" width="1" height="1" fill="#000000"/><rect x="47" y="20" width="1" height="1" fill="#000000"/><rect x="48" y="20" width="1" height="1" fill="#000000"/><rect x="49" y="20" width="1" height="1" fill="#000000"/><rect x="14" y="21" width="1" height="1" fill="#000000"/><rect x="15" y="21" width="1" height="1" fill="#000000"/><rect x="16" y="21" width="1" height="1" fill="#000000"/><rect x="46" y="21" width="1" height="1" fill="#000000"/><rect x="47" y="21" width="1" height="1" fill="#000000"/><rect x="48" y="21" width="1" height="1" fill="#000000"/><rect x="13" y="22" width="1" height="1" fill="#000000"/><rect x="14" y="22" width="1" height="1" fill="#000000"/><rect x="15" y="22" width="1" height="1" fill="#000000"/><rect x="47" y="22" width="1" height="1" fill="#000000"/><rect x="48" y="22" width="1" height="1" fill="#000000"/><rect x="49" y="22" width="1" height="1" fill="#000000"/><rect x="13" y="23" width="1" height="1" fill="#000000"/><rect x="14" y="23" width="1" height="1" fill="#000000"/><rect x="48" y="23" width="1" height="1" fill="#000000"/><rect x="49" y="23" width="1" height="1" fill="#000000"/><rect x="13" y="24" width="1" height="1" fill="#000000"/><rect x="14" y="24" width="1" height="1" fill="#000000"/><rect x="48" y="24" width="1" height="1" fill="#000000"/><rect x="49" y="24" width="1" height="1" fill="#000000"/><rect x="13" y="25" width="1" height="1" fill="#000000"/><rect x="14" y="25" width="1" height="1" fill="#000000"/><rect x="48" y="25" width="1" height="1" fill="#000000"/><rect x="49" y="25" width="1" height="1" fill="#000000"/><rect x="12" y="26" width="1" height="1" fill="#000000"/><rect x="13" y="26" width="1" height="1" fill="#000000"/><rect x="49" y="26" width="1" height="1" fill="#000000"/><rect x="50" y="26" width="1" height="1" fill="#000000"/><rect x="12" y="27" width="1" height="1" fill="#000000"/><rect x="13" y="27" width="1" height="1" fill="#000000"/><rect x="49" y="27" width="1" height="1" fill="#000000"/><rect x="50" y="27" width="1" height="1" fill="#000000"/><rect x="12" y="28" width="1" height="1" fill="#000000"/><rect x="13" y="28" width="1" height="1" fill="#000000"/><rect x="49" y="28" width="1" height="1" fill="#000000"/><rect x="50" y="28" width="1" height="1" fill="#000000"/><rect x="12" y="29" width="1" height="1" fill="#000000"/><rect x="13" y="29" width="1" height="1" fill="#000000"/><rect x="49" y="29" width="1" height="1" fill="#000000"/><rect x="50" y="29" width="1" height="1" fill="#000000"/><rect x="12" y="30" width="1" height="1" fill="#000000"/><rect x="13" y="30" width="1" height="1" fill="#000000"/><rect x="49" y="30" width="1" height="1" fill="#000000"/><rect x="50" y="30" width="1" height="1" fill="#000000"/><rect x="12" y="31" width="1" height="1" fill="#000000"/><rect x="13" y="31" width="1" height="1" fill="#000000"/><rect x="49" y="31" width="1" height="1" fill="#000000"/><rect x="50" y="31" width="1" height="1" fill="#000000"/><rect x="12" y="32" width="1" height="1" fill="#000000"/><rect x="13" y="32" width="1" height="1" fill="#000000"/><rect x="49" y="32" width="1" height="1" fill="#000000"/><rect x="50" y="32" width="1" height="1" fill="#000000"/><rect x="12" y="33" width="1" height="1" fill="#000000"/><rect x="13" y="33" width="1" height="1" fill="#000000"/><rect x="49" y="33" width="1" height="1" fill="#000000"/><rect x="50" y="33" width="1" height="1" fill="#000000"/><rect x="12" y="34" width="1" height="1" fill="#000000"/><rect x="13" y="34" width="1" height="1" fill="#000000"/><rect x="18" y="34" width="1" height="1" fill="#000000"/><rect x="19" y="34" width="1" height="1" fill="#000000"/><rect x="20" y="34" width="1" height="1" fill="#000000"/><rect x="21" y="34" width="1" height="1" fill="#000000"/><rect x="22" y="34" width="1" height="1" fill="#000000"/><rect x="23" y="34" width="1" height="1" fill="#000000"/><rect x="24" y="34" width="1" height="1" fill="#000000"/><rect x="25" y="34" width="1" height="1" fill="#000000"/><rect x="26" y="34" width="1" height="1" fill="#000000"/><rect x="27" y="34" width="1" height="1" fill="#000000"/><rect x="28" y="34" width="1" height="1" fill="#000000"/><rect x="29" y="34" width="1" height="1" fill="#000000"/><rect x="33" y="34" width="1" height="1" fill="#000000"/><rect x="34" y="34" width="1" height="1" fill="#000000"/><rect x="35" y="34" width="1" height="1" fill="#000000"/><rect x="36" y="34" width="1" height="1" fill="#000000"/><rect x="37" y="34" width="1" height="1" fill="#000000"/><rect x="38" y="34" width="1" height="1" fill="#000000"/><rect x="39" y="34" width="1" height="1" fill="#000000"/><rect x="40" y="34" width="1" height="1" fill="#000000"/><rect x="41" y="34" width="1" height="1" fill="#000000"/><rect x="42" y="34" width="1" height="1" fill="#000000"/><rect x="43" y="34" width="1" height="1" fill="#000000"/><rect x="49" y="34" width="1" height="1" fill="#000000"/><rect x="50" y="34" width="1" height="1" fill="#000000"/><rect x="12" y="35" width="1" height="1" fill="#000000"/><rect x="13" y="35" width="1" height="1" fill="#000000"/><rect x="18" y="35" width="1" height="1" fill="#000000"/><rect x="19" y="35" width="1" height="1" fill="#000000"/><rect x="29" y="35" width="1" height="1" fill="#000000"/><rect x="33" y="35" width="1" height="1" fill="#000000"/><rect x="42" y="35" width="1" height="1" fill="#000000"/><rect x="43" y="35" width="1" height="1" fill="#000000"/><rect x="49" y="35" width="1" height="1" fill="#000000"/><rect x="50" y="35" width="1" height="1" fill="#000000"/><rect x="12" y="36" width="1" height="1" fill="#000000"/><rect x="13" y="36" width="1" height="1" fill="#000000"/><rect x="19" y="36" width="1" height="1" fill="#000000"/><rect x="20" y="36" width="1" height="1" fill="#000000"/><rect x="29" y="36" width="1" height="1" fill="#000000"/><rect x="33" y="36" width="1" height="1" fill="#000000"/><rect x="41" y="36" width="1" height="1" fill="#000000"/><rect x="42" y="36" width="1" height="1" fill="#000000"/><rect x="49" y="36" width="1" height="1" fill="#000000"/><rect x="50" y="36" width="1" height="1" fill="#000000"/><rect x="12" y="37" width="1" height="1" fill="#000000"/><rect x="13" y="37" width="1" height="1" fill="#000000"/><rect x="20" y="37" width="1" height="1" fill="#000000"/><rect x="21" y="37" width="1" height="1" fill="#000000"/><rect x="29" y="37" width="1" height="1" fill="#000000"/><rect x="33" y="37" width="1" height="1" fill="#000000"/><rect x="40" y="37" width="1" height="1" fill="#000000"/><rect x="41" y="37" width="1" height="1" fill="#000000"/><rect x="49" y="37" width="1" height="1" fill="#000000"/><rect x="50" y="37" width="1" height="1" fill="#000000"/><rect x="13" y="38" width="1" height="1" fill="#000000"/><rect x="14" y="38" width="1" height="1" fill="#000000"/><rect x="21" y="38" width="1" height="1" fill="#000000"/><rect x="22" y="38" width="1" height="1" fill="#000000"/><rect x="29" y="38" width="1" height="1" fill="#000000"/><rect x="33" y="38" width="1" height="1" fill="#000000"/><rect x="39" y="38" width="1" height="1" fill="#000000"/><rect x="40" y="38" width="1" height="1" fill="#000000"/><rect x="49" y="38" width="1" height="1" fill="#000000"/><rect x="50" y="38" width="1" height="1" fill="#000000"/><rect x="13" y="39" width="1" height="1" fill="#000000"/><rect x="14" y="39" width="1" height="1" fill="#000000"/><rect x="22" y="39" width="1" height="1" fill="#000000"/><rect x="23" y="39" width="1" height="1" fill="#000000"/><rect x="24" y="39" width="1" height="1" fill="#000000"/><rect x="29" y="39" width="1" height="1" fill="#000000"/><rect x="33" y="39" width="1" height="1" fill="#000000"/><rect x="38" y="39" width="1" height="1" fill="#000000"/><rect x="39" y="39" width="1" height="1" fill="#000000"/><rect x="48" y="39" width="1" height="1" fill="#000000"/><rect x="49" y="39" width="1" height="1" fill="#000000"/><rect x="13" y="40" width="1" height="1" fill="#000000"/><rect x="14" y="40" width="1" height="1" fill="#000000"/><rect x="24" y="40" width="1" height="1" fill="#000000"/><rect x="29" y="40" width="1" height="1" fill="#000000"/><rect x="33" y="40" width="1" height="1" fill="#000000"/><rect x="38" y="40" width="1" height="1" fill="#000000"/><rect x="48" y="40" width="1" height="1" fill="#000000"/><rect x="49" y="40" width="1" height="1" fill="#000000"/><rect x="13" y="41" width="1" height="1" fill="#000000"/><rect x="14" y="41" width="1" height="1" fill="#000000"/><rect x="24" y="41" width="1" height="1" fill="#000000"/><rect x="29" y="41" width="1" height="1" fill="#000000"/><rect x="33" y="41" width="1" height="1" fill="#000000"/><rect x="38" y="41" width="1" height="1" fill="#000000"/><rect x="48" y="41" width="1" height="1" fill="#000000"/><rect x="49" y="41" width="1" height="1" fill="#000000"/><rect x="13" y="42" width="1" height="1" fill="#000000"/><rect x="14" y="42" width="1" height="1" fill="#000000"/><rect x="24" y="42" width="1" height="1" fill="#000000"/><rect x="29" y="42" width="1" height="1" fill="#000000"/><rect x="33" y="42" width="1" height="1" fill="#000000"/><rect x="38" y="42" width="1" height="1" fill="#000000"/><rect x="48" y="42" width="1" height="1" fill="#000000"/><rect x="49" y="42" width="1" height="1" fill="#000000"/><rect x="13" y="43" width="1" height="1" fill="#000000"/><rect x="14" y="43" width="1" height="1" fill="#000000"/><rect x="24" y="43" width="1" height="1" fill="#000000"/><rect x="28" y="43" width="1" height="1" fill="#000000"/><rect x="29" y="43" width="1" height="1" fill="#000000"/><rect x="33" y="43" width="1" height="1" fill="#000000"/><rect x="34" y="43" width="1" height="1" fill="#000000"/><rect x="38" y="43" width="1" height="1" fill="#000000"/><rect x="48" y="43" width="1" height="1" fill="#000000"/><rect x="49" y="43" width="1" height="1" fill="#000000"/><rect x="13" y="44" width="1" height="1" fill="#000000"/><rect x="14" y="44" width="1" height="1" fill="#000000"/><rect x="24" y="44" width="1" height="1" fill="#000000"/><rect x="28" y="44" width="1" height="1" fill="#000000"/><rect x="34" y="44" width="1" height="1" fill="#000000"/><rect x="38" y="44" width="1" height="1" fill="#000000"/><rect x="48" y="44" width="1" height="1" fill="#000000"/><rect x="49" y="44" width="1" height="1" fill="#000000"/><rect x="13" y="45" width="1" height="1" fill="#000000"/><rect x="14" y="45" width="1" height="1" fill="#000000"/><rect x="24" y="45" width="1" height="1" fill="#000000"/><rect x="28" y="45" width="1" height="1" fill="#000000"/><rect x="29" y="45" width="1" height="1" fill="#000000"/><rect x="33" y="45" width="1" height="1" fill="#000000"/><rect x="34" y="45" width="1" height="1" fill="#000000"/><rect x="38" y="45" width="1" height="1" fill="#000000"/><rect x="48" y="45" width="1" height="1" fill="#000000"/><rect x="49" y="45" width="1" height="1" fill="#000000"/><rect x="12" y="46" width="1" height="1" fill="#000000"/><rect x="13" y="46" width="1" height="1" fill="#000000"/><rect x="24" y="46" width="1" height="1" fill="#000000"/><rect x="29" y="46" width="1" height="1" fill="#000000"/><rect x="30" y="46" width="1" height="1" fill="#000000"/><rect x="32" y="46" width="1" height="1" fill="#000000"/><rect x="33" y="46" width="1" height="1" fill="#000000"/><rect x="38" y="46" width="1" height="1" fill="#000000"/><rect x="49" y="46" width="1" height="1" fill="#000000"/><rect x="50" y="46" width="1" height="1" fill="#000000"/><rect x="12" y="47" width="1" height="1" fill="#000000"/><rect x="13" y="47" width="1" height="1" fill="#000000"/><rect x="24" y="47" width="1" height="1" fill="#000000"/><rect x="30" y="47" width="1" height="1" fill="#000000"/><rect x="31" y="47" width="1" height="1" fill="#000000"/><rect x="32" y="47" width="1" height="1" fill="#000000"/><rect x="38" y="47" width="1" height="1" fill="#000000"/><rect x="49" y="47" width="1" height="1" fill="#000000"/><rect x="50" y="47" width="1" height="1" fill="#000000"/><rect x="12" y="48" width="1" height="1" fill="#000000"/><rect x="13" y="48" width="1" height="1" fill="#000000"/><rect x="14" y="48" width="1" height="1" fill="#000000"/><rect x="24" y="48" width="1" height="1" fill="#000000"/><rect x="31" y="48" width="1" height="1" fill="#000000"/><rect x="38" y="48" width="1" height="1" fill="#000000"/><rect x="48" y="48" width="1" height="1" fill="#000000"/><rect x="49" y="48" width="1" height="1" fill="#000000"/><rect x="50" y="48" width="1" height="1" fill="#000000"/><rect x="13" y="49" width="1" height="1" fill="#000000"/><rect x="14" y="49" width="1" height="1" fill="#000000"/><rect x="15" y="49" width="1" height="1" fill="#000000"/><rect x="16" y="49" width="1" height="1" fill="#000000"/><rect x="24" y="49" width="1" height="1" fill="#000000"/><rect x="38" y="49" width="1" height="1" fill="#000000"/><rect x="46" y="49" width="1" height="1" fill="#000000"/><rect x="47" y="49" width="1" height="1" fill="#000000"/><rect x="48" y="49" width="1" height="1" fill="#000000"/><rect x="49" y="49" width="1" height="1" fill="#000000"/><rect x="15" y="50" width="1" height="1" fill="#000000"/><rect x="16" y="50" width="1" height="1" fill="#000000"/><rect x="17" y="50" width="1" height="1" fill="#000000"/><rect x="18" y="50" width="1" height="1" fill="#000000"/><rect x="24" y="50" width="1" height="1" fill="#000000"/><rect x="38" y="50" width="1" height="1" fill="#000000"/><rect x="44" y="50" width="1" height="1" fill="#000000"/><rect x="45" y="50" width="1" height="1" fill="#000000"/><rect x="46" y="50" width="1" height="1" fill="#000000"/><rect x="47" y="50" width="1" height="1" fill="#000000"/><rect x="17" y="51" width="1" height="1" fill="#000000"/><rect x="18" y="51" width="1" height="1" fill="#000000"/><rect x="19" y="51" width="1" height="1" fill="#000000"/><rect x="20" y="51" width="1" height="1" fill="#000000"/><rect x="24" y="51" width="1" height="1" fill="#000000"/><rect x="38" y="51" width="1" height="1" fill="#000000"/><rect x="42" y="51" width="1" height="1" fill="#000000"/><rect x="43" y="51" width="1" height="1" fill="#000000"/><rect x="44" y="51" width="1" height="1" fill="#000000"/><rect x="45" y="51" width="1" height="1" fill="#000000"/><rect x="19" y="52" width="1" height="1" fill="#000000"/><rect x="20" y="52" width="1" height="1" fill="#000000"/><rect x="21" y="52" width="1" height="1" fill="#000000"/><rect x="24" y="52" width="1" height="1" fill="#000000"/><rect x="38" y="52" width="1" height="1" fill="#000000"/><rect x="41" y="52" width="1" height="1" fill="#000000"/><rect x="42" y="52" width="1" height="1" fill="#000000"/><rect x="43" y="52" width="1" height="1" fill="#000000"/><rect x="21" y="53" width="1" height="1" fill="#000000"/><rect x="22" y="53" width="1" height="1" fill="#000000"/><rect x="23" y="53" width="1" height="1" fill="#000000"/><rect x="24" y="53" width="1" height="1" fill="#000000"/><rect x="38" y="53" width="1" height="1" fill="#000000"/><rect x="39" y="53" width="1" height="1" fill="#000000"/><rect x="40" y="53" width="1" height="1" fill="#000000"/><rect x="41" y="53" width="1" height="1" fill="#000000"/><rect x="22" y="54" width="1" height="1" fill="#000000"/><rect x="23" y="54" width="1" height="1" fill="#000000"/><rect x="24" y="54" width="1" height="1" fill="#000000"/><rect x="38" y="54" width="1" height="1" fill="#000000"/><rect x="39" y="54" width="1" height="1" fill="#000000"/><rect x="40" y="54" width="1" height="1" fill="#000000"/></svg>